<svg width="70" height="70" viewBox="0 0 70 70" fill="none" xmlns="http://www.w3.org/2000/svg">
<path d="M31.125 8.75V8.25H30.625C27.9426 8.25 25.75 10.4426 25.75 13.125V24.0625C25.75 24.9895 24.9895 25.75 24.0625 25.75C23.1355 25.75 22.375 24.9895 22.375 24.0625V13.125C22.375 8.56677 26.0668 4.875 30.625 4.875H52.5C57.0582 4.875 60.75 8.56677 60.75 13.125V56.875C60.75 61.4332 57.0582 65.125 52.5 65.125H50.3125C49.3855 65.125 48.625 64.3645 48.625 63.4375C48.625 62.5105 49.3855 61.75 50.3125 61.75H52.5C55.1824 61.75 57.375 59.5574 57.375 56.875V13.125C57.375 10.4426 55.1824 8.25 52.5 8.25H52V8.75V10.9375C52 14.2707 49.2707 17 45.9375 17H37.1875C33.8543 17 31.125 14.2707 31.125 10.9375V8.75ZM35 8.25H34.5V8.75V10.9375C34.5 12.4168 35.7082 13.625 37.1875 13.625H45.9375C47.4168 13.625 48.625 12.4168 48.625 10.9375V8.75V8.25H48.125H35Z" fill="#040C02" stroke="white"/>
<path d="M32.4375 49.769L32.791 50.1225L33.1446 49.769L34.4352 48.4784C35.9462 46.9674 38.4077 46.9674 39.9187 48.4784L45.5843 54.144C47.0953 55.655 47.0953 58.1165 45.5843 59.6275L43.1362 62.0756C43.1359 62.076 43.1355 62.0763 43.1351 62.0767C41.1498 64.0406 38.5418 65.1248 35.7441 65.1248H34.2348C31.4351 65.1248 28.8063 64.0392 26.8446 62.0775L12.2777 47.5106C12.2773 47.5103 12.277 47.5099 12.2766 47.5096C10.3127 45.5242 9.22852 42.9162 9.22852 40.1186V38.6092C9.22852 35.8095 10.3141 33.1807 12.2758 31.219L14.7258 28.769C16.2368 27.258 18.6983 27.258 20.2093 28.769L25.875 34.4346C27.386 35.9456 27.386 38.4071 25.875 39.9181L24.5843 41.2088L24.2308 41.5623L24.5843 41.9159L32.4375 49.769ZM17.8321 31.1681L17.4785 30.8146L17.125 31.1681L14.675 33.6181C13.3566 34.9365 12.6035 36.7478 12.6035 38.6092V40.1186C12.6035 41.9799 13.3566 43.7913 14.675 45.1096L29.2437 59.6784C30.562 60.9967 32.3734 61.7498 34.2348 61.7498H35.7441C37.6055 61.7498 39.4169 60.9967 40.7352 59.6784L43.1852 57.2284L43.5387 56.8748L43.1852 56.5213L37.5196 50.8556L37.166 50.5021L36.8125 50.8556L33.9906 53.6775C33.3327 54.3354 32.2712 54.3354 31.6133 53.6775L20.6758 42.74C20.018 42.0821 20.018 41.0206 20.6758 40.3627L23.4977 37.5409L23.8512 37.1873L23.4977 36.8338L17.8321 31.1681Z" fill="#52A93C" stroke="white"/>
</svg>
