<svg width="79" height="33" viewBox="0 0 79 33" fill="none" xmlns="http://www.w3.org/2000/svg">
<path fill-rule="evenodd" clip-rule="evenodd" d="M23.9827 15.8735C22.0028 15.8735 21.9479 13.1672 20.6831 12.2835C20.0782 12.7252 19.9683 12.891 19.5834 13.4986L16.3388 17.8067C14.0291 20.4026 14.4142 20.1817 11.6644 22.9431C8.25496 26.3121 6.00015 28.2454 1.82071 30.2338C1.05071 30.6203 0.610889 30.6203 0.445801 31.3936C1.98555 31.504 1.98555 31.5592 3.5805 31.3936C7.70499 30.9519 9.0799 30.6755 13.0943 29.6814C15.7889 29.0187 18.8686 27.8588 21.2331 26.478C21.563 26.257 22.113 25.9256 22.333 25.7049C22.828 25.3735 22.883 25.2629 22.9379 24.4346C21.6732 24.1584 17.9885 25.4841 14.414 25.4841C14.9639 24.987 15.6787 24.8214 16.3938 24.5452C20.2983 22.9988 26.1825 19.243 28.9321 16.4263C33.2766 12.1182 33.3865 11.9526 37.1261 7.09215C40.2606 3.005 39.8757 4.16487 39.8757 7.09215C39.8757 11.4001 37.3459 14.5483 37.3459 16.4813C39.1607 16.4813 39.6557 15.3768 40.8655 14.1615C42.4053 12.5045 42.5704 11.3446 43.8351 11.2343C44.6601 14.4375 41.8004 20.5684 40.2057 23.3299C36.1361 30.2338 42.9003 24.2688 43.6151 24.2688C45.0449 24.2688 43.2852 27.4171 43.0102 27.8036C41.9652 29.2397 40.9205 30.068 40.9205 31.3936C44.1101 32.1115 50.0493 28.356 51.9742 26.8096C53.5689 25.5393 54.6688 24.3794 56.0987 22.9434C57.1986 21.8387 58.7384 19.3534 60.2781 19.022C61.708 21.1208 59.7831 24.0481 58.5733 25.8707C57.1434 28.08 56.6487 28.9635 54.7787 30.6205C54.2837 31.0623 54.4488 30.6757 54.2288 31.3939C57.8582 33.1061 61.5979 28.2456 63.4126 28.2456C65.6122 28.2456 68.087 32.4431 76.391 32.4431C77.4909 32.4431 78.2057 32.0563 78.6458 31.3936C77.381 30.7309 75.2363 30.8965 72.2665 28.7977C68.087 25.7049 64.6774 21.1205 62.0377 16.6468C58.6832 10.9029 59.0681 17.144 55.7136 17.144C54.3936 17.144 51.0391 13.554 50.1592 12.4493C49.7194 11.9522 49.6642 11.7866 49.2244 11.2894C46.9146 9.02512 43.2302 4.27524 41.3603 2.39722C40.6455 1.67907 40.0406 0.905983 39.2156 0.353638C36.9608 1.90006 27.997 15.8735 23.9824 15.8735H23.9827Z" fill="white"/>
</svg>
