<svg width="40" height="40" viewBox="0 0 40 40" fill="none" xmlns="http://www.w3.org/2000/svg">
<rect x="0.5" y="0.5" width="39" height="39" rx="19.5" stroke="white" stroke-opacity="0.65"/>
<path d="M11.2341 18.9682C11.2341 18.9682 20.08 15.4585 23.1418 14.2221C24.32 13.7262 28.307 12.142 28.307 12.142C28.307 12.142 30.144 11.4465 29.9909 13.1337C29.9377 13.8292 29.5317 16.2506 29.119 18.8716C28.5066 22.5809 27.841 26.6379 27.841 26.6379C27.841 26.6379 27.7412 27.7778 26.8692 27.971C25.9973 28.1706 24.5662 27.2819 24.3133 27.0823C24.107 26.9342 20.4794 24.706 19.1482 23.6177C18.7888 23.3215 18.3827 22.729 19.2014 22.0335C21.0385 20.4042 23.2417 18.3757 24.5662 17.0878C25.1786 16.4953 25.7909 15.1108 23.235 16.7915C19.6075 19.2129 16.0265 21.4926 16.0265 21.4926C16.0265 21.4926 15.2078 21.9884 13.6769 21.5441C12.146 21.0997 10.3555 20.5073 10.3555 20.5073C10.3555 20.5073 9.13082 19.7667 11.2275 18.9746L11.2341 18.9682Z" fill="white"/>
</svg>
