<svg width="40" height="40" viewBox="0 0 40 40" fill="none" xmlns="http://www.w3.org/2000/svg">
<rect x="0.5" y="0.5" width="39" height="39" rx="19.5" stroke="white" stroke-opacity="0.65"/>
<path d="M25.4166 13.4233C24.7548 13.4233 24.2195 13.9587 24.2195 14.6205C24.2195 15.2822 24.7548 15.8176 25.4166 15.8176C26.0784 15.8176 26.6137 15.2822 26.6137 14.6205C26.6137 13.9587 26.0784 13.4233 25.4166 13.4233Z" fill="white"/>
<path d="M20.0855 14.9624C17.3046 14.9624 15.0442 17.2228 15.0442 20.0037C15.0442 22.7846 17.3046 25.045 20.0855 25.045C22.8664 25.045 25.1268 22.7846 25.1268 20.0037C25.1268 17.2228 22.8664 14.9624 20.0855 14.9624ZM20.0855 23.2307C18.3084 23.2307 16.8585 21.7808 16.8585 20.0037C16.8585 18.2266 18.3084 16.7767 20.0855 16.7767C21.8626 16.7767 23.3125 18.2266 23.3125 20.0037C23.3125 21.7808 21.8626 23.2307 20.0855 23.2307Z" fill="white"/>
<path d="M24.0857 30.235H15.9141C12.5235 30.235 9.76489 27.4764 9.76489 24.0858V15.9142C9.76489 12.5236 12.5235 9.76501 15.9141 9.76501H24.0857C27.4763 9.76501 30.2349 12.5236 30.2349 15.9142V24.0858C30.2349 27.4764 27.4763 30.235 24.0857 30.235ZM15.9141 11.6983C13.5868 11.6983 11.6907 13.5943 11.6907 15.9216V24.0933C11.6907 26.4206 13.5868 28.3167 15.9141 28.3167H24.0857C26.413 28.3167 28.3091 26.4206 28.3091 24.0933V15.9216C28.3091 13.5943 26.413 11.6983 24.0857 11.6983H15.9141Z" fill="white"/>
</svg>
