<svg width="70" height="70" viewBox="0 0 70 70" fill="none" xmlns="http://www.w3.org/2000/svg">
<mask id="mask0_939_864" style="mask-type:luminance" maskUnits="userSpaceOnUse" x="0" y="0" width="70" height="70">
<path d="M0 7.62939e-06H70V70H0V7.62939e-06Z" fill="white"/>
</mask>
<g mask="url(#mask0_939_864)">
<path d="M17.4896 37.7225L30.6224 55.2315C31.62 56.5614 33.2095 57.4219 35 57.4219C36.7905 57.4219 38.38 56.5614 39.3776 55.2315L52.5104 37.7225C55.2512 34.0685 56.875 29.5285 56.875 24.6094C56.875 12.5282 47.0813 2.73438 35 2.73438C22.9187 2.73438 13.125 12.5282 13.125 24.6094C13.125 29.5285 14.7489 34.0685 17.4896 37.7225Z" stroke="#52A93C" stroke-width="2" stroke-miterlimit="10" stroke-linecap="round" stroke-linejoin="round"/>
<path d="M40.4687 24.6094C40.4687 27.6296 38.0203 30.0781 35 30.0781C31.9797 30.0781 29.5312 27.6296 29.5312 24.6094C29.5312 21.5891 31.9797 19.1406 35 19.1406C38.0203 19.1406 40.4687 21.5891 40.4687 24.6094Z" stroke="#040C02" stroke-width="2" stroke-miterlimit="10" stroke-linecap="round" stroke-linejoin="round"/>
<path d="M24.0625 67.2656H45.9375" stroke="#040C02" stroke-width="2" stroke-miterlimit="10" stroke-linecap="round" stroke-linejoin="round"/>
</g>
</svg>
