<svg width="70" height="70" viewBox="0 0 70 70" fill="none" xmlns="http://www.w3.org/2000/svg">
<mask id="mask0_939_881" style="mask-type:luminance" maskUnits="userSpaceOnUse" x="0" y="0" width="70" height="70">
<path d="M0 7.62939e-06H70V70H0V7.62939e-06Z" fill="white"/>
</mask>
<g mask="url(#mask0_939_881)">
<path d="M61.7969 9.29676H8.20312C5.18287 9.29676 2.73438 11.7453 2.73438 14.7655V20.1585L31.7361 41.7303C33.6734 43.1713 36.3266 43.1713 38.2639 41.7303L67.2656 20.1585V14.7655C67.2656 11.7453 64.8171 9.29676 61.7969 9.29676Z" stroke="#040C02" stroke-width="2" stroke-miterlimit="10"/>
<path d="M69.2 29.9403L65.3312 32.8179V55.2344C65.3312 57.1838 63.7465 58.7688 61.7969 58.7688H8.20312C6.25354 58.7688 4.66875 57.1838 4.66875 55.2344V32.8179L0.8 29.9403V55.2344C0.8 59.3158 4.12175 62.6375 8.20312 62.6375H61.7969C65.8782 62.6375 69.2 59.3158 69.2 55.2344V29.9403Z" fill="#52A93C" stroke="white" stroke-width="1.6"/>
</g>
</svg>
