<svg width="60" height="61" viewBox="0 0 60 61" fill="none" xmlns="http://www.w3.org/2000/svg">
<rect x="0.5" y="1" width="59" height="59" rx="29.5" stroke="white" stroke-opacity="0.35"/>
<path d="M44.9798 28.7617V28.9519L45.1631 29.0027C47.0738 29.5316 48.4805 31.2851 48.4805 33.3605V39.7447C48.4805 40.2252 48.0909 40.6148 47.6104 40.6148H45.2298H44.9798V40.8648V42.8799C44.9798 43.3604 44.5902 43.75 44.1097 43.75C43.6292 43.75 43.2396 43.3604 43.2396 42.8799V40.8648V40.6148H42.9896H16.7409H16.4909V40.8648V42.8799C16.4909 43.3604 16.1013 43.75 15.6208 43.75C15.1403 43.75 14.7507 43.3604 14.7507 42.8799V40.8648V40.6148H14.5007H12.1201C11.6396 40.6148 11.25 40.2252 11.25 39.7447V33.3605C11.25 31.2851 12.6566 29.5316 14.5674 29.0027L14.7507 28.9519V28.7617V20.3595C14.7507 18.6452 16.1458 17.25 17.8602 17.25H41.8703C43.5847 17.25 44.9798 18.6452 44.9798 20.3595V28.7617ZM42.9896 28.8384H43.2396V28.5884V20.3595C43.2396 19.6043 42.6256 18.9902 41.8704 18.9902H17.8602C17.105 18.9902 16.4909 19.6043 16.4909 20.3595V28.5884V28.8384H16.7409H19.3656H19.6156V28.5884V26.34C19.6156 24.523 21.0942 23.0443 22.9113 23.0443H27.4397C28.3109 23.0443 29.1036 23.3846 29.6941 23.9395L29.8653 24.1004L30.0365 23.9395C30.627 23.3845 31.4197 23.0443 32.2909 23.0443H36.8194C38.6364 23.0443 40.1151 24.5229 40.1151 26.34V28.5884V28.8384H40.3651H42.9896ZM38.1248 28.8384H38.3748V28.5884V26.34C38.3748 25.4821 37.6773 24.7845 36.8193 24.7845H32.2908C31.433 24.7845 30.7354 25.482 30.7354 26.34V28.5884V28.8384H30.9854H38.1248ZM28.7451 28.8384H28.9951V28.5884V26.34C28.9951 25.4821 28.2975 24.7845 27.4395 24.7845H22.911C22.0532 24.7845 21.3556 25.482 21.3556 26.34V28.5884V28.8384H21.6056H28.7451ZM46.4902 38.8746H46.7402V38.6246V33.3605C46.7402 31.8263 45.4925 30.5787 43.9584 30.5787H15.7721C14.2379 30.5787 12.9902 31.8264 12.9902 33.3605V38.6246V38.8746H13.2402H46.4902Z" fill="white" stroke="#212C2A" stroke-width="0.5"/>
</svg>
