<svg width="25" height="24" viewBox="0 0 25 24" fill="none" xmlns="http://www.w3.org/2000/svg">
<g clip-path="url(#clip0_886_33)">
<path d="M15.5499 5C16.5267 5.19057 17.4243 5.66826 18.128 6.37194C18.8317 7.07561 19.3094 7.97326 19.4999 8.95M15.5499 1C17.5792 1.22544 19.4715 2.13417 20.9162 3.57701C22.3608 5.01984 23.2719 6.91101 23.4999 8.94M22.4999 16.92V19.92C22.5011 20.1985 22.444 20.4742 22.3324 20.7293C22.2209 20.9845 22.0572 21.2136 21.852 21.4019C21.6468 21.5901 21.4045 21.7335 21.1407 21.8227C20.8769 21.9119 20.5973 21.9451 20.3199 21.92C17.2428 21.5856 14.2869 20.5341 11.6899 18.85C9.27376 17.3147 7.22527 15.2662 5.68993 12.85C3.99991 10.2412 2.94818 7.27099 2.61993 4.18C2.59494 3.90347 2.62781 3.62476 2.71643 3.36162C2.80506 3.09849 2.9475 2.85669 3.1347 2.65162C3.32189 2.44655 3.54974 2.28271 3.80372 2.17052C4.05771 2.05833 4.33227 2.00026 4.60993 2H7.60993C8.09524 1.99522 8.56572 2.16708 8.93369 2.48353C9.30166 2.79999 9.54201 3.23945 9.60993 3.72C9.73656 4.68007 9.97138 5.62273 10.3099 6.53C10.4445 6.88792 10.4736 7.27691 10.3938 7.65088C10.3141 8.02485 10.1288 8.36811 9.85993 8.64L8.58993 9.91C10.0135 12.4135 12.0864 14.4864 14.5899 15.91L15.8599 14.64C16.1318 14.3711 16.4751 14.1858 16.8491 14.1061C17.223 14.0263 17.612 14.0555 17.9699 14.19C18.8772 14.5286 19.8199 14.7634 20.7799 14.89C21.2657 14.9585 21.7093 15.2032 22.0265 15.5775C22.3436 15.9518 22.5121 16.4296 22.4999 16.92Z" stroke="#42D71D" stroke-width="2" stroke-linecap="round" stroke-linejoin="round"/>
</g>
<defs>
<clipPath id="clip0_886_33">
<rect width="24" height="24" fill="white" transform="translate(0.5)"/>
</clipPath>
</defs>
</svg>
