<svg width="70" height="71" viewBox="0 0 70 71" fill="none" xmlns="http://www.w3.org/2000/svg">
<path d="M39.6976 31.6992L33.9062 37.4906L30.3023 33.8867C30.0939 33.6985 29.8212 33.5977 29.5405 33.6051C29.2598 33.6125 28.9928 33.7276 28.7946 33.9265C28.5964 34.1253 28.4823 34.3928 28.4759 34.6735C28.4695 34.9542 28.5712 35.2266 28.7601 35.4343L33.1351 39.8093C33.3401 40.0131 33.6173 40.1274 33.9062 40.1274C34.1952 40.1274 34.4724 40.0131 34.6773 39.8093L41.2398 33.2468C41.4287 33.0391 41.5305 32.7667 41.5241 32.486C41.5177 32.2053 41.4036 31.9378 41.2054 31.739C41.0072 31.5401 40.7401 31.425 40.4595 31.4176C40.1788 31.4102 39.906 31.511 39.6976 31.6992Z" fill="#48E920"/>
<path d="M55.7812 40.9688C54.8186 40.9695 53.8678 41.182 52.9964 41.5912C52.125 42.0005 51.3544 42.5964 50.7391 43.3368L47.8242 41.6415C48.7415 39.725 49.2176 37.6274 49.2176 35.5028C49.2176 33.3782 48.7415 31.2805 47.8242 29.3641L50.7555 27.6797C51.8127 28.958 53.3118 29.7922 54.9554 30.0167C56.599 30.2412 58.2669 29.8397 59.6282 28.8919C60.9896 27.944 61.9449 26.5191 62.3047 24.8997C62.6644 23.2804 62.4023 21.585 61.5704 20.1498C60.7384 18.7147 59.3974 17.6448 57.8134 17.1522C56.2294 16.6597 54.5181 16.7806 53.019 17.491C51.52 18.2013 50.3427 19.4492 49.7208 20.9871C49.0989 22.5249 49.0778 24.2404 49.6617 25.793L46.7359 27.4719C45.5348 25.7166 43.9551 24.2531 42.1133 23.1893C40.2715 22.1255 38.2144 21.4884 36.0937 21.3251V17.9016C37.7162 17.6274 39.1765 16.7536 40.1851 15.4535C41.1937 14.1534 41.6771 12.5218 41.5395 10.8821C41.4019 9.24239 40.6533 7.7142 39.4421 6.60039C38.2309 5.48657 36.6455 4.86841 35 4.86841C33.3545 4.86841 31.7691 5.48657 30.5579 6.60039C29.3467 7.7142 28.5981 9.24239 28.4605 10.8821C28.3229 12.5218 28.8063 14.1534 29.8149 15.4535C30.8235 16.7536 32.2838 17.6274 33.9062 17.9016V21.3251C31.7879 21.4894 29.7334 22.1264 27.8936 23.1891C26.0538 24.2519 24.4756 25.7135 23.275 27.4665L20.3547 25.7712C20.6362 25.0362 20.7808 24.2559 20.7812 23.4688C20.7826 21.9247 20.2394 20.4295 19.2473 19.2464C18.2551 18.0632 16.8776 17.2677 15.3568 16.9999C13.8361 16.7322 12.2697 17.0092 10.933 17.7823C9.5964 18.5554 8.57518 19.7751 8.04901 21.2268C7.52284 22.6785 7.52542 24.2692 8.05629 25.7192C8.58716 27.1692 9.61233 28.3856 10.9515 29.1543C12.2906 29.9231 13.8579 30.1951 15.3778 29.9223C16.8976 29.6496 18.2726 28.8497 19.2609 27.6633L22.1758 29.3587C21.2577 31.2758 20.7811 33.3744 20.7811 35.5001C20.7811 37.6257 21.2577 39.7243 22.1758 41.6415L19.2555 43.3313C18.2658 42.1464 16.8901 41.3484 15.3703 41.0775C13.8504 40.8066 12.2837 41.0802 10.9457 41.8502C9.6076 42.6202 8.58381 43.8372 8.05432 45.2874C7.52482 46.7375 7.52353 48.3279 8.05065 49.779C8.57778 51.23 9.59958 52.4487 10.9364 53.2208C12.2732 53.993 13.8395 54.2692 15.3597 54.0007C16.88 53.7323 18.257 52.9365 19.2486 51.7533C20.2402 50.57 20.7829 49.0751 20.7812 47.5313C20.7781 46.741 20.6337 45.9575 20.3547 45.218L23.275 43.5337C24.4756 45.2866 26.0538 46.7482 27.8936 47.811C29.7334 48.8738 31.7879 49.5107 33.9062 49.6751V53.0985C32.2838 53.3727 30.8235 54.2465 29.8149 55.5466C28.8063 56.8467 28.3229 58.4783 28.4605 60.118C28.5981 61.7577 29.3467 63.2859 30.5579 64.3997C31.7691 65.5135 33.3545 66.1317 35 66.1317C36.6455 66.1317 38.2309 65.5135 39.4421 64.3997C40.6533 63.2859 41.4019 61.7577 41.5395 60.118C41.6771 58.4783 41.1937 56.8467 40.1851 55.5466C39.1765 54.2465 37.7162 53.3727 36.0937 53.0985V49.6751C38.2121 49.5107 40.2666 48.8738 42.1064 47.811C43.9462 46.7482 45.5244 45.2866 46.725 43.5337L49.6398 45.2344C49.1504 46.5443 49.0922 47.9762 49.4736 49.3215C49.8551 50.6667 50.6562 51.855 51.7603 52.713C52.8644 53.5711 54.2137 54.054 55.6115 54.0914C57.0093 54.1289 58.3825 53.7189 59.5309 52.9212C60.6794 52.1236 61.543 50.9799 61.9959 49.657C62.4489 48.3341 62.4674 46.9011 62.0489 45.5669C61.6303 44.2328 60.7965 43.0671 59.6691 42.24C58.5417 41.4129 57.1795 40.9675 55.7812 40.9688ZM55.7812 19.0938C56.6465 19.0938 57.4924 19.3504 58.2119 19.8311C58.9313 20.3119 59.4921 20.9951 59.8232 21.7946C60.1544 22.594 60.241 23.4737 60.0722 24.3223C59.9034 25.171 59.4867 25.9505 58.8748 26.5624C58.263 27.1743 57.4834 27.5909 56.6348 27.7597C55.7861 27.9286 54.9064 27.8419 54.107 27.5108C53.3076 27.1796 52.6243 26.6189 52.1436 25.8994C51.6628 25.18 51.4062 24.3341 51.4062 23.4688C51.4062 22.3085 51.8672 21.1957 52.6877 20.3752C53.5081 19.5547 54.6209 19.0938 55.7812 19.0938ZM14.2187 27.8438C13.3535 27.8438 12.5076 27.5872 11.7881 27.1065C11.0687 26.6258 10.5079 25.9425 10.1768 25.143C9.84564 24.3436 9.759 23.464 9.92781 22.6153C10.0966 21.7666 10.5133 20.9871 11.1252 20.3752C11.737 19.7634 12.5166 19.3467 13.3652 19.1779C14.2139 19.0091 15.0936 19.0957 15.893 19.4268C16.6924 19.758 17.3757 20.3187 17.8564 21.0382C18.3372 21.7577 18.5937 22.6035 18.5937 23.4688C18.5937 24.6291 18.1328 25.7419 17.3123 26.5624C16.4919 27.3829 15.3791 27.8438 14.2187 27.8438ZM14.2187 51.9063C13.3535 51.9063 12.5076 51.6497 11.7881 51.169C11.0687 50.6883 10.5079 50.005 10.1768 49.2056C9.84564 48.4061 9.759 47.5265 9.92781 46.6778C10.0966 45.8291 10.5133 45.0496 11.1252 44.4377C11.737 43.8259 12.5166 43.4092 13.3652 43.2404C14.2139 43.0716 15.0936 43.1582 15.893 43.4893C16.6924 43.8205 17.3757 44.3812 17.8564 45.1007C18.3372 45.8202 18.5937 46.666 18.5937 47.5313C18.5937 48.6916 18.1328 49.8044 17.3123 50.6249C16.4919 51.4454 15.3791 51.9063 14.2187 51.9063ZM30.625 11.4376C30.625 10.5723 30.8816 9.7264 31.3623 9.00694C31.8431 8.28747 32.5263 7.72672 33.3258 7.39559C34.1252 7.06445 35.0049 6.97781 35.8535 7.14662C36.7022 7.31543 37.4817 7.73211 38.0936 8.34397C38.7054 8.95582 39.1221 9.73537 39.2909 10.584C39.4597 11.4327 39.3731 12.3124 39.042 13.1118C38.7108 13.9112 38.1501 14.5945 37.4306 15.0752C36.7112 15.556 35.8653 15.8126 35 15.8126C33.8397 15.8126 32.7269 15.3516 31.9064 14.5311C31.0859 13.7107 30.625 12.5979 30.625 11.4376ZM39.375 59.5626C39.375 60.4279 39.1184 61.2737 38.6377 61.9932C38.1569 62.7126 37.4737 63.2734 36.6742 63.6045C35.8748 63.9357 34.9951 64.0223 34.1465 63.8535C33.2978 63.6847 32.5183 63.268 31.9064 62.6562C31.2946 62.0443 30.8779 61.2647 30.7091 60.4161C30.5403 59.5674 30.6269 58.6877 30.958 57.8883C31.2892 57.0889 31.8499 56.4056 32.5694 55.9249C33.2888 55.4441 34.1347 55.1876 35 55.1876C36.1603 55.1876 37.2731 55.6485 38.0936 56.469C38.9141 57.2894 39.375 58.4022 39.375 59.5626ZM35 47.5313C32.6204 47.5313 30.2943 46.8257 28.3158 45.5037C26.3373 44.1817 24.7952 42.3026 23.8846 40.1042C22.974 37.9058 22.7357 35.4867 23.1999 33.1529C23.6642 30.819 24.81 28.6753 26.4926 26.9927C28.1752 25.3101 30.319 24.1642 32.6528 23.7C34.9867 23.2358 37.4057 23.474 39.6042 24.3846C41.8026 25.2953 43.6816 26.8373 45.0036 28.8159C46.3256 30.7944 47.0312 33.1205 47.0312 35.5001C47.0312 38.6909 45.7637 41.7511 43.5074 44.0074C41.2511 46.2637 38.1909 47.5313 35 47.5313ZM55.7812 51.9063C54.916 51.9063 54.0701 51.6497 53.3506 51.169C52.6312 50.6883 52.0704 50.005 51.7393 49.2056C51.4081 48.4061 51.3215 47.5265 51.4903 46.6778C51.6591 45.8291 52.0758 45.0496 52.6877 44.4377C53.2995 43.8259 54.0791 43.4092 54.9277 43.2404C55.7764 43.0716 56.6561 43.1582 57.4555 43.4893C58.2549 43.8205 58.9382 44.3812 59.4189 45.1007C59.8997 45.8202 60.1562 46.666 60.1562 47.5313C60.1562 48.6916 59.6953 49.8044 58.8748 50.6249C58.0544 51.4454 56.9416 51.9063 55.7812 51.9063Z" fill="white"/>
</svg>
