<svg width="70" height="71" viewBox="0 0 70 71" fill="none" xmlns="http://www.w3.org/2000/svg">
<g clip-path="url(#clip0_895_35)">
<path d="M12.7591 26.7805C12.0059 26.7257 11.3509 27.2912 11.2958 28.0442C11.2953 28.053 11.2946 28.0635 11.294 28.0722C11.2443 28.8257 11.8148 29.4766 12.5683 29.5264C12.599 29.5284 12.6294 29.5294 12.6596 29.5294C13.3737 29.5294 13.9748 28.9749 14.0225 28.252C14.0228 28.2482 14.0233 28.2382 14.0238 28.2314C14.0719 27.4835 13.5082 26.8352 12.7591 26.7805Z" fill="#48E920"/>
<path d="M58.6947 38.1791C57.9456 38.149 57.3093 38.7228 57.2687 39.4705C57.2682 39.4788 57.2675 39.4909 57.2672 39.4972C57.2309 40.2515 57.8127 40.8923 58.567 40.9287C58.5894 40.9297 58.6117 40.9303 58.6339 40.9303C59.3551 40.9303 59.957 40.3663 59.9979 39.6399C59.9985 39.63 59.9994 39.6138 59.9998 39.6056C60.0333 38.8514 59.449 38.2127 58.6947 38.1791Z" fill="#48E920"/>
<path d="M63.14 18.1527C63.1294 18.032 63.1024 17.9162 63.0625 17.8064C62.2039 14.0908 61.0745 10.455 59.6872 6.94067C59.6659 6.86999 59.6381 6.80231 59.6061 6.73696C58.865 4.87499 58.0525 3.04652 57.1668 1.25988C56.936 0.794492 56.4615 0.5 55.9419 0.5H14.0584C13.5388 0.5 13.0643 0.794492 12.8335 1.25988C11.9478 3.04611 11.1356 4.87417 10.3943 6.736C10.362 6.8019 10.334 6.87013 10.3125 6.94149C8.92554 10.4556 7.79624 14.0909 6.93752 17.8061C6.89746 17.916 6.87039 18.032 6.85986 18.1531C5.58058 23.8061 4.92188 29.6383 4.92188 35.4998C4.92188 41.3619 5.58072 47.1946 6.86027 52.8481C6.87093 52.9678 6.89759 53.0825 6.93697 53.1912C7.79542 56.9061 8.92458 60.5413 10.3113 64.0552C10.3335 64.1292 10.3623 64.2 10.3959 64.2681C11.1367 66.1283 11.9484 67.9549 12.8334 69.7397C13.0641 70.2051 13.5387 70.4996 14.0582 70.4996H23.3105C23.3132 70.4996 23.3157 70.5 23.3184 70.5C23.3204 70.5 23.3221 70.4996 23.324 70.4996H46.6761C46.678 70.4996 46.6798 70.5 46.6817 70.5C46.6845 70.5 46.6869 70.4996 46.6896 70.4996H55.9421C56.4616 70.4996 56.9362 70.2051 57.1669 69.7397C58.0522 67.954 58.8643 66.1265 59.6053 64.2654C59.638 64.1988 59.6664 64.1295 59.688 64.057C61.0748 60.5435 62.2039 56.9086 63.0624 53.1939C63.1026 53.0837 63.1296 52.9674 63.1402 52.846C64.4194 47.1931 65.078 41.3612 65.078 35.4997C65.078 29.638 64.4193 23.8057 63.14 18.1527ZM55.0881 3.23437C55.5214 4.13562 55.9355 5.04753 56.3313 5.96874H49.0018C48.8115 5.05478 48.612 4.14177 48.4048 3.23437H55.0881ZM45.5986 3.23437C45.8099 4.14013 46.0133 5.05327 46.2077 5.96874H36.3674L36.3673 3.23437H45.5986ZM24.4014 3.23437H33.6329L33.633 5.96874H23.7923C23.9867 5.05355 24.1902 4.14054 24.4014 3.23437ZM14.9122 3.23437H21.5952C21.3878 4.14204 21.1884 5.05491 20.9982 5.96874H13.669C14.0648 5.04753 14.4789 4.13562 14.9122 3.23437ZM12.561 8.70311H57.439C58.4585 11.3735 59.3245 14.1143 60.0313 16.9064H9.9687C10.6755 14.1143 11.5416 11.3735 12.561 8.70311ZM49.3034 35.4998C49.3034 40.7819 49.0057 46.1108 48.4187 51.359H36.3673L36.3674 19.6406H48.4187C49.0057 24.8898 49.3034 30.2188 49.3034 35.4998ZM33.633 19.6406L33.6329 51.359H21.5813C20.9945 46.1115 20.6967 40.7826 20.6967 35.4998C20.6967 30.2181 20.9945 24.8891 21.5813 19.6406H33.633ZM7.65624 35.5001C7.65624 30.1463 8.22499 24.8192 9.33146 19.6409H12.4396C12.4339 19.6623 12.4279 19.6846 12.4223 19.7055C12.0322 21.1604 11.8863 21.7048 11.6142 24.187C11.5319 24.9376 12.0738 25.6127 12.8243 25.695C12.8751 25.7005 12.9252 25.7034 12.9751 25.7034C13.6634 25.7034 14.2556 25.1849 14.3325 24.4849C14.5817 22.2108 14.6934 21.794 15.0635 20.4137C15.1244 20.1868 15.1926 19.9323 15.2691 19.6409H18.8309C18.2551 24.8918 17.9624 30.219 17.9624 35.5001C17.9624 40.7821 18.2549 46.1092 18.8308 51.3593H9.33159C8.22486 46.1809 7.65624 40.8538 7.65624 35.5001ZM14.9122 67.7655C14.4789 66.8643 14.0648 65.9523 13.669 65.031H20.9982C21.1885 65.9451 21.388 66.8581 21.5952 67.7655H14.9122ZM33.6333 67.7655H24.4014C24.1902 66.8596 23.9867 65.9466 23.7923 65.031H33.6332V67.7655H33.6333ZM45.5986 67.7655H36.3677L36.3675 65.031H46.2079C46.0134 65.9465 45.8099 66.8596 45.5986 67.7655ZM55.0881 67.7655H48.4049C48.6122 66.8581 48.8117 65.9451 49.002 65.031H56.3313C55.9355 65.9523 55.5214 66.8643 55.0881 67.7655ZM57.4391 62.2966C57.4365 62.2966 57.4391 62.2966 57.4365 62.2966H12.561C11.5415 59.6262 10.6754 56.8854 9.9687 54.0934H60.0313C59.3248 56.8854 58.4586 59.6262 57.4391 62.2966ZM60.6686 51.359H58.3706C58.9492 48.779 59.3894 46.1502 59.6779 43.5201C59.7602 42.7695 59.2185 42.0944 58.4678 42.0121C57.7172 41.9295 57.0421 42.4715 56.9598 43.2221C56.6601 45.9551 56.192 48.6871 55.5673 51.359H51.1692C51.7452 46.1083 52.0378 40.7812 52.0378 35.4998C52.0378 30.2195 51.7452 24.8922 51.1692 19.6406H60.6686C61.775 24.8189 62.3438 30.146 62.3438 35.4998C62.3438 40.8536 61.775 46.1808 60.6686 51.359Z" fill="white"/>
<path d="M24.1371 60.2458C25.1628 60.2458 25.9994 59.3246 25.9994 58.1951C25.9994 57.0654 25.1628 56.1443 24.1371 56.1443C23.1115 56.1443 22.2749 57.0655 22.2749 58.1951C22.2749 59.3246 23.1115 60.2458 24.1371 60.2458Z" fill="#48E920"/>
<path d="M45.8626 60.2458C46.8883 60.2458 47.7248 59.3246 47.7248 58.1951C47.7248 57.0654 46.8883 56.1443 45.8626 56.1443C44.8369 56.1443 44.0005 57.0655 44.0005 58.1951C44.0005 59.3246 44.8369 60.2458 45.8626 60.2458Z" fill="#48E920"/>
<path d="M24.1371 10.7539C23.1115 10.7539 22.2749 11.6753 22.2749 12.8048C22.2749 13.9343 23.1115 14.8556 24.1371 14.8556C25.1628 14.8556 25.9994 13.9343 25.9994 12.8048C25.9994 11.6753 25.1628 10.7539 24.1371 10.7539Z" fill="#48E920"/>
<path d="M45.8626 10.7539C44.8369 10.7539 44.0005 11.6753 44.0005 12.8048C44.0005 13.9343 44.8369 14.8556 45.8626 14.8556C46.8883 14.8556 47.7248 13.9343 47.7248 12.8048C47.7248 11.6753 46.8883 10.7539 45.8626 10.7539Z" fill="#48E920"/>
</g>
<defs>
<clipPath id="clip0_895_35">
<rect width="70" height="70" fill="white" transform="translate(0 0.5)"/>
</clipPath>
</defs>
</svg>
