<svg width="70" height="69" viewBox="0 0 70 69" fill="none" xmlns="http://www.w3.org/2000/svg">
<path d="M43.0125 19.992C46.0212 17.239 46.6122 12.4066 46.6204 11.5454C46.6275 10.7968 46.0376 10.1785 45.2897 10.1463C45.0875 10.1375 40.3278 9.96833 37.2449 12.967C36.8026 13.3971 36.4245 13.8663 36.0981 14.354C35.8894 13.6235 35.6076 12.9051 35.2276 12.2349C34.8543 11.5761 33.9906 11.3378 33.332 11.7112C32.6735 12.0846 32.4349 12.9483 32.8084 13.6068C33.962 15.6412 33.9207 18.4692 33.7814 20.0423C33.7261 20.0262 32.147 19.5627 31.2397 19.5627C29.4016 19.5627 27.208 19.9265 24.8961 20.6148C20.5751 21.9013 18.901 25.7781 18.6945 26.2961C17.9337 27.9959 17.5479 30.0062 17.5479 32.2718C17.5479 43.4374 22.448 52.1838 28.7033 52.1838C30.2858 52.1838 31.3597 51.3747 32.2227 50.7245C33.0906 50.0705 33.7761 49.5542 35.0004 49.5542C36.2247 49.5542 36.9102 50.0707 37.7781 50.7245C38.6411 51.3747 39.715 52.1838 41.2975 52.1838C47.5528 52.1838 52.453 43.4375 52.453 32.2718C52.453 25.6206 49.0662 21.3083 43.0125 19.992ZM39.1841 14.9606C40.5068 13.6742 42.3756 13.198 43.6719 13.0232C43.4375 14.3524 42.8768 16.2795 41.5408 17.5792C40.2181 18.8656 38.3493 19.3418 37.0531 19.5166C37.2874 18.1875 37.8481 16.2601 39.1841 14.9606ZM46.9722 44.7198C45.4032 47.6956 43.3349 49.4024 41.2975 49.4024C40.6745 49.4024 40.2362 49.094 39.4518 48.5029C38.4826 47.7727 37.1554 46.7726 35.0004 46.7726C32.8454 46.7726 31.5182 47.7727 30.549 48.5029C29.7646 49.094 29.3263 49.4024 28.7033 49.4024C26.6659 49.4024 24.5976 47.6956 23.0286 44.7198C21.2879 41.4179 20.3291 36.9971 20.3291 32.2718C20.3291 30.3888 20.637 28.7521 21.2443 27.4072C21.2569 27.3792 21.2687 27.351 21.2793 27.3222C21.2907 27.2916 22.4656 24.2403 25.6896 23.2802C27.7475 22.6676 29.6666 22.3438 31.2396 22.3438C32.5246 22.3438 33.6995 23.0634 35.0004 23.0634C36.3013 23.0634 37.4762 22.3438 38.7613 22.3438C40.6927 22.3438 43.4632 22.6256 45.6925 23.9679C48.3329 25.5578 49.6717 28.3515 49.6717 32.2717C49.6717 36.9971 48.7129 41.4177 46.9722 44.7198Z" fill="#48E920"/>
<path d="M45.0735 29.4666C44.3115 29.556 43.7658 30.2468 43.8544 31.0089C43.8581 31.0411 44.2199 34.2752 43.4292 37.7495C43.2612 38.4877 43.7385 39.2462 44.4766 39.4141C45.2148 39.582 45.9731 39.1048 46.1412 38.3667C47.0423 34.407 46.6343 30.8333 46.6165 30.6831C46.5263 29.921 45.8356 29.3763 45.0735 29.4666Z" fill="#48E920"/>
<path d="M42.1846 44.9995C42.9396 44.9995 43.5518 44.3873 43.5518 43.6323C43.5518 42.8772 42.9396 42.2651 42.1846 42.2651C41.4295 42.2651 40.8174 42.8772 40.8174 43.6323C40.8174 44.3873 41.4295 44.9995 42.1846 44.9995Z" fill="#48E920"/>
<path d="M59.7204 10.1131C53.1132 3.8716 44.3341 0.434082 35 0.434082C25.6659 0.434082 16.8868 3.8716 10.2796 10.1131C3.65066 16.3754 0 24.7075 0 33.5747C0 40.0624 1.96834 46.3166 5.70008 51.71L0.365176 66.7101C-0.0172266 67.785 1.04836 68.864 2.1298 68.4903L18.5248 62.8217C23.5658 65.3707 29.2484 66.7155 35 66.7155C44.3341 66.7155 53.1132 63.278 59.7204 57.0362C66.3493 50.7742 70 42.442 70 33.5747C70 24.7074 66.3493 16.3754 59.7204 10.1131ZM57.8104 55.0147C51.7217 60.7666 43.6208 63.9343 35 63.9343C29.4926 63.9343 24.0576 62.6026 19.2827 60.083C18.9424 59.9033 18.5425 59.8727 18.1792 59.9985L3.955 64.9165L8.56256 51.9617C8.71609 51.53 8.64719 51.0504 8.37813 50.6795C4.71652 45.6299 2.78127 39.7152 2.78127 33.5748C2.78127 25.4805 6.12254 17.8664 12.1896 12.135C18.2783 6.38313 26.3792 3.21535 35 3.21535C43.6208 3.21535 51.7217 6.38313 57.8104 12.135C63.8775 17.8664 67.2187 25.4805 67.2187 33.5748C67.2187 41.6691 63.8775 49.2831 57.8104 55.0147Z" fill="white"/>
</svg>
