<svg width="70" height="71" viewBox="0 0 70 71" fill="none" xmlns="http://www.w3.org/2000/svg">
<g clip-path="url(#clip0_989_152)">
<path d="M58.9167 53C55.3728 53 52.5 55.8728 52.5 59.4167C52.5 62.9605 55.3728 65.8333 58.9167 65.8333C62.4605 65.8333 65.3333 62.9605 65.3333 59.4167C65.3295 55.8744 62.4589 53.0039 58.9167 53ZM58.9167 63.5C56.6615 63.5 54.8333 61.6718 54.8333 59.4167C54.8333 57.1615 56.6615 55.3333 58.9167 55.3333C61.1718 55.3333 63 57.1615 63 59.4167C63 60.4996 62.5698 61.5382 61.804 62.304C61.0382 63.0698 59.9996 63.5 58.9167 63.5Z" fill="white"/>
<path d="M69.3092 55.576C69.0642 55.051 62.3535 40.6228 62.1669 40.2856C60.1579 35.6782 55.0174 33.3049 50.2075 34.7642C45.3976 36.2235 42.4424 41.053 43.3322 46H12.8332C10.9002 46 9.33321 44.433 9.33321 42.5C9.33333 41.9316 8.92383 41.4458 8.36362 41.3498C7.8034 41.2538 7.25553 41.5755 7.06637 42.1115C-0.401459 63.2725 -0.000126077 62.023 -0.000126077 62.3333V64.6666C0.00373106 67.8867 2.61315 70.4961 5.83321 70.5C62.2147 70.5 58.0905 70.514 58.4499 70.4766C61.4663 70.6074 64.4053 69.5005 66.586 67.4123C68.7666 65.3241 69.9998 62.4359 69.9999 59.4166C69.9933 58.1061 69.7596 56.8067 69.3092 55.576ZM53.0832 36.6666C56.1315 36.6659 58.8839 38.4904 60.0704 41.2983C60.1217 41.415 64.0079 49.6773 63.9507 49.5548C61.1459 48.1188 57.8617 47.9473 54.9226 49.0835C51.9834 50.2197 49.6685 52.5556 48.5589 55.5048C45.8615 46.4865 46.0237 47.078 45.5979 45.4306C45.2528 43.2412 45.8829 41.0103 47.3224 39.3249C48.7619 37.6395 50.8667 36.6682 53.0832 36.6666ZM5.83321 68.1666C3.90021 68.1666 2.33321 66.5996 2.33321 64.6666V62.5328L8.16654 46C9.26722 47.47 10.9968 48.3348 12.8332 48.3333H43.9832C48.574 63.5711 48.1739 62.5666 48.8587 64.0483C49.6082 65.6631 50.733 67.0751 52.1394 68.1666H5.83321ZM58.9165 68.1666C54.5062 68.1709 50.7821 64.8922 50.2275 60.5169C49.6729 56.1415 52.4613 52.0374 56.7333 50.9412C61.0052 49.845 65.4252 52.0995 67.0459 56.2013C68.105 58.8942 67.7658 61.9363 66.1397 64.3298C64.5135 66.7234 61.8102 68.1593 58.9165 68.1666Z" fill="#48E920"/>
<path d="M9.33301 26.1667C9.33301 28.6388 18.6663 33.1667 25.1997 33.1667C27.906 33.3026 30.5988 32.7057 32.9942 31.4388C34.2263 32.1879 35.7731 32.1879 37.0052 31.4388C39.4005 32.7057 42.0934 33.3026 44.7997 33.1667C51.333 33.1667 60.6663 28.6388 60.6663 26.1667C60.6663 24.2148 55.0115 21.2293 50.087 19.9262C52.4798 15.7588 54.6288 9.47167 53.1612 8.00517C51.6935 6.53867 45.4063 8.6865 41.239 11.0793C39.9335 6.14783 36.9503 0.5 34.9997 0.5C33.049 0.5 30.0623 6.15483 28.7592 11.0793C24.5918 8.6865 18.3035 6.53867 16.8382 8.00517C15.3728 9.47167 17.5195 15.7588 19.9135 19.9273C14.9808 21.2328 9.33301 24.216 9.33301 26.1667ZM34.9997 17.3338C38.4285 22.7063 37.732 29.6667 34.9997 29.6667C32.2673 29.6667 31.5498 22.739 34.9997 17.3338ZM44.7997 30.8333C42.6837 30.9221 40.5756 30.5229 38.6385 29.6667C39.6872 27.3709 39.952 24.7941 39.3922 22.333C42.1731 21.3942 45.1561 21.2245 48.0255 21.8418C51.652 22.5337 55.0835 24.0097 58.0798 26.1667C54.1826 28.9451 49.5783 30.5631 44.7997 30.8333ZM47.6813 19.4163C45.7386 19.0997 43.7595 19.0749 41.8095 19.3428C42.0884 17.401 42.0644 15.4277 41.7383 13.4932C44.6524 11.6295 47.918 10.3838 51.333 9.83333C50.7835 13.2437 49.5407 16.5051 47.6813 19.4163ZM34.9997 3.09117C37.1434 6.09839 38.6191 9.52927 39.328 13.1537C39.7697 15.3755 39.7816 17.6614 39.363 19.8877C39.1717 19.946 38.971 19.9973 38.789 20.0615C37.8405 17.1542 36.2912 14.5 34.9997 14.5C33.7082 14.5 32.1612 17.1495 31.2127 20.0545C31.0295 19.9892 30.8277 19.9378 30.6293 19.883C30.4215 18.7226 30.3223 17.5454 30.333 16.3667C30.5824 11.5854 32.2024 6.97684 34.9997 3.09117ZM28.261 13.4932C27.9349 15.4276 27.9109 17.401 28.1898 19.3428C26.2397 19.0773 24.261 19.1017 22.318 19.4152C20.4587 16.5044 19.2159 13.2433 18.6663 9.83333C22.0812 10.3842 25.3468 11.6298 28.261 13.4932ZM21.989 21.8383C24.8538 21.2252 27.8307 21.3932 30.6083 22.3248C30.0495 24.7886 30.3138 27.3675 31.3608 29.6667C29.4238 30.5229 27.3157 30.9221 25.1997 30.8333C20.4211 30.5631 15.8167 28.9451 11.9195 26.1667C14.9204 24.0072 18.3572 22.5299 21.989 21.8383Z" fill="white"/>
<path d="M10.5 63.5H8.16667C7.52233 63.5 7 64.0223 7 64.6667C7 65.311 7.52233 65.8333 8.16667 65.8333H10.5C11.1443 65.8333 11.6667 65.311 11.6667 64.6667C11.6667 64.0223 11.1443 63.5 10.5 63.5Z" fill="white"/>
<path d="M45.5 63.5H15.1667C14.5223 63.5 14 64.0223 14 64.6667C14 65.311 14.5223 65.8333 15.1667 65.8333H45.5C46.1443 65.8333 46.6667 65.311 46.6667 64.6667C46.6667 64.0223 46.1443 63.5 45.5 63.5Z" fill="white"/>
</g>
<defs>
<clipPath id="clip0_989_152">
<rect width="70" height="70" fill="white" transform="translate(0 0.5)"/>
</clipPath>
</defs>
</svg>
