<svg width="70" height="71" viewBox="0 0 70 71" fill="none" xmlns="http://www.w3.org/2000/svg">
<path d="M29.9915 51.5918C29.5359 51.1364 28.7974 51.1364 28.3418 51.5918C28.2321 51.7027 17.1628 62.5072 2.94463 53.756C2.40019 53.4597 1.71914 53.6409 1.39388 54.1685C1.06861 54.6962 1.2127 55.386 1.72196 55.7393C5.44901 58.1462 9.77949 59.4528 14.2158 59.5088C20.0567 59.3792 25.656 57.153 29.9915 53.2368C30.4438 52.7818 30.4438 52.0469 29.9915 51.5918Z" fill="#48E920"/>
<path d="M25.1453 64.0191C25.0123 64.0856 11.7975 70.5431 3.15832 61.9051C2.70054 61.463 1.97288 61.4693 1.52286 61.9193C1.07284 62.3694 1.06652 63.097 1.50865 63.5548C4.96899 66.9815 9.67916 68.8456 14.5473 68.715C18.5656 68.6537 22.5282 67.7657 26.1883 66.1063C26.5646 65.9219 26.813 65.55 26.8393 65.1318C26.8656 64.7137 26.6656 64.3136 26.3155 64.0835C25.9653 63.8535 25.5186 63.8289 25.1453 64.0191Z" fill="#48E920"/>
<path d="M68.2782 55.744C68.7875 55.3907 68.9316 54.7009 68.6063 54.1732C68.2811 53.6456 67.6 53.4644 67.0556 53.7607C59.1149 59.0284 48.5916 58.1313 41.6572 51.5954C41.1992 51.1535 40.4715 51.1604 40.0218 51.6107C39.5721 52.0611 39.5663 52.7887 40.0087 53.2462C44.3438 57.1629 49.9434 59.3892 55.7844 59.5182C60.2212 59.4607 64.5517 58.1526 68.2782 55.744Z" fill="#48E920"/>
<path d="M43.8119 66.1063C47.472 67.7659 51.4346 68.6539 55.4529 68.715C60.3211 68.8456 65.0312 66.9815 68.4916 63.5548C68.9337 63.097 68.9274 62.3694 68.4774 61.9193C68.0274 61.4693 67.2997 61.463 66.8419 61.9051C58.2249 70.521 44.9879 64.0833 44.8538 64.0191C44.2802 63.7488 43.5957 63.9861 43.3125 64.5534C43.0293 65.1207 43.2511 65.8104 43.8119 66.1063Z" fill="#48E920"/>
<path d="M32.6668 2.25H18.6668C18.0969 2.25017 17.6105 2.66206 17.5165 3.22417L16.6835 8.2C16.5101 9.24287 15.9877 10.196 15.2018 10.9032C8.81666 16.6198 8.6265 17.0037 8.504 17.2498L0.568331 32.0478C-0.150939 33.3248 -0.164635 34.8815 0.532057 36.171C1.22875 37.4604 2.53836 38.3021 4.00066 38.4003L2.83983 40.561C2.07062 41.8695 2.05719 43.4888 2.80458 44.81C3.55198 46.1311 4.94687 46.9536 6.46466 46.9683C6.08148 48.2352 6.31398 49.6083 7.09283 50.6784C7.87167 51.7485 9.10689 52.3919 10.4302 52.4167C11.944 52.4318 13.3439 51.6145 14.0748 50.2887L14.2113 50.0728C14.966 51.3792 16.3706 52.1725 17.879 52.1444C19.3874 52.1163 20.7614 51.2711 21.4668 49.9375L27.7318 38.3467L27.7902 42.7718C27.7982 44.4785 28.8445 46.0084 30.432 46.635C32.0196 47.2615 33.8287 46.8585 35.0002 45.6173C36.1745 46.8525 37.9807 47.2515 39.5661 46.6262C41.1515 46.0008 42.1988 44.476 42.2137 42.7718L42.272 38.3467L48.5335 49.9422C49.2416 51.273 50.616 52.1149 52.1232 52.1414C53.6305 52.1678 55.0335 51.3745 55.7878 50.0693L55.8765 50.2093C56.43 51.2531 57.4021 52.0115 58.5492 52.2944C59.6963 52.5772 60.9095 52.3578 61.8848 51.691C63.379 50.6247 64.0393 48.7328 63.5333 46.9683C65.0496 46.9545 66.4437 46.1342 67.192 44.8154C67.9404 43.4966 67.9297 41.8791 67.164 40.5703L65.9973 38.4003C67.4604 38.3015 68.7702 37.4587 69.4665 36.1682C70.1628 34.8777 70.148 33.3202 69.4273 32.0432L61.5127 17.2802C61.3738 17.0037 61.1837 16.6233 54.7985 10.9032C54.0127 10.196 53.4903 9.24287 53.3168 8.2L52.4838 3.22417C52.3898 2.66206 51.9034 2.25017 51.3335 2.25H37.3335C36.6892 2.25 36.1668 2.77233 36.1668 3.41667C36.1668 6.63083 35.9977 24.727 35.5287 26.659C35.356 27.233 35.1787 27.842 35.0002 28.4452C34.8298 27.8618 34.6502 27.2692 34.488 26.7185C33.9887 24.6745 33.8335 7.02517 33.8335 3.41667C33.8335 2.77233 33.3112 2.25 32.6668 2.25ZM36.2928 32.6918C36.3407 32.2403 37.0932 29.5582 37.778 27.2715C38.3438 24.958 38.5002 7.40433 38.5002 4.58333H50.3453L51.0115 8.58267C51.2741 10.1495 52.0605 11.5808 53.2422 12.6427C57.4748 16.4343 59.2505 18.126 59.4407 18.3593L67.374 33.148C67.913 34.1134 67.578 35.3327 66.6215 35.8873C65.7894 36.3056 64.7755 36.0172 64.2882 35.2235L59.2178 25.7187C59.0215 25.3508 58.6439 25.1157 58.2272 25.1018C57.8104 25.0879 57.418 25.2973 57.1976 25.6513C56.9772 26.0052 56.9623 26.4498 57.1587 26.8177C64.3208 40.2413 60.5105 33.1177 65.12 41.6903C65.6482 42.5759 65.4197 43.7175 64.5915 44.3317C64.1611 44.6083 63.6355 44.6947 63.1392 44.5703C62.6429 44.4459 62.2202 44.1218 61.9712 43.6748C61.3015 42.409 64.4643 48.5083 54.8545 30.3748C54.6643 29.9977 54.2851 29.7528 53.8631 29.7345C53.4411 29.7163 53.0422 29.9276 52.8202 30.287C52.5982 30.6463 52.5878 31.0976 52.793 31.4668C56.5963 38.6465 59.9272 44.9488 61.102 47.1247C61.6207 48.0118 61.3964 49.1464 60.5793 49.7695C60.1371 50.0674 59.5875 50.1587 59.0727 50.02C58.5579 49.8812 58.1286 49.5259 57.896 49.0462C54.7717 44.1217 56.9067 47.9157 48.8088 32.6312C48.507 32.0619 47.8008 31.8451 47.2315 32.147C46.6622 32.4489 46.4455 33.1551 46.7473 33.7243C52.6553 44.8753 53.6995 46.8727 53.8453 47.0757C54.227 47.922 53.9813 48.9195 53.2503 49.4918C52.8169 49.7834 52.2806 49.8784 51.7735 49.7535C51.2663 49.6287 50.8354 49.2956 50.5868 48.8362L42.1868 33.2833C41.9343 32.8154 41.3974 32.5774 40.8811 32.7045C40.3648 32.8317 39.9998 33.2918 39.9935 33.8235L39.8768 42.7357C39.8716 43.2359 39.6691 43.7139 39.3133 44.0657C38.7739 44.5875 37.9732 44.7331 37.2846 44.4347C36.5959 44.1362 36.1548 43.4523 36.1668 42.7018L36.2928 32.6918ZM33.8335 42.7018C33.8489 43.4547 33.408 44.1422 32.7173 44.4422C32.0267 44.7423 31.2233 44.5954 30.6835 44.0703C30.3279 43.7189 30.1254 43.2414 30.12 42.7415L30.0033 33.8282C29.997 33.2965 29.632 32.8363 29.1157 32.7092C28.5994 32.582 28.0625 32.82 27.81 33.288L19.41 48.8245C19.1624 49.2858 18.7311 49.6207 18.2229 49.7463C17.7146 49.8719 17.177 49.7765 16.743 49.4837C16.0128 48.9108 15.7677 47.9136 16.1492 47.0675C16.295 46.8645 17.3392 44.8672 23.2472 33.7162C23.4424 33.3479 23.4264 32.9035 23.2051 32.5502C22.9839 32.197 22.5909 31.9886 22.1744 32.0036C21.7578 32.0187 21.3809 32.2548 21.1857 32.623C13.1228 47.8422 15.112 44.2897 12.053 49.1173C11.8045 49.5689 11.378 49.8956 10.8773 50.018C10.3766 50.1404 9.8475 50.0473 9.41866 49.7613C8.60156 49.1382 8.37734 48.0036 8.896 47.1165C10.0767 44.929 13.8625 37.768 17.205 31.4587C17.4102 31.0895 17.3998 30.6382 17.1778 30.2788C16.9558 29.9194 16.5569 29.7081 16.1349 29.7264C15.7129 29.7446 15.3337 29.9895 15.1435 30.3667C5.60016 48.3905 8.7035 42.4043 8.03383 43.6667C7.78423 44.112 7.36235 44.4349 6.86732 44.5596C6.3723 44.6843 5.84777 44.5998 5.417 44.3258C4.58454 43.7091 4.35635 42.5611 4.88967 41.6728C9.393 33.2938 5.85216 39.9228 12.8463 26.8095C13.1498 26.2409 12.9349 25.5339 12.3662 25.2304C11.7976 24.9269 11.0906 25.1419 10.7872 25.7105L5.71683 35.2177C5.22451 36.0047 4.21641 36.2916 3.3835 35.8815C2.42872 35.3274 2.09311 34.111 2.62866 33.1457L10.527 18.4165C10.8525 18.0315 12.6445 16.3293 16.7605 12.6427C17.9422 11.5808 18.7286 10.1495 18.9912 8.58267L19.655 4.58333H31.5002C31.5002 7.28183 31.6565 24.9603 32.2375 27.3333C32.9072 29.5593 33.6597 32.2427 33.7052 32.6475L33.8335 42.7042V42.7018Z" fill="white"/>
</svg>
