<svg width="70" height="71" viewBox="0 0 70 71" fill="none" xmlns="http://www.w3.org/2000/svg">
<path d="M68.9062 34.589C68.9062 31.8306 66.6622 29.5865 63.9039 29.5865C62.2528 29.5865 60.7867 30.3909 59.875 31.628C58.7671 30.2728 57.0038 29.3945 55.0214 29.3945C54.769 29.3945 54.5461 29.4045 54.3326 29.4257C53.1346 28.0593 51.5219 27.1786 49.8868 26.915C50.4725 26.0472 50.8149 25.0023 50.8149 23.8789C50.8149 20.879 48.3742 18.4384 45.3744 18.4384C42.3745 18.4384 39.9336 20.879 39.9336 23.8789C39.9336 24.0551 39.9428 24.2291 39.9592 24.401C37.6575 24.0089 35.0574 25.0326 33.365 27.0703C32.4965 26.6291 31.499 26.377 30.4385 26.377C27.0927 26.377 24.3708 28.8779 24.3708 31.9517C24.3708 32.1305 24.382 32.3075 24.3999 32.483C22.5702 32.7395 21.1574 34.3142 21.1574 36.2135C21.1574 36.7593 21.2749 37.2779 21.4847 37.7465H11.6055V17.7886C11.6055 16.2479 12.6681 14.9465 13.9262 14.9465C15.1843 14.9465 16.2468 16.2481 16.2468 17.7886V25.0552H14.617C14.013 25.0552 13.5233 25.5449 13.5233 26.149C13.5233 26.753 14.013 27.2427 14.617 27.2427H23.4784C24.0825 27.2427 24.5722 26.753 24.5722 26.149C24.5722 25.5449 24.0825 25.0552 23.4784 25.0552H21.8486V17.7886C21.8486 12.845 18.2946 8.823 13.9262 8.823C9.55774 8.823 6.00373 12.8449 6.00373 17.7886V37.7467H5.15922C2.91744 37.7467 1.09375 39.2824 1.09375 41.17V42.9721C1.09375 43.5761 1.58348 44.0658 2.1875 44.0658H2.62377C2.81682 45.6718 3.79463 46.5538 4.71283 46.9656C4.97738 52.2668 7.8385 57.2463 12.8656 61.1777C12.4407 61.7228 12.1867 62.4072 12.1867 63.1502C12.1867 64.9229 13.6289 66.3652 15.4016 66.3652H52.0871C53.8598 66.3652 55.3021 64.9229 55.3021 63.1502C55.3021 62.4221 55.0584 61.75 54.6487 61.2103C59.8912 57.2216 62.8657 52.2327 63.1191 46.9805C63.9533 46.4973 64.7116 45.5578 64.8698 44.0659H65.3011C65.9051 44.0659 66.3949 43.5762 66.3949 42.9722V41.1701C66.3949 40.462 66.1382 39.8035 65.6992 39.257C67.573 38.5336 68.9062 36.7146 68.9062 34.589ZM64.2075 41.8783H59.0598V39.9342H62.3295C63.4363 39.9342 64.2074 40.5855 64.2074 41.17L64.2075 41.8783ZM43.2611 31.2974C44.7375 31.2974 45.9386 32.4984 45.9386 33.9749C45.9386 35.4513 44.7375 36.6524 43.2611 36.6524C41.7847 36.6524 40.5836 35.4513 40.5836 33.9749C40.5836 32.4984 41.7847 31.2974 43.2611 31.2974ZM48.2995 39.9342H56.8723V50.7623H48.2995V39.9342ZM53.1943 31.5381C53.8214 32.5168 54.0969 33.6071 53.9699 34.6084C53.8938 35.2077 54.3181 35.7551 54.9173 35.8311C54.9641 35.837 55.0106 35.8399 55.0564 35.8399C55.5991 35.8399 56.07 35.4361 56.1401 34.8835C56.2756 33.8144 56.117 32.6961 55.6925 31.6336C57.5131 31.9121 58.9014 33.3013 58.9014 34.9691C58.9014 35.9617 58.4028 36.9019 57.5332 37.5487C57.4551 37.6068 57.3882 37.6739 57.3304 37.7465H46.3296C47.425 36.8538 48.1262 35.4948 48.1262 33.9747C48.1262 32.4562 47.4265 31.0983 46.333 30.2055C46.5899 29.8626 46.9187 29.5816 47.3104 29.3778C49.1712 28.4103 51.8108 29.3792 53.1943 31.5381ZM45.3742 20.6259C47.168 20.6259 48.6273 22.0853 48.6273 23.8789C48.6273 25.6726 47.168 27.132 45.3742 27.132C44.5104 27.132 43.7248 26.7929 43.1417 26.2416C43.0261 26.0981 42.9038 25.9599 42.7725 25.8294C42.3637 25.2856 42.1211 24.61 42.1211 23.8789C42.1211 22.0851 43.5805 20.6259 45.3742 20.6259ZM30.4385 28.5646C32.5779 28.5646 34.3186 30.0841 34.3186 31.9518C34.3186 32.5559 34.8083 33.0456 35.4123 33.0456C36.0164 33.0456 36.5061 32.5559 36.5061 31.9518C36.5061 30.6009 35.9801 29.361 35.1068 28.3951C36.5608 26.6868 38.8549 25.9964 40.5233 26.8643C40.758 26.9864 40.968 27.1365 41.1547 27.3083C41.2677 27.4472 41.3872 27.5805 41.5133 27.7075C41.8335 28.1397 42.0347 28.6651 42.1008 29.2508C39.9768 29.7727 38.3962 31.6922 38.3962 33.9749C38.3962 35.4949 39.0973 36.8539 40.1929 37.7467H28.3661C28.5759 37.278 28.6934 36.7594 28.6934 36.2136C28.6934 34.7822 27.891 33.5348 26.7124 32.8973C26.6105 32.5925 26.5586 32.2763 26.5586 31.9518C26.5583 30.0841 28.2989 28.5646 30.4385 28.5646ZM23.3449 36.2136C23.3449 35.3422 24.0539 34.6332 24.9253 34.6332C25.7968 34.6332 26.5058 35.3422 26.5058 36.2136C26.5058 36.9549 25.992 37.5769 25.3024 37.7467H24.5485C23.8587 37.577 23.3449 36.9549 23.3449 36.2136ZM8.19109 17.7886C8.19109 14.0511 10.7637 11.0105 13.926 11.0105C17.0883 11.0105 19.661 14.0511 19.661 17.7886V25.0552H18.4341V17.7886C18.4341 15.0153 16.4117 12.759 13.9259 12.759C11.4401 12.759 9.41774 15.0153 9.41774 17.7886V37.7467H8.19082L8.19109 17.7886ZM46.112 39.9342V41.8783H3.28125V41.17C3.28125 40.5855 4.05248 39.9342 5.15908 39.9342H46.112ZM52.0871 64.1776H15.4015C14.8349 64.1776 14.3741 63.7167 14.3741 63.1501C14.3741 62.5835 14.8349 62.1225 15.4015 62.1225H52.0871C52.6537 62.1225 53.1146 62.5835 53.1146 63.1501C53.1146 63.7167 52.6537 64.1776 52.0871 64.1776ZM61.7922 45.1831C61.292 45.3037 60.9442 45.7552 60.9494 46.2597C60.9446 51.2936 57.994 56.1505 52.6291 59.9818C52.4528 59.9517 52.272 59.9352 52.0872 59.9352H15.4015C15.231 59.9352 15.0638 59.9488 14.9004 59.9744C9.72754 56.1915 6.88338 51.3045 6.8801 46.1657C6.88475 45.624 6.48703 45.1548 5.94412 45.0742C5.71676 45.0405 5.0642 44.8712 4.84709 44.0658H46.112V51.2758C46.112 52.1988 46.8629 52.9498 47.7859 52.9498H57.3858C58.3088 52.9498 59.0598 52.1988 59.0598 51.2758V44.0658H62.6601C62.4846 44.9624 61.9217 45.1519 61.7922 45.1831ZM63.9039 37.4039C62.3515 37.4039 61.0888 36.1412 61.0888 34.589C61.0888 33.0367 62.3515 31.774 63.9039 31.774C65.456 31.774 66.7188 33.0367 66.7188 34.589C66.7188 36.141 65.456 37.4039 63.9039 37.4039Z" fill="white"/>
<path d="M60.352 17.577L59.8574 17.319L59.6549 17.8389C59.2105 18.9798 58.1011 19.7885 56.8086 19.7885C55.125 19.7885 53.7546 18.4181 53.7546 16.7345C53.7546 15.0509 55.125 13.6805 56.8086 13.6805C56.9126 13.6805 57.0156 13.6859 57.1179 13.6962L57.6739 13.7521L57.6679 13.1933L57.6675 13.174L57.6671 13.1621C57.667 13.1602 57.667 13.1589 57.667 13.1582C57.668 10.4139 59.9017 8.18084 62.6462 8.18084C65.3914 8.18084 67.6257 10.4152 67.6257 13.1603C67.6257 15.9053 65.3915 18.1395 62.6462 18.1395C61.8189 18.1395 61.0394 17.9356 60.352 17.577ZM47.5623 8.83065C47.5623 10.8679 45.9041 12.5263 43.8667 12.5263C41.8294 12.5263 40.1711 10.8681 40.1711 8.83065C40.1711 6.79323 41.8294 5.13489 43.8667 5.13489C45.904 5.13489 47.5623 6.79335 47.5623 8.83065ZM38.6844 16.0506C38.6844 17.5867 37.4339 18.8372 35.8979 18.8372C34.3618 18.8372 33.1113 17.5868 33.1113 16.0506C33.1113 14.5147 34.3618 13.2642 35.8979 13.2642C37.434 13.2642 38.6844 14.5147 38.6844 16.0506ZM61.6709 24.0686C61.6709 22.6506 62.8255 21.496 64.2435 21.496C65.6616 21.496 66.8162 22.6506 66.8162 24.0686C66.8162 25.4867 65.6616 26.6413 64.2435 26.6413C62.8255 26.6413 61.6709 25.4867 61.6709 24.0686Z" stroke="#48E920"/>
</svg>
