<svg width="70" height="71" viewBox="0 0 70 71" fill="none" xmlns="http://www.w3.org/2000/svg">
<g clip-path="url(#clip0_989_109)">
<path d="M68.6328 28.7324H57.4219V25.8385C57.4219 25.0834 56.8096 24.4713 56.0547 24.4713H26.5234C25.7685 24.4713 25.1562 25.0834 25.1562 25.8385C25.1562 26.5936 25.7685 27.2057 26.5234 27.2057H54.6875V37.6874C54.6875 46.8951 49.7715 55.4529 41.8335 60.1092H15.5884C7.65037 55.453 2.73438 46.8951 2.73438 37.6875V27.2058H11.8945C12.6495 27.2058 13.2617 26.5937 13.2617 25.8386C13.2617 25.0835 12.6495 24.4715 11.8945 24.4715H1.36719C0.612227 24.4715 0 25.0835 0 25.8386V37.6875C0 42.8555 1.38906 47.9228 4.01707 52.3414C5.78936 55.3215 8.08896 57.9531 10.7819 60.1094H1.36719C0.612227 60.1094 0 60.7215 0 61.4766C0 66.4522 4.04783 70.5 9.02344 70.5H51.6797C56.6553 70.5 60.7031 66.4522 60.7031 61.4766C60.7031 60.7215 60.0909 60.1094 59.3359 60.1094H46.64C49.1185 58.1248 51.2627 55.7367 52.9703 53.0455H56.8295C64.0917 53.0455 70 47.1372 70 39.875V30.0996C70 29.3445 69.3879 28.7324 68.6328 28.7324ZM57.819 62.8438C57.1931 65.6563 54.6781 67.7656 51.6797 67.7656H9.02344C6.02506 67.7656 3.51012 65.6563 2.88408 62.8438H15.2221H42.1997H57.819ZM57.4219 37.6875V36.9356H61.7969V39.875C61.7969 42.614 59.5685 44.8424 56.8295 44.8424H56.519C57.1158 42.5174 57.4219 40.1136 57.4219 37.6875ZM67.2656 39.875C67.2656 45.6295 62.584 50.3112 56.8295 50.3112H54.5025C54.9391 49.4196 55.329 48.5069 55.6697 47.5768H56.8295C61.0764 47.5768 64.5312 44.1218 64.5312 39.875V35.5684C64.5312 34.8133 63.919 34.2012 63.1641 34.2012H57.4219V31.4668H67.2656V39.875Z" fill="white"/>
<path d="M30.0165 8.06647L29.3052 7.17329C28.2609 5.86243 28.2594 4.02999 29.3015 2.71721C29.771 2.12577 29.672 1.26581 29.0806 0.796452C28.489 0.326823 27.6292 0.425944 27.1597 1.01739C25.3219 3.33286 25.3246 6.56475 27.1664 8.87694L27.8777 9.77012C29.2423 11.4832 29.2444 13.8778 27.8826 15.5935L27.1537 16.512C26.6842 17.1034 26.7832 17.9634 27.3746 18.4328C27.626 18.6322 27.9258 18.7292 28.2236 18.7292C28.6264 18.7292 29.0255 18.552 29.2955 18.2118L30.0245 17.2933C32.1819 14.5751 32.1788 10.7809 30.0165 8.06647Z" fill="#48E920"/>
<path d="M37.5947 11.1404L36.8833 10.2474C35.8391 8.9364 35.8376 7.10396 36.8796 5.79119C37.3491 5.19974 37.2501 4.33978 36.6587 3.87043C36.0671 3.4008 35.2073 3.49992 34.7378 4.09136C32.9 6.40683 32.9028 9.63873 34.7445 11.9511L35.4558 12.8442C36.8203 14.5575 36.8223 16.9522 35.4606 18.6678L34.7318 19.5861C34.2623 20.1776 34.3613 21.0375 34.9527 21.5069C35.2041 21.7063 35.504 21.8031 35.8017 21.8031C36.2045 21.8031 36.6037 21.6258 36.8736 21.2858L37.6023 20.3675C39.7599 17.6494 39.7567 13.8551 37.5947 11.1404Z" fill="#48E920"/>
<path d="M22.4384 11.1406L21.7271 10.2475C20.6828 8.93666 20.6813 7.10408 21.7233 5.7913C22.1928 5.19986 22.0938 4.3399 21.5023 3.87041C20.9107 3.40091 20.0509 3.50017 19.5814 4.09134C17.7438 6.40681 17.7465 9.63884 19.5883 11.951L20.2996 12.8442C21.6641 14.5574 21.6661 16.9522 20.3045 18.6676L19.5755 19.586C19.1061 20.1774 19.2049 21.0374 19.7963 21.5069C20.0478 21.7063 20.3475 21.8033 20.6454 21.8033C21.0481 21.8033 21.4472 21.6261 21.7171 21.2861L22.4462 20.3676C24.6037 17.6495 24.6005 13.8553 22.4384 11.1406Z" fill="#48E920"/>
<path d="M20.5457 24.8715C20.2914 24.6172 19.9387 24.4709 19.5791 24.4709C19.2195 24.4709 18.8668 24.6172 18.6125 24.8715C18.3583 25.1272 18.2119 25.4786 18.2119 25.8381C18.2119 26.1977 18.3582 26.5504 18.6125 26.8061C18.8668 27.0604 19.2195 27.2053 19.5791 27.2053C19.9387 27.2053 20.2914 27.0604 20.5457 26.8061C20.8012 26.5504 20.9463 26.1991 20.9463 25.8381C20.9463 25.4786 20.8012 25.1258 20.5457 24.8715Z" fill="#48E920"/>
<path d="M49.4919 36.3203C48.737 36.3203 48.1248 36.9324 48.1248 37.6875C48.1248 42.7624 46.0663 47.7497 42.4772 51.3707C41.9456 51.9069 41.9496 52.7726 42.4858 53.3042C42.7524 53.5685 43.1003 53.7004 43.4483 53.7004C43.8002 53.7003 44.1521 53.5652 44.4194 53.2955C48.5119 49.1665 50.8591 43.4777 50.8591 37.6875C50.8591 36.9324 50.2469 36.3203 49.4919 36.3203Z" fill="#48E920"/>
<path d="M40.1793 55.0816C39.8082 54.4238 38.9744 54.1916 38.3168 54.5625L38.2856 54.5801C37.6278 54.9512 37.3955 55.785 37.7665 56.4426C38.0177 56.8881 38.4811 57.1384 38.9585 57.1384C39.186 57.1384 39.4168 57.0814 39.629 56.9618L39.6602 56.9441C40.3179 56.5731 40.5502 55.7392 40.1793 55.0816Z" fill="#48E920"/>
</g>
<defs>
<clipPath id="clip0_989_109">
<rect width="70" height="70" fill="white" transform="translate(0 0.5)"/>
</clipPath>
</defs>
</svg>
