<svg width="70" height="71" viewBox="0 0 70 71" fill="none" xmlns="http://www.w3.org/2000/svg">
<g clip-path="url(#clip0_834_1036)">
<path d="M56.968 0.5C50.9865 0.5 46.1366 5.34988 46.1366 11.3314V17.0704H20.4322V11.3314C20.4322 6.96651 23.9888 3.40993 28.3537 3.40993C32.7186 3.40993 36.2752 6.96651 36.2752 11.3314C36.2752 12.1397 36.9218 12.7864 37.7301 12.7864C38.5384 12.7864 39.1851 12.1397 39.1851 11.3314C39.1851 5.34988 34.3352 0.5 28.3537 0.5C22.3722 0.5 17.5223 5.34988 17.5223 11.3314V48.1097C17.4414 48.918 18.1689 49.6455 18.9772 49.6455C19.7856 49.6455 20.4322 48.9988 20.4322 48.1905V44.5531H46.2174V48.1905C46.2174 48.9988 46.8641 49.6455 47.6724 49.6455C48.4807 49.6455 49.1273 48.9988 49.1273 48.1905V11.3314C49.1273 6.96651 52.6839 3.40993 57.0488 3.40993C61.4137 3.40993 64.8895 6.96651 64.8895 11.3314C64.8895 12.1397 65.5361 12.7864 66.3444 12.7864C67.1528 12.7864 67.7994 12.1397 67.7994 11.3314C67.7994 5.34988 62.9495 0.5 56.968 0.5ZM46.2174 41.4815H20.4322V36.3083H46.2174V41.4815ZM46.2174 33.3984H20.4322V28.2252H46.2174V33.3984ZM46.2174 25.1536H20.4322V19.9804H46.2174V25.1536Z" fill="white"/>
<path d="M64.1618 55.3037C63.8385 54.5762 62.9493 54.1721 62.2218 54.5762C54.947 57.7286 51.3904 56.1928 47.5913 54.5762C43.7114 52.9596 39.7507 51.2621 32.7184 54.5762C25.4435 57.7286 21.887 56.1928 18.0879 54.5762C14.208 52.9596 10.1664 51.2621 3.13406 54.5762C2.40658 54.8995 2.08325 55.7887 2.40658 56.5162C2.72991 57.2437 3.61905 57.567 4.34653 57.2437C10.2472 54.4954 13.3188 55.7887 16.8754 57.3245C19.2195 58.2945 21.7253 59.3453 25.0394 59.3453C27.4643 59.3453 30.2934 58.7794 33.85 57.2437C39.7507 54.4954 42.8223 55.7887 46.3789 57.3245C48.723 58.2945 51.2288 59.3453 54.5428 59.3453C56.9678 59.3453 59.7969 58.7794 63.3535 57.2437C64.081 56.9203 64.4851 56.0312 64.1618 55.3037Z" fill="#48E920"/>
<path d="M64.0812 66.4585C63.7579 65.731 62.8687 65.3268 62.1413 65.731C54.8664 68.8834 51.3098 67.3476 47.5108 65.731C43.6309 64.1144 39.6701 62.4169 32.6378 65.731C25.363 68.8834 21.8064 67.3476 18.0073 65.731C14.1274 64.1144 10.1667 62.4169 3.0535 65.731C2.32601 66.0543 2.00269 66.9435 2.32601 67.671C2.73017 68.3984 3.61932 68.7218 4.3468 68.3984C10.2475 65.6502 13.3191 66.9435 16.8757 68.4793C19.2198 69.4492 21.7256 70.5001 25.0396 70.5001C27.4646 70.5001 30.2937 69.9342 33.8503 68.3984C39.751 65.6502 42.8226 66.9435 46.3791 68.4793C48.7232 69.4492 51.229 70.5001 54.5431 70.5001C56.968 70.5001 59.7971 69.9342 63.3537 68.3984C64.0812 68.0751 64.4854 67.186 64.0812 66.4585Z" fill="#48E920"/>
</g>
<defs>
<clipPath id="clip0_834_1036">
<rect width="70" height="70" fill="white" transform="translate(0 0.5)"/>
</clipPath>
</defs>
</svg>
