<svg width="70" height="63" viewBox="0 0 70 63" fill="none" xmlns="http://www.w3.org/2000/svg">
<path d="M62.1638 35.1887V18.8536C62.1638 16.1523 59.974 13.9625 57.2726 13.9625H23.2296C23.1677 14.005 23.1156 14.061 23.0793 14.1274L21.6004 16.8313C21.4181 17.1648 20.9391 17.1648 20.7569 16.8313L19.278 14.1274C19.2416 14.061 19.1897 14.0052 19.1278 13.9625H12.7277C10.0264 13.9625 7.83643 16.1523 7.83643 18.8536V22.5449" stroke="white" stroke-width="2.5" stroke-miterlimit="10" stroke-linecap="round" stroke-linejoin="round"/>
<path d="M7.83643 27.3301V35.1887" stroke="white" stroke-width="2.5" stroke-miterlimit="10" stroke-linecap="round" stroke-linejoin="round"/>
<path d="M9.79496 54.6174H3.4292V61.3482H9.79496V54.6174Z" stroke="white" stroke-width="2.5" stroke-miterlimit="10" stroke-linecap="round" stroke-linejoin="round"/>
<path d="M66.5704 54.6174H60.2046V61.3482H66.5704V54.6174Z" stroke="white" stroke-width="2.5" stroke-miterlimit="10" stroke-linecap="round" stroke-linejoin="round"/>
<path d="M57.3478 35.066C57.5074 34.6904 57.5963 34.2782 57.5963 33.8461V26.6843C57.5963 24.9557 56.182 23.5414 54.4534 23.5414H40.7982C39.0696 23.5414 37.6553 24.9557 37.6553 26.6843V33.8461C37.6553 34.2782 37.7441 34.6904 37.9037 35.066" stroke="#48E920" stroke-width="2.5" stroke-miterlimit="10" stroke-linecap="round" stroke-linejoin="round"/>
<path d="M32.0964 35.066C32.2559 34.6904 32.3448 34.2782 32.3448 33.8461V26.6843C32.3448 24.9557 30.9306 23.5414 29.2019 23.5414H15.5467C13.8182 23.5414 12.4038 24.9557 12.4038 26.6843V33.8461C12.4038 34.2782 12.4927 34.6904 12.6522 35.066H32.0964Z" stroke="#48E920" stroke-width="2.5" stroke-miterlimit="10" stroke-linecap="round" stroke-linejoin="round"/>
<path d="M45.9375 35.066H8.99994C5.92336 35.066 3.4292 37.5601 3.4292 40.6368V43.5597H66.5707V40.6368C66.5707 37.5602 64.0767 35.066 61 35.066H50.7227" stroke="white" stroke-width="2.5" stroke-miterlimit="10" stroke-linecap="round" stroke-linejoin="round"/>
<path d="M23.5156 54.6175H66.9238C68.0564 54.6175 68.9746 53.6993 68.9746 52.5667V45.6105C68.9746 44.4779 68.0564 43.5597 66.9238 43.5597H3.07617C1.94359 43.5597 1.02539 44.4779 1.02539 45.6105V52.5667C1.02539 53.6993 1.94359 54.6175 3.07617 54.6175H18.7305" stroke="white" stroke-width="2.5" stroke-miterlimit="10" stroke-linecap="round" stroke-linejoin="round"/>
<path d="M21.6004 7.23996L23.0793 9.94385C23.1234 10.0245 23.1897 10.0908 23.2704 10.135L25.9743 11.6139C26.3077 11.7962 26.3077 12.2752 25.9743 12.4574L23.2704 13.9363C23.1897 13.9805 23.1234 14.0468 23.0793 14.1274L21.6004 16.8313C21.418 17.1648 20.9391 17.1648 20.7568 16.8313L19.2779 14.1274C19.2338 14.0468 19.1675 13.9805 19.0868 13.9363L16.3829 12.4574C16.0494 12.275 16.0494 11.7961 16.3829 11.6139L19.0868 10.135C19.1675 10.0908 19.2338 10.0245 19.2779 9.94385L20.7568 7.23996C20.9392 6.9065 21.418 6.9065 21.6004 7.23996Z" stroke="#48E920" stroke-width="2.5" stroke-miterlimit="10" stroke-linecap="round" stroke-linejoin="round"/>
<path d="M30.1123 2.25183V6.55902" stroke="#48E920" stroke-width="2.5" stroke-miterlimit="10" stroke-linecap="round" stroke-linejoin="round"/>
<path d="M27.9585 4.4054H32.2657" stroke="#48E920" stroke-width="2.5" stroke-miterlimit="10" stroke-linecap="round" stroke-linejoin="round"/>
<path d="M38.8623 7.58386V10.5239" stroke="#48E920" stroke-width="2.5" stroke-miterlimit="10" stroke-linecap="round" stroke-linejoin="round"/>
<path d="M37.3921 9.05383H40.3321" stroke="#48E920" stroke-width="2.5" stroke-miterlimit="10" stroke-linecap="round" stroke-linejoin="round"/>
<path d="M49.514 1.90172L50.6625 4.00186C50.7067 4.08252 50.773 4.14883 50.8537 4.19299L52.9538 5.34157C53.2873 5.52395 53.2873 6.00288 52.9538 6.18512L50.8537 7.3337C50.773 7.37786 50.7067 7.44417 50.6625 7.52483L49.514 9.62497C49.3316 9.95842 48.8527 9.95842 48.6704 9.62497L47.5218 7.52483C47.4777 7.44417 47.4114 7.37786 47.3307 7.3337L45.2306 6.18512C44.8971 6.00274 44.8971 5.52381 45.2306 5.34157L47.3307 4.19299C47.4114 4.14883 47.4777 4.08252 47.5218 4.00186L48.6704 1.90172C48.8528 1.5684 49.3316 1.5684 49.514 1.90172Z" stroke="#48E920" stroke-width="2.5" stroke-miterlimit="10" stroke-linecap="round" stroke-linejoin="round"/>
<path d="M1.02539 61.3483H68.9746" stroke="white" stroke-width="2.5" stroke-miterlimit="10" stroke-linecap="round" stroke-linejoin="round"/>
</svg>
