<svg width="70" height="71" viewBox="0 0 70 71" fill="none" xmlns="http://www.w3.org/2000/svg">
<path d="M67.8125 43.1562V3.78125C67.8125 3.49117 67.6973 3.21297 67.4921 3.00785C67.287 2.80273 67.0088 2.6875 66.7188 2.6875H3.28125C2.99117 2.6875 2.71297 2.80273 2.50785 3.00785C2.30273 3.21297 2.1875 3.49117 2.1875 3.78125V43.1562C2.1875 43.4463 2.30273 43.7245 2.50785 43.9296C2.71297 44.1348 2.99117 44.25 3.28125 44.25H8.13928L8.30143 46.4375H5.46875C5.17867 46.4375 4.90047 46.5527 4.69535 46.7579C4.49023 46.963 4.375 47.2412 4.375 47.5312C4.375 47.8213 4.49023 48.0995 4.69535 48.3046C4.90047 48.5098 5.17867 48.625 5.46875 48.625H8.46289L9.75912 66.125H3.28125C2.99117 66.125 2.71297 66.2402 2.50785 66.4454C2.30273 66.6505 2.1875 66.9287 2.1875 67.2188C2.1875 67.5088 2.30273 67.787 2.50785 67.9921C2.71297 68.1973 2.99117 68.3125 3.28125 68.3125H66.7188C67.0088 68.3125 67.287 68.1973 67.4921 67.9921C67.6973 67.787 67.8125 67.5088 67.8125 67.2188C67.8125 66.9287 67.6973 66.6505 67.4921 66.4454C67.287 66.2402 67.0088 66.125 66.7188 66.125H59.3152C59.678 65.7229 59.9351 65.2369 60.0634 64.7107C60.1916 64.1845 60.187 63.6347 60.0499 63.1108C63.5521 59.5513 65.625 54.6012 65.625 49.7188V46.4375C65.6256 45.6691 65.4225 44.9143 65.0364 44.25H66.7188C67.0088 44.25 67.287 44.1348 67.4921 43.9296C67.6973 43.7245 67.8125 43.4463 67.8125 43.1562ZM27.5836 35.5L28.1304 37.6875H9.05707L9.60395 35.5H27.5836ZM57.8278 60.7972C57.6236 60.1233 57.2081 59.533 56.6426 59.1134C56.0771 58.6939 55.3916 58.4674 54.6875 58.4674C53.9834 58.4674 53.2979 58.6939 52.7324 59.1134C52.1669 59.533 51.7514 60.1233 51.5472 60.7972C51.0327 60.9527 50.5643 61.2325 50.1834 61.6118C49.8025 61.991 49.5207 62.4582 49.363 62.9721C49.2053 63.486 49.1764 64.0308 49.2789 64.5584C49.3814 65.0861 49.6122 65.5804 49.9509 65.9979C49.3459 66.0817 48.7358 66.1242 48.125 66.125C44.1148 66.125 40.2813 64.3504 37.3306 61.1279C34.7263 58.2869 33.1493 54.655 32.8516 50.8125H63.3972C63.1266 54.6306 61.4582 58.4141 58.784 61.2715C58.4934 61.0621 58.1703 60.9019 57.8278 60.7972ZM30.625 46.4375H28.8861L29.0482 44.25H31.2136C30.8275 44.9143 30.6244 45.6691 30.625 46.4375ZM11.9533 66.125L10.0089 39.875H27.1786L25.2342 66.125H11.9533ZM27.4278 66.125L28.7246 48.625H30.625V49.7188C30.625 54.374 32.4811 59.0703 35.7174 62.6053C36.9799 63.9944 38.4482 65.1815 40.071 66.125H27.4278ZM53.5283 65.6846C53.4434 65.4885 53.3025 65.3219 53.1232 65.2057C52.9439 65.0895 52.7343 65.0288 52.5206 65.0314C52.5119 65.0314 52.5034 65.0314 52.4941 65.0314C52.3505 65.031 52.2083 65.0023 52.0758 64.947C51.9432 64.8917 51.8228 64.8108 51.7215 64.7089C51.517 64.5033 51.4025 64.2247 51.4032 63.9346C51.404 63.6445 51.52 63.3666 51.7257 63.162C51.9314 62.9575 52.2099 62.843 52.5 62.8438C52.7901 62.8438 53.0683 62.7285 53.2734 62.5234C53.4785 62.3183 53.5938 62.0401 53.5938 61.75C53.5938 61.4599 53.709 61.1817 53.9141 60.9766C54.1192 60.7715 54.3974 60.6562 54.6875 60.6562C54.9776 60.6562 55.2558 60.7715 55.4609 60.9766C55.666 61.1817 55.7812 61.4599 55.7812 61.75C55.7812 62.0401 55.8965 62.3183 56.1016 62.5234C56.3067 62.7285 56.5849 62.8438 56.875 62.8438C57.0186 62.8434 57.1609 62.8713 57.2938 62.9259C57.4266 62.9805 57.5474 63.0607 57.6493 63.162C57.7511 63.2633 57.832 63.3837 57.8873 63.5162C57.9426 63.6488 57.9713 63.7909 57.9717 63.9346C57.9721 64.0782 57.9442 64.2205 57.8896 64.3533C57.8349 64.4862 57.7547 64.607 57.6534 64.7088C57.5521 64.8107 57.4318 64.8915 57.2992 64.9469C57.1667 65.0022 57.0245 65.0309 56.8809 65.0312H56.8544C56.6407 65.0287 56.4311 65.0893 56.2518 65.2056C56.0725 65.3218 55.9316 65.4884 55.8467 65.6845C55.5272 65.9682 55.1148 66.1248 54.6875 66.1248C54.2602 66.1248 53.8478 65.9683 53.5283 65.6846ZM63.4375 46.4375V48.625H32.8125V46.4375C32.8132 45.8576 33.0439 45.3015 33.454 44.8915C33.864 44.4814 34.4201 44.2507 35 44.25H36.0938C36.3338 44.25 36.5672 44.171 36.758 44.0253C36.9487 43.8795 37.0862 43.675 37.1492 43.4434C37.4129 42.4727 38.5131 42.1285 39.375 42.1285C39.9219 42.1285 40.607 42.7419 40.8319 42.9432C41.0325 43.1229 41.2923 43.2223 41.5616 43.2223C41.8309 43.2223 42.0907 43.1229 42.2913 42.9432C42.4933 42.7626 43.0648 42.252 43.5765 42.1484C44.0551 42.6477 44.6795 42.9827 45.3603 43.1054C46.0714 43.859 47.2134 44.25 48.125 44.25C49.0366 44.25 50.1786 43.859 50.8897 43.1054C51.5955 42.9781 52.2401 42.6227 52.7244 42.0937C53.2221 42.2193 53.7626 42.703 53.9577 42.8778C54.1583 43.0575 54.4182 43.1568 54.6875 43.1568C54.9568 43.1568 55.2167 43.0575 55.4173 42.8778C55.6422 42.6757 56.3268 42.0625 56.875 42.0625C57.7959 42.0625 58.8416 42.4895 59.1008 43.4434C59.1638 43.675 59.3013 43.8795 59.492 44.0253C59.6828 44.171 59.9162 44.25 60.1562 44.25H61.25C61.8299 44.2507 62.386 44.4814 62.796 44.8915C63.2061 45.3015 63.4368 45.8576 63.4375 46.4375ZM44.8438 39.875C44.8441 39.585 44.9594 39.307 45.1645 39.102C45.3695 38.8969 45.6475 38.7816 45.9375 38.7812C46.2276 38.7812 46.5058 38.666 46.7109 38.4609C46.916 38.2558 47.0312 37.9776 47.0312 37.6875C47.0312 37.3974 47.1465 37.1192 47.3516 36.9141C47.5567 36.709 47.8349 36.5938 48.125 36.5938C48.4151 36.5938 48.6933 36.709 48.8984 36.9141C49.1035 37.1192 49.2188 37.3974 49.2188 37.6875C49.2188 37.9776 49.334 38.2558 49.5391 38.4609C49.7442 38.666 50.0224 38.7812 50.3125 38.7812C50.6026 38.7805 50.8811 38.895 51.0868 39.0995C51.2924 39.3041 51.4084 39.582 51.4092 39.8721C51.41 40.1621 51.2955 40.4407 51.0909 40.6463C50.8863 40.852 50.6085 40.968 50.3184 40.9688H50.2919C50.0782 40.9662 49.8686 41.0268 49.6893 41.1431C49.51 41.2593 49.3691 41.4259 49.2842 41.622C48.9647 41.9057 48.5523 42.0623 48.125 42.0623C47.6977 42.0623 47.2853 41.9057 46.9658 41.622C46.8809 41.4259 46.74 41.2593 46.5607 41.1431C46.3814 41.0268 46.1718 40.9662 45.9581 40.9688C45.9494 40.9688 45.9411 40.9688 45.9316 40.9688C45.6427 40.9669 45.3662 40.8508 45.1624 40.646C44.9586 40.4411 44.8441 40.164 44.8438 39.875ZM65.625 42.0625H60.8881C60.1617 40.7262 58.6471 39.875 56.875 39.875C56.0273 39.875 55.2835 40.2406 54.6875 40.66C54.3479 40.4157 53.977 40.218 53.5849 40.0721C53.5888 40.0067 53.5938 39.9416 53.5938 39.8751C53.5929 39.1714 53.3662 38.4865 52.9471 37.9212C52.5279 37.356 51.9384 36.9401 51.2653 36.7348C51.0611 36.061 50.6456 35.4706 50.0801 35.0511C49.5146 34.6315 48.8291 34.405 48.125 34.405C47.4209 34.405 46.7354 34.6315 46.1699 35.0511C45.6044 35.4706 45.1889 36.061 44.9847 36.7348C44.3116 36.9401 43.7221 37.3559 43.303 37.9212C42.8838 38.4865 42.6571 39.1713 42.6562 39.875C42.6562 39.9632 42.6612 40.0501 42.668 40.1367C42.2748 40.2827 41.9029 40.481 41.5625 40.7261C40.9667 40.3065 40.2227 39.9409 39.375 39.9409C37.5703 39.9409 36.0801 40.7505 35.3627 42.0625H29.2104L29.3724 39.875H29.5312C29.6975 39.875 29.8615 39.8371 30.0109 39.7642C30.1602 39.6913 30.291 39.5854 30.3933 39.4544C30.4956 39.3234 30.5667 39.1708 30.6012 39.0082C30.6357 38.8456 30.6326 38.6773 30.5923 38.516L29.4986 34.141C29.4394 33.9044 29.3029 33.6943 29.1106 33.5442C28.9183 33.3941 28.6814 33.3125 28.4375 33.3125H19.5593L18.5853 25.5206C18.5629 25.342 18.4969 25.1716 18.3929 25.0246C18.2889 24.8776 18.1502 24.7586 17.9892 24.678L13.6142 22.4905C13.3551 22.3635 13.0562 22.344 12.7828 22.4363C12.5093 22.5286 12.2835 22.7252 12.1544 22.9834C12.0253 23.2415 12.0035 23.5402 12.0936 23.8143C12.1838 24.0885 12.3787 24.3159 12.6358 24.447L16.4873 26.3727L17.3548 33.3125H8.75C8.50608 33.3125 8.26915 33.3941 8.07689 33.5442C7.88464 33.6943 7.74808 33.9044 7.68893 34.141L6.59518 38.516C6.55487 38.6773 6.55184 38.8456 6.58633 39.0082C6.62081 39.1708 6.6919 39.3234 6.79418 39.4544C6.89647 39.5854 7.02727 39.6913 7.17664 39.7642C7.32602 39.8371 7.49004 39.875 7.65625 39.875H7.81525L7.97727 42.0625H4.375V4.875H65.625V42.0625Z" fill="white"/>
<path d="M35 32.2188C37.1632 32.2188 39.2779 31.5773 41.0765 30.3755C42.8752 29.1736 44.2771 27.4654 45.1049 25.4669C45.9328 23.4683 46.1494 21.2691 45.7273 19.1475C45.3053 17.0258 44.2636 15.0769 42.734 13.5473C41.2043 12.0176 39.2555 10.9759 37.1338 10.5539C35.0121 10.1319 32.813 10.3485 30.8144 11.1763C28.8158 12.0042 27.1076 13.406 25.9058 15.2047C24.704 17.0034 24.0625 19.118 24.0625 21.2813C24.0658 24.1811 25.2192 26.9611 27.2697 29.0116C29.3201 31.0621 32.1002 32.2155 35 32.2188ZM35 12.5313C36.7306 12.5313 38.4223 13.0444 39.8612 14.0059C41.3002 14.9674 42.4217 16.3339 43.0839 17.9328C43.7462 19.5316 43.9195 21.291 43.5819 22.9883C43.2443 24.6856 42.4109 26.2447 41.1872 27.4684C39.9635 28.6922 38.4044 29.5255 36.707 29.8631C35.0097 30.2007 33.2504 30.0275 31.6515 29.3652C30.0527 28.7029 28.6861 27.5814 27.7246 26.1425C26.7632 24.7036 26.25 23.0118 26.25 21.2813C26.2526 18.9614 27.1753 16.7373 28.8157 15.0969C30.4561 13.4566 32.6802 12.5339 35 12.5313Z" fill="#48E920"/>
<path d="M32.2375 25.493C32.3961 25.591 32.5771 25.6468 32.7634 25.6551C32.9496 25.6635 33.1349 25.6241 33.3017 25.5407L39.8642 22.2594C40.0458 22.1686 40.1986 22.0289 40.3054 21.8562C40.4121 21.6834 40.4687 21.4843 40.4687 21.2812C40.4687 21.0781 40.4121 20.879 40.3054 20.7062C40.1986 20.5335 40.0458 20.3938 39.8642 20.303L33.3017 17.0217C33.1349 16.9384 32.9496 16.899 32.7634 16.9074C32.5771 16.9157 32.3961 16.9716 32.2375 17.0696C32.0789 17.1676 31.948 17.3045 31.8572 17.4673C31.7664 17.6302 31.7188 17.8135 31.7188 18V24.5625C31.7187 24.7489 31.7664 24.9323 31.8572 25.0951C31.9479 25.258 32.0789 25.3949 32.2375 25.493ZM33.9062 19.7696L36.9292 21.2812L33.9062 22.7928V19.7696Z" fill="#48E920"/>
<path d="M18.5938 44.25C17.5121 44.25 16.4548 44.5707 15.5555 45.1716C14.6561 45.7726 13.9552 46.6267 13.5413 47.6259C13.1274 48.6252 13.0191 49.7248 13.2301 50.7857C13.4411 51.8465 13.9619 52.8209 14.7268 53.5857C15.4916 54.3506 16.466 54.8714 17.5269 55.0824C18.5877 55.2934 19.6873 55.1851 20.6866 54.7712C21.6858 54.3573 22.5399 53.6564 23.1409 52.757C23.7418 51.8577 24.0625 50.8004 24.0625 49.7188C24.0609 48.2688 23.4842 46.8788 22.4589 45.8536C21.4337 44.8283 20.0437 44.2516 18.5938 44.25ZM21.875 49.7188C21.8752 49.9908 21.8414 50.2617 21.7745 50.5254L16.6276 47.0937C17.1149 46.7282 17.6945 46.5057 18.3012 46.451C18.9079 46.3964 19.5178 46.5118 20.0627 46.7843C20.6075 47.0569 21.0656 47.4758 21.3857 47.9941C21.7058 48.5124 21.8753 49.1096 21.875 49.7188ZM15.3125 49.7188C15.3124 49.4467 15.3461 49.1758 15.413 48.9121L20.5599 52.3438C20.0726 52.7093 19.4931 52.9318 18.8863 52.9865C18.2796 53.0411 17.6697 52.9257 17.1248 52.6532C16.58 52.3806 16.1219 51.9617 15.8018 51.4434C15.4817 50.9251 15.3123 50.3279 15.3125 49.7188Z" fill="#48E920"/>
<path d="M55.204 35.4491C55.915 36.2027 57.057 36.5937 57.9687 36.5937C58.8803 36.5937 60.0223 36.2027 60.7334 35.4491C61.4594 35.3199 62.1207 34.95 62.6107 34.3989C63.1007 33.8478 63.3907 33.1478 63.4341 32.4117C63.4775 31.6756 63.2717 30.9463 62.8499 30.3415C62.428 29.7367 61.8148 29.2916 61.109 29.078C60.9048 28.4041 60.4893 27.8138 59.9238 27.3942C59.3583 26.9747 58.6728 26.7482 57.9687 26.7482C57.2645 26.7482 56.5791 26.9747 56.0136 27.3942C55.4481 27.8138 55.0326 28.4041 54.8284 29.078C54.1226 29.2916 53.5094 29.7367 53.0875 30.3415C52.6657 30.9463 52.4599 31.6756 52.5032 32.4117C52.5466 33.1478 52.8367 33.8478 53.3267 34.3989C53.8167 34.95 54.478 35.3199 55.204 35.4491ZM55.7812 31.125C56.0713 31.125 56.3495 31.0097 56.5546 30.8046C56.7597 30.5995 56.8749 30.3213 56.8749 30.0312C56.8749 29.7411 56.9902 29.4629 57.1953 29.2578C57.4004 29.0527 57.6786 28.9375 57.9687 28.9375C58.2588 28.9375 58.537 29.0527 58.7421 29.2578C58.9472 29.4629 59.0624 29.7411 59.0624 30.0312C59.0624 30.3213 59.1777 30.5995 59.3828 30.8046C59.5879 31.0097 59.8661 31.125 60.1562 31.125C60.2998 31.1246 60.4421 31.1525 60.575 31.2071C60.7078 31.2617 60.8286 31.342 60.9304 31.4432C61.0323 31.5445 61.1132 31.6649 61.1685 31.7974C61.2238 31.93 61.2525 32.0721 61.2529 32.2158C61.2533 32.3594 61.2254 32.5017 61.1707 32.6346C61.1161 32.7674 61.0359 32.8882 60.9346 32.99C60.8333 33.0919 60.713 33.1728 60.5804 33.2281C60.4479 33.2834 60.3057 33.3121 60.1621 33.3125H60.1355C59.9219 33.3099 59.7123 33.3706 59.533 33.4868C59.3537 33.603 59.2128 33.7696 59.1279 33.9657C58.8084 34.2494 58.396 34.4061 57.9687 34.4061C57.5414 34.4061 57.129 34.2494 56.8094 33.9657C56.7246 33.7696 56.5837 33.603 56.4044 33.4868C56.2251 33.3706 56.0155 33.3099 55.8018 33.3125H55.7753C55.6317 33.3121 55.4895 33.2834 55.357 33.2281C55.2244 33.1728 55.1041 33.0919 55.0028 32.99C54.7982 32.7844 54.6837 32.5059 54.6845 32.2158C54.6853 31.9257 54.8013 31.6478 55.0069 31.4432C55.2126 31.2387 55.4911 31.1242 55.7812 31.125Z" fill="#48E920"/>
</svg>
