<svg width="71" height="71" viewBox="0 0 71 71" fill="none" xmlns="http://www.w3.org/2000/svg">
<g clip-path="url(#clip0_989_138)">
<path d="M1.0488 51.4531L5.91235 52.6249C6.01777 52.6501 6.12532 52.6629 6.23341 52.6629H33.9956C34.7522 52.6629 35.3655 52.0492 35.3655 51.2931V14.4042C35.3655 13.6481 34.7522 13.0343 33.9956 13.0343C33.239 13.0343 32.6257 13.6481 32.6257 14.4042V35.8109H31.3105C28.6697 35.8109 26.0354 35.2223 23.6424 34.1061L22.4765 14.3239C22.4315 13.5689 21.7814 12.9915 21.0279 13.037C20.2729 13.0814 19.6966 13.7299 19.7415 14.485L20.8974 34.0906L11.4239 38.0033C11.1569 38.1135 10.8818 38.1959 10.602 38.2505C10.5977 38.2516 10.594 38.2521 10.5897 38.2526C10.3232 38.304 10.0514 38.3302 9.77633 38.3302C9.77419 38.3302 9.77205 38.3302 9.76991 38.3302L7.67016 38.3275C7.66695 38.3275 7.66374 38.3275 7.66 38.3275C4.64951 38.3275 1.9558 40.2341 0.955693 43.075L0.0775899 45.5696C0.0256849 45.7173 0.00160532 45.8709 0.00160532 46.0245C0.00107021 46.0245 0.000535103 46.0245 0 46.0245V50.1217C0 50.7548 0.433433 51.3048 1.0488 51.4531ZM6.39608 49.9232L2.73973 49.0424V47.7962L5.78714 48.5892C5.89951 48.6186 6.01562 48.6331 6.13228 48.6331H32.6257V49.9232H6.39608ZM3.5397 43.9846C4.15454 42.2386 5.80961 41.0667 7.66 41.0667H7.66642L9.76616 41.0699H9.77633C9.97378 41.0699 10.1696 41.0598 10.3649 41.0437L12.4984 43.1777C12.7659 43.4447 13.1164 43.5785 13.4669 43.5785C13.8174 43.5785 14.1685 43.4447 14.4355 43.1777C14.9706 42.6426 14.9706 41.7752 14.4355 41.2401L13.3626 40.1667L15.0728 39.4604L17.2223 41.6099C17.4898 41.8774 17.8403 42.0112 18.1908 42.0112C18.5413 42.0112 18.8918 41.8774 19.1594 41.6099C19.6945 41.0753 19.6945 40.2079 19.1594 39.6728L17.8146 38.3281L19.101 37.7967L21.2265 39.9221C21.494 40.1897 21.8445 40.3235 22.195 40.3235C22.5455 40.3235 22.896 40.1897 23.1635 39.9221C23.6986 39.3876 23.6986 38.5202 23.1635 37.9851L21.8429 36.6644L22.2683 36.4884C25.0792 37.839 28.1914 38.5507 31.3105 38.5507H32.6257V45.8934H6.30726L3.15657 45.0736L3.5397 43.9846Z" fill="white"/>
<path d="M37.3335 51.8003C37.3624 51.9538 37.4181 52.0994 37.4946 52.2321C37.4946 52.2321 37.494 52.2326 37.4935 52.2326L39.5424 55.7809C39.7918 56.2133 40.2488 56.4664 40.7287 56.4664C40.8577 56.4664 40.9883 56.4476 41.1167 56.4102L45.9144 54.9927C46.0177 54.9622 46.1178 54.9194 46.2109 54.8653L68.354 42.0807C69.1786 41.605 69.7682 40.8366 70.0144 39.9172C70.2605 38.9979 70.1342 38.0374 69.6585 37.2134L68.7403 35.623L63.7564 26.9913L56.8995 8.58377C56.6357 7.87476 55.847 7.5141 55.138 7.77844C54.429 8.04225 54.0683 8.83099 54.3321 9.54L60.8251 26.9694L59.5028 27.7324C57.2607 29.0268 54.7415 29.8284 52.1655 30.0756L44.9314 13.8465C44.6232 13.1557 43.8136 12.8448 43.1228 13.153C42.432 13.4612 42.1211 14.2708 42.4293 14.9622L49.7217 31.3224L43.3764 39.5748C43.2015 39.8017 43.0067 40.0093 42.7937 40.1955C42.7878 40.1998 42.7825 40.2041 42.7771 40.2089C42.5706 40.3871 42.3474 40.5465 42.1077 40.6841L40.2878 41.7318C37.6749 43.2354 36.2917 46.2373 36.8471 49.2007L37.3335 51.8003ZM67.3683 39.2082C67.311 39.4207 67.1751 39.5983 66.9841 39.7086L44.9823 52.4114L41.3751 53.4767L40.7523 52.3974L43.7874 51.5605C43.8998 51.529 44.0079 51.484 44.1085 51.4262L67.0526 38.1792L67.2859 38.5832C67.3961 38.7737 67.425 38.9958 67.3683 39.2082ZM41.6539 44.1066L43.4738 43.0588C43.6483 42.9588 43.8163 42.8507 43.98 42.7372L46.8942 43.518C47.013 43.5501 47.1323 43.565 47.2495 43.565C47.8547 43.565 48.408 43.1616 48.5723 42.5494C48.7681 41.819 48.3342 41.0677 47.6032 40.8719L46.137 40.4791L47.2656 39.0119L50.2017 39.7985C50.3205 39.8306 50.4398 39.8461 50.557 39.8461C51.1616 39.8461 51.7155 39.4421 51.8792 38.8299C52.0751 38.0995 51.6416 37.3482 50.9107 37.1524L49.0737 36.6601L49.9223 35.5572L52.8258 36.3353C52.9446 36.3668 53.0639 36.3824 53.1811 36.3824C53.7858 36.3824 54.3396 35.9784 54.5034 35.3662C54.6992 34.6358 54.2658 33.8845 53.5348 33.6887L51.7305 33.2055L52.0114 32.8405C55.1209 32.6051 58.1715 31.6649 60.8732 30.1051L62.0119 29.4474L65.6833 35.8066L42.8906 48.9658L39.7527 49.8311L39.5397 48.6961C39.1983 46.8747 40.0481 45.0307 41.6539 44.1066Z" fill="white"/>
<path d="M14.8855 58.3628H1.36986C0.613228 58.3628 0 58.9766 0 59.7327C0 60.4893 0.613228 61.1025 1.36986 61.1025H14.8855C15.6421 61.1025 16.2554 60.4893 16.2554 59.7327C16.2554 58.9766 15.6421 58.3628 14.8855 58.3628Z" fill="#48E920"/>
<path d="M21.78 58.3628C21.4199 58.3628 21.0667 58.5094 20.8115 58.7641C20.5568 59.0188 20.4102 59.372 20.4102 59.7327C20.4102 60.0928 20.5568 60.4465 20.8115 60.7012C21.0667 60.9559 21.4199 61.1025 21.78 61.1025C22.1407 61.1025 22.4938 60.9559 22.7486 60.7012C23.0033 60.4465 23.1499 60.0928 23.1499 59.7327C23.1499 59.372 23.0033 59.0188 22.7486 58.7641C22.4938 58.5094 22.1407 58.3628 21.78 58.3628Z" fill="#48E920"/>
<path d="M68.7605 55.2036H55.2449C54.4882 55.2036 53.875 55.8174 53.875 56.5735C53.875 57.3301 54.4882 57.9433 55.2449 57.9433H68.7605C69.5171 57.9433 70.1304 57.3301 70.1304 56.5735C70.1304 55.8174 69.5171 55.2036 68.7605 55.2036Z" fill="#48E920"/>
<path d="M48.5837 60.6915H35.0681C34.3115 60.6915 33.6982 61.3053 33.6982 62.0614C33.6982 62.818 34.3115 63.4313 35.0681 63.4313H48.5837C49.3404 63.4313 49.9536 62.818 49.9536 62.0614C49.9536 61.3053 49.3404 60.6915 48.5837 60.6915Z" fill="#48E920"/>
</g>
<defs>
<clipPath id="clip0_989_138">
<rect width="70.1369" height="70" fill="white" transform="translate(0 0.5)"/>
</clipPath>
</defs>
</svg>
