<svg width="70" height="71" viewBox="0 0 70 71" fill="none" xmlns="http://www.w3.org/2000/svg">
<g clip-path="url(#clip0_886_205)">
<path d="M58.4844 59.4936L57.2733 58.7944V58.7761C57.2574 58.7761 57.2416 58.7761 57.2266 58.7694L47.6213 53.2213L58.4844 46.9498C59.8942 46.127 60.9207 44.7793 61.3395 43.2016C61.7583 41.624 61.5353 39.9446 60.7192 38.5309C59.9032 37.1172 58.5605 36.0842 56.9848 35.6578C55.4092 35.2315 53.7288 35.4464 52.3112 36.2557L35.2731 46.0924L18.235 36.2557C16.8174 35.4464 15.137 35.2315 13.5614 35.6578C11.9857 36.0842 10.643 37.1172 9.82697 38.5309C9.0109 39.9446 8.78788 41.624 9.20668 43.2016C9.62548 44.7793 10.652 46.127 12.0618 46.9498L22.9249 53.2221L12.0618 59.4936C10.652 60.3165 9.62548 61.6641 9.20668 63.2418C8.78788 64.8195 9.0109 66.4988 9.82697 67.9125C10.643 69.3262 11.9857 70.3592 13.5614 70.7856C15.137 71.212 16.8174 70.997 18.235 70.1878L35.2731 60.351L52.3112 70.1878C53.7288 70.997 55.4092 71.212 56.9848 70.7856C58.5605 70.3592 59.9032 69.3262 60.7192 67.9125C61.5353 66.4988 61.7583 64.8195 61.3395 63.2418C60.9207 61.6641 59.8942 60.3165 58.4844 59.4936ZM53.976 39.14C54.4062 38.8896 54.8951 38.7578 55.3928 38.7579C56.0194 38.7566 56.6288 38.9623 57.1265 39.343C57.6241 39.7237 57.9821 40.2581 58.1448 40.8632C58.3075 41.4683 58.2658 42.1101 58.0261 42.6891C57.7865 43.268 57.3623 43.7516 56.8196 44.0646L20.7756 64.8753C20.7781 63.8826 20.5365 62.9046 20.0719 62.0274C19.6074 61.1502 18.9343 60.4007 18.1118 59.8449L53.976 39.14ZM13.7266 44.0655C13.4032 43.8788 13.1197 43.6302 12.8924 43.3339C12.665 43.0377 12.4983 42.6995 12.4016 42.3388C12.2064 41.6103 12.3086 40.8341 12.6857 40.181C13.0627 39.5278 13.6838 39.0512 14.4123 38.856C14.773 38.7593 15.1493 38.7347 15.5195 38.7834C15.8897 38.8321 16.2468 38.9533 16.5702 39.14L31.9434 48.0153L26.2563 51.2992L13.7266 44.0655ZM14.4117 67.5881C13.8685 67.4423 13.3808 67.1387 13.0101 66.7158C12.6394 66.2928 12.4025 65.7694 12.3292 65.2118C12.2558 64.6542 12.3495 64.0874 12.5982 63.583C12.8469 63.0786 13.2396 62.6593 13.7266 62.378L14.1878 62.1116C14.325 62.085 14.4642 62.0697 14.604 62.0658C15.2314 62.0642 15.8417 62.2701 16.3399 62.6515C16.8381 63.0329 17.1961 63.5683 17.3583 64.1744C17.5205 64.7805 17.4776 65.4232 17.2365 66.0024C16.9953 66.5816 16.5693 67.0648 16.0249 67.3767L15.5396 67.6581C15.1628 67.7108 14.7791 67.687 14.4117 67.5881ZM44.2908 55.1442L52.421 59.8358C51.6766 60.3618 51.0524 61.0399 50.5897 61.8253C50.057 62.7532 49.7747 63.8036 49.7706 64.8736L38.6028 58.4281L44.2908 55.1442ZM57.8593 66.2629C57.5776 66.7507 57.1575 67.1439 56.6522 67.3927C56.1469 67.6415 55.5791 67.7347 55.0207 67.6605L54.4189 67.286C54.0011 67.0485 53.6567 66.7007 53.4232 66.2807C53.1898 65.8607 53.0764 65.3846 53.0953 64.9044C53.0944 64.4095 53.2233 63.923 53.4691 63.4934C53.7321 63.0255 54.1164 62.637 54.5814 62.3688C55.0465 62.1006 55.5752 61.9626 56.112 61.9693L56.8196 62.378C57.4723 62.7556 57.9485 63.3767 58.1437 64.1051C58.3389 64.8334 58.2373 65.6095 57.8609 66.2629H57.8593Z" fill="white"/>
<path d="M26.5716 38.6115L36.2569 30.8641L45.8714 36.6319L46.7604 35.3592C58.4926 18.5717 37.2849 2.61574 37.0693 2.45758L35.0957 1L34.4705 3.37158C34.4597 3.41153 33.2277 7.54619 26.1113 15.1837C16.501 25.4966 25.4454 37.1714 25.5344 37.2871L26.5716 38.6115ZM28.547 17.4529C33.281 12.3751 35.6184 8.65498 36.7355 6.47486C40.9859 10.1667 51.4295 20.8675 44.8667 32.1468L35.9839 26.8193L27.2267 33.825C25.5103 30.8791 22.5685 23.8692 28.547 17.4529Z" fill="#48E920"/>
</g>
<defs>
<clipPath id="clip0_886_205">
<rect width="70" height="70" fill="white" transform="translate(0 0.5)"/>
</clipPath>
</defs>
</svg>
