<svg width="154" height="116" viewBox="0 0 154 116" fill="none" xmlns="http://www.w3.org/2000/svg">
<path d="M42.9453 92.3718C42.9229 92.3931 42.7563 92.5315 42.4454 92.7866L38.1203 88.2305C37.8266 88.6682 37.7175 89.1434 37.7924 89.6556C37.8673 90.1679 38.1208 90.6517 38.553 91.107C38.8504 91.4206 39.1609 91.6539 39.4839 91.8076C39.8072 91.9613 40.1682 92.0464 40.5671 92.0632L40.4459 93.9529C39.2609 94.0046 38.1514 93.4859 37.117 92.3961C36.4722 91.717 36.0338 90.99 35.8017 90.2149C35.5696 89.4399 35.5531 88.6866 35.7519 87.9548C35.9508 87.223 36.3475 86.5725 36.942 86.0033C37.529 85.441 38.1913 85.074 38.9288 84.9021C39.6662 84.7303 40.399 84.7622 41.1267 84.9983C41.8545 85.2347 42.5055 85.6551 43.0791 86.2594C43.639 86.8489 44.0189 87.5037 44.22 88.2231C44.4208 88.9424 44.4144 89.6643 44.2012 90.3886C43.9881 91.113 43.5695 91.774 42.9453 92.3718ZM41.7749 87.5304C41.3994 87.1349 40.9727 86.9095 40.4946 86.8543C40.0166 86.7991 39.5561 86.9268 39.1131 87.2369L41.9292 90.2033C42.2515 89.7806 42.3983 89.3265 42.37 88.841C42.3417 88.3552 42.1433 87.9184 41.7749 87.5304ZM44.867 99.0173C44.1475 98.5033 43.6067 97.8926 43.245 97.1851C42.883 96.4776 42.7285 95.7438 42.7812 94.9843C42.834 94.2249 43.0984 93.5092 43.5744 92.8368C44.0504 92.1647 44.6369 91.6787 45.3339 91.3795C46.031 91.0801 46.7717 90.986 47.556 91.0971C48.3403 91.2082 49.0923 91.5205 49.812 92.0345C50.5231 92.5426 51.0388 93.1353 51.3589 93.8131C51.679 94.4909 51.764 95.1937 51.6139 95.9215L49.5153 95.6562C49.6043 94.7834 49.3182 94.111 48.6571 93.6389C48.1468 93.2743 47.6053 93.1407 47.0326 93.2377C46.46 93.335 45.9682 93.6733 45.5579 94.2531C45.1472 94.8329 44.9902 95.4102 45.087 95.9856C45.1839 96.5607 45.4872 97.0304 45.9975 97.3949C46.667 97.873 47.3933 97.9237 48.1767 97.5469L49.1061 99.4632C48.4827 99.8278 47.7982 99.9715 47.0528 99.8946C46.3072 99.8176 45.5784 99.5251 44.867 99.0173ZM53.1783 103.64C52.3832 103.279 51.7448 102.788 51.2636 102.168C50.7823 101.548 50.497 100.861 50.4081 100.108C50.3191 99.3544 50.4435 98.6018 50.7821 97.8503C51.1204 97.0987 51.6006 96.5075 52.2225 96.0772C52.8445 95.6466 53.5462 95.408 54.3278 95.3612C55.1094 95.3145 55.8978 95.4716 56.693 95.8327C57.4881 96.1937 58.1241 96.6834 58.6006 97.3016C59.0774 97.9198 59.36 98.6055 59.4492 99.3588C59.5382 100.112 59.4135 100.865 59.0752 101.616C58.7369 102.368 58.2566 102.959 57.6347 103.389C57.0128 103.82 56.3133 104.059 55.5364 104.108C54.7595 104.157 53.9735 104.001 53.1783 103.64ZM53.9905 101.836C54.5518 102.091 55.098 102.11 55.6295 101.893C56.161 101.676 56.5705 101.248 56.8583 100.609C57.1459 99.9703 57.1951 99.3786 57.0064 98.8347C56.8174 98.2905 56.4424 97.8911 55.8811 97.6362C55.3198 97.3813 54.7711 97.3613 54.2349 97.5761C53.6987 97.7909 53.287 98.2177 52.9992 98.8567C52.7116 99.4957 52.6646 100.088 52.858 100.634C53.0514 101.18 53.4292 101.581 53.9905 101.836ZM72.9753 99.634L68.463 107.446L66.0035 107.132L63.5951 98.437L66.0547 98.751L67.6206 104.657L70.6836 99.3417L72.9753 99.634ZM73.2917 99.2915L75.6934 99.2306L75.9028 107.549L73.5012 107.61L73.2917 99.2915ZM74.4633 98.1014C74.022 98.1126 73.6596 97.9928 73.376 97.7421C73.0924 97.4914 72.9458 97.1754 72.9362 96.7941C72.9266 96.4127 73.0571 96.0895 73.3277 95.8247C73.5985 95.5602 73.9543 95.4221 74.3958 95.411C74.8371 95.3998 75.1993 95.5142 75.4827 95.7547C75.7661 95.995 75.9124 96.3009 75.9218 96.6718C75.9319 97.0737 75.8018 97.4098 75.5312 97.6795C75.2607 97.9495 74.9047 98.0903 74.4633 98.1014ZM77.243 95.8928L79.6262 95.5887L81.0664 106.974L78.6832 107.278L77.243 95.8928ZM81.2322 95.2199L83.573 94.6772L86.143 105.86L83.8022 106.402L81.2322 95.2199ZM88.4704 96.1318C89.6399 95.6008 90.6639 95.4726 91.5423 95.747C92.4207 96.0215 93.1139 96.7223 93.6212 97.8498L95.569 102.176L93.5204 103.106L93.0954 102.162C93.001 103.054 92.3924 103.754 91.2698 104.264C90.6898 104.527 90.1425 104.657 89.628 104.653C89.1135 104.649 88.6658 104.524 88.2849 104.279C87.904 104.033 87.614 103.689 87.4151 103.248C87.098 102.543 87.1125 101.869 87.4592 101.225C87.8059 100.581 88.5313 100.008 89.6352 99.5068L91.3753 98.7166C91.1594 98.2373 90.8487 97.9344 90.4421 97.8079C90.0358 97.6812 89.5428 97.7495 88.9625 98.0128C88.5601 98.1955 88.1937 98.4385 87.8626 98.7416C87.5314 99.0445 87.2789 99.366 87.1049 99.7053L85.6275 98.5258C85.9079 98.0477 86.2999 97.5981 86.8033 97.1771C87.3067 96.7562 87.8623 96.408 88.4704 96.1318ZM91.1508 102.536C91.5251 102.366 91.8178 102.129 92.0297 101.823C92.2414 101.518 92.332 101.168 92.3012 100.775L91.9523 99.9997L90.451 100.682C89.5529 101.089 89.2373 101.589 89.5036 102.181C89.6305 102.463 89.8409 102.636 90.1346 102.701C90.4286 102.765 90.7671 102.711 91.1508 102.536ZM100.275 89.1414L104.273 94.7883C105.154 96.0321 105.486 97.1866 105.27 98.2514C105.055 99.3165 104.328 100.291 103.089 101.176C102.437 101.642 101.761 102.004 101.062 102.263C100.363 102.521 99.7147 102.637 99.1157 102.609L98.8942 100.642C99.3453 100.674 99.8374 100.604 100.371 100.432C100.904 100.26 101.388 100.019 101.823 99.7077C102.501 99.2237 102.892 98.7132 102.997 98.1764C103.102 97.6397 102.934 97.0603 102.494 96.4385L102.289 96.1487C102.177 97.0762 101.665 97.8656 100.753 98.5169C100.134 98.9592 99.4705 99.2276 98.7626 99.3219C98.0547 99.4162 97.3746 99.3232 96.7224 99.0426C96.0702 98.7619 95.515 98.2982 95.0567 97.651C94.5987 97.0039 94.3446 96.3251 94.2949 95.6141C94.2451 94.9034 94.3806 94.2276 94.7019 93.5869C95.0232 92.9462 95.4931 92.4047 96.1123 91.9625C97.091 91.2634 98.0648 91.0551 99.0334 91.3377L98.4176 90.4678L100.275 89.1414ZM99.9998 96.6258C100.519 96.2553 100.835 95.7988 100.948 95.2561C101.061 94.7134 100.942 94.1942 100.591 93.6983C100.24 93.2026 99.7911 92.9192 99.2433 92.8487C98.6958 92.7779 98.1623 92.9279 97.6437 93.2984C97.125 93.6688 96.8069 94.1269 96.6894 94.6728C96.5718 95.2187 96.6886 95.7391 97.0397 96.235C97.3909 96.731 97.8423 97.0126 98.394 97.0804C98.9457 97.1482 99.4811 96.9962 99.9998 96.6258ZM109.408 85.1844C109.431 85.2045 109.584 85.3581 109.866 85.6447L105.763 90.4027C106.225 90.6547 106.706 90.7185 107.206 90.5948C107.707 90.471 108.162 90.1716 108.573 89.6962C108.855 89.3688 109.057 89.0362 109.178 88.6987C109.3 88.3609 109.35 87.9919 109.328 87.5913L111.213 87.5324C111.377 88.7121 110.968 89.8709 109.987 91.0088C109.375 91.718 108.696 92.2256 107.951 92.5315C107.204 92.8373 106.459 92.9257 105.715 92.7965C104.971 92.6673 104.288 92.3327 103.667 91.7928C103.054 91.2592 102.628 90.6324 102.387 89.9113C102.146 89.1904 102.108 88.4549 102.273 87.7046C102.438 86.9545 102.792 86.2636 103.337 85.6323C103.868 85.0166 104.481 84.5742 105.175 84.3049C105.869 84.0357 106.585 83.9731 107.323 84.1173C108.061 84.2616 108.756 84.6172 109.408 85.1844ZM104.721 86.8155C104.364 87.2285 104.181 87.6767 104.172 88.1597C104.163 88.6428 104.333 89.0912 104.683 89.5044L107.355 86.4064C106.905 86.1245 106.441 86.0209 105.963 86.0953C105.484 86.1701 105.07 86.4104 104.721 86.8155Z" fill="white"/>
<path d="M73.0416 112.099C87.9327 112.099 101.414 106.037 111.173 96.2363C114.876 92.5168 118.043 88.2584 120.547 83.589H123.636C120.907 89.0075 117.342 93.9289 113.109 98.1804C102.855 108.479 88.6887 114.849 73.0418 114.849C57.3949 114.849 43.2289 108.479 32.9749 98.1804C28.7418 93.9289 25.1764 89.0075 22.4478 83.589H25.5361C28.0408 88.2584 31.2073 92.5168 34.9107 96.2363C44.6691 106.037 58.1509 112.099 73.0421 112.099H73.0416Z" fill="white"/>
<path d="M124.886 42.9889C122.333 34.0434 117.547 26.0456 111.173 19.6436C101.414 9.84292 87.9327 3.78098 73.0415 3.78098C58.1503 3.78098 44.6688 9.84292 34.9101 19.6436C28.5357 26.0456 23.7504 34.0434 21.1975 42.9889H18.354C20.9787 33.2827 26.0964 24.607 32.9744 17.6995C43.2283 7.40117 57.3944 1.03113 73.0412 1.03113C88.6881 1.03113 102.854 7.40092 113.108 17.6995C119.986 24.6073 125.104 33.2827 127.729 42.9889H124.885H124.886Z" fill="white"/>
<path fill-rule="evenodd" clip-rule="evenodd" d="M57.9827 22.8735C56.0028 22.8735 55.9479 20.1672 54.6831 19.2835C54.0782 19.7252 53.9683 19.891 53.5834 20.4986L50.3388 24.8067C48.0291 27.4026 48.4142 27.1817 45.6644 29.9431C42.255 33.3121 40.0002 35.2454 35.8207 37.2338C35.0507 37.6203 34.6109 37.6203 34.4458 38.3936C35.9856 38.504 35.9856 38.5592 37.5805 38.3936C41.705 37.9519 43.0799 37.6755 47.0943 36.6814C49.7889 36.0187 52.8686 34.8588 55.2331 33.478C55.563 33.257 56.113 32.9256 56.333 32.7049C56.828 32.3735 56.883 32.2629 56.9379 31.4346C55.6732 31.1584 51.9885 32.4841 48.414 32.4841C48.9639 31.987 49.6787 31.8214 50.3938 31.5452C54.2983 29.9988 60.1825 26.243 62.9321 23.4263C67.2766 19.1182 67.3865 18.9526 71.1261 14.0922C74.2606 10.005 73.8757 11.1649 73.8757 14.0922C73.8757 18.4001 71.3459 21.5483 71.3459 23.4813C73.1607 23.4813 73.6557 22.3768 74.8655 21.1615C76.4053 19.5045 76.5704 18.3446 77.8351 18.2343C78.6601 21.4375 75.8004 27.5684 74.2057 30.3299C70.1361 37.2338 76.9003 31.2688 77.6151 31.2688C79.0449 31.2688 77.2852 34.4171 77.0102 34.8036C75.9652 36.2397 74.9205 37.068 74.9205 38.3936C78.1101 39.1115 84.0493 35.356 85.9742 33.8096C87.5689 32.5393 88.6688 31.3794 90.0987 29.9434C91.1986 28.8387 92.7384 26.3534 94.2781 26.022C95.708 28.1208 93.7831 31.0481 92.5733 32.8707C91.1434 35.08 90.6487 35.9635 88.7787 37.6205C88.2837 38.0623 88.4488 37.6757 88.2288 38.3939C91.8582 40.1061 95.5979 35.2456 97.4126 35.2456C99.6122 35.2456 102.087 39.4431 110.391 39.4431C111.491 39.4431 112.206 39.0563 112.646 38.3936C111.381 37.7309 109.236 37.8965 106.266 35.7977C102.087 32.7049 98.6774 28.1205 96.0377 23.6468C92.6832 17.9029 93.0681 24.144 89.7136 24.144C88.3936 24.144 85.0391 20.554 84.1592 19.4493C83.7194 18.9522 83.6642 18.7866 83.2244 18.2894C80.9146 16.0251 77.2302 11.2752 75.3603 9.39722C74.6455 8.67907 74.0406 7.90598 73.2156 7.35364C70.9608 8.90006 61.997 22.8735 57.9824 22.8735H57.9827Z" fill="white"/>
<path fill-rule="evenodd" clip-rule="evenodd" d="M127.494 74.625C124.69 74.625 122.49 73.1338 121.5 71.2006C119.3 67.1134 119.245 65.1804 119.41 60.7619C119.465 56.3434 122.215 50.5443 126.834 50.5443H128.099C132.993 50.5443 135.413 56.3437 135.413 61.4249C135.413 66.9481 134.258 74.6253 127.494 74.6253V74.625ZM110.116 61.0933C109.951 66.9479 111.601 71.2558 115.396 74.5696C116.715 75.7846 118.915 76.8893 120.565 77.552C121.555 77.9386 122.655 78.2148 123.92 78.4357C126.944 78.9329 128.209 78.9329 131.234 78.3806C132.334 78.2148 133.488 77.8834 134.533 77.4969C138.218 76.0608 141.407 73.4097 143.277 69.9303C146.577 63.7444 145.202 54.9074 139.593 50.544C132.223 44.8553 121.775 45.0208 115.451 50.3785C112.481 52.9192 110.446 56.2328 110.116 61.0933Z" fill="white"/>
<path fill-rule="evenodd" clip-rule="evenodd" d="M18.3877 60.5963H17.7279V51.3727C20.6975 51.3727 24.0522 51.7041 23.8871 56.1226C23.7773 59.1605 21.4126 60.5963 18.3877 60.5963ZM8.98389 77.5522C8.98389 78.0494 9.14898 78.1598 9.5888 78.1598H17.7276V64.7939C18.2776 65.1252 19.0474 66.3403 19.5424 66.9478C24.2718 73.6309 27.4614 78.1598 37.3601 78.1598C37.14 77.3313 36.645 76.9447 36.1502 76.282C35.6552 75.6745 35.2154 75.1773 34.7204 74.5146C33.1257 72.471 27.2963 65.0148 26.9112 63.5236C30.8709 61.4248 32.9606 59.9888 32.9606 54.9076C32.9606 52.643 31.1458 50.1577 29.2759 48.9978C27.2411 47.7276 24.6564 46.9542 21.522 46.9542H8.9834V77.5522H8.98389Z" fill="white"/>
<path fill-rule="evenodd" clip-rule="evenodd" d="M77.1755 77.7733H82.8398C83.3348 77.7733 83.4447 77.6075 83.4447 77.1105C83.4447 73.9071 83.7197 61.0383 83.2247 58.8841C84.2144 59.5469 85.9193 61.9218 86.7442 62.7503L93.6183 70.4826C95.5981 72.9128 100.217 78.1598 103.462 78.1598H104.727V46.7333H98.4576V63.9102L92.5733 57.5035C91.8033 56.7302 91.4184 56.0675 90.5935 55.2941L85.8091 49.8264C82.2346 45.7944 83.6093 46.7335 77.1753 46.7335V77.7735L77.1755 77.7733Z" fill="white"/>
<path fill-rule="evenodd" clip-rule="evenodd" d="M55.8932 58.8841C56.6632 59.4916 58.5878 64.5729 59.2479 65.6224H52.9788C53.1436 64.9045 53.3637 64.6283 53.6936 64.0208L55.8934 58.8843L55.8932 58.8841ZM40.88 78.1598C47.0943 78.1598 46.6544 78.7673 47.6992 76.4475L50.7237 69.9854H61.1174C62.0522 71.808 63.2071 73.7964 64.6919 75.2877C67.0566 77.6626 69.5864 77.994 73.8757 77.994C73.7658 77.1654 72.4459 75.4532 71.786 74.3488C71.0162 73.0785 70.4663 71.9738 69.7512 70.5932C68.4315 67.9421 67.2766 65.2358 66.0666 62.5295C64.9117 59.7681 63.812 57.2825 62.6571 54.4106L60.1825 48.1143C59.3026 45.8498 60.2924 46.3469 55.7281 46.3469C55.0133 46.3469 55.1232 46.8441 54.5183 48.0592C54.1884 48.8325 53.9134 49.2742 53.5285 50.0476C52.8134 51.4836 52.3187 52.7539 51.6036 54.1347C50.9438 55.5156 50.3938 56.7858 49.7339 58.1667L41.0451 76.448C40.7152 77.1108 39.8353 78.1603 40.88 78.1603V78.1598Z" fill="white"/>
</svg>
