<svg width="48" height="48" viewBox="0 0 48 48" fill="none" xmlns="http://www.w3.org/2000/svg">
<rect x="0.5" y="0.5" width="47" height="47" rx="23.5" stroke="white" stroke-opacity="0.65"/>
<g clip-path="url(#clip0_886_427)">
<path d="M12.482 23.0615L12.4821 23.0616L18.3505 25.9863C18.3506 25.9863 18.3507 25.9864 18.3508 25.9864C18.5333 26.0764 18.7478 26.0694 18.9204 25.9683L18.9208 25.9681L24.1448 22.9311L24.3196 23.1731L21.1578 25.975C21.0287 26.0896 20.9552 26.2529 20.9552 26.4248V33.2498C20.9552 33.8245 21.6902 34.0686 22.0354 33.6105L24.5723 30.2376L24.6517 30.1321L24.7664 30.1975L31.0404 33.7705L31.0409 33.7708C31.3916 33.9724 31.8432 33.7703 31.9251 33.3673L12.482 23.0615ZM12.482 23.0615C12.018 22.8307 12.0485 22.1544 12.5317 21.9655L12.482 23.0615ZM35.8381 13.8674L31.9252 33.367L12.5317 21.9655L35.0317 13.1906L35.0331 13.19C35.464 13.0167 35.9318 13.3978 35.8381 13.8674ZM34.3922 14.9763L34.4462 14.7074L34.1907 14.8071L14.5457 22.4691L14.2302 22.5921L14.5333 22.7431L18.5253 24.7321L18.5976 24.7681L18.6676 24.7275L30.0576 18.1055L30.0581 18.1051C30.6752 17.7427 31.2972 18.5953 30.7568 19.0735L30.7567 19.0735L22.2057 26.6495L22.1552 26.6943V26.7618V31.0058V31.4547L22.425 31.096L24.0098 28.9893C24.0098 28.9893 24.0099 28.9892 24.0099 28.9892C24.1943 28.7456 24.5281 28.6803 24.7868 28.8281L24.7869 28.8281L30.7319 32.2141L30.9124 32.3169L30.9532 32.1133L34.3922 14.9763Z" fill="white" stroke="#212C2A" stroke-width="0.3"/>
</g>
<defs>
<clipPath id="clip0_886_427">
<rect width="24" height="24" fill="white" transform="translate(12 12)"/>
</clipPath>
</defs>
</svg>
