<svg width="48" height="48" viewBox="0 0 48 48" fill="none" xmlns="http://www.w3.org/2000/svg">
<rect x="0.5" y="0.5" width="47" height="47" rx="23.5" stroke="white" stroke-opacity="0.65"/>
<path d="M28.5835 14.8335H19.4168C16.8855 14.8335 14.8335 16.8855 14.8335 19.4168V28.5835C14.8335 31.1148 16.8855 33.1668 19.4168 33.1668H28.5835C31.1148 33.1668 33.1668 31.1148 33.1668 28.5835V19.4168C33.1668 16.8855 31.1148 14.8335 28.5835 14.8335Z" stroke="white" stroke-linecap="round" stroke-linejoin="round"/>
<path d="M27.6667 23.4223C27.7799 24.1852 27.6495 24.9643 27.2943 25.6489C26.9391 26.3335 26.3771 26.8886 25.6882 27.2353C24.9993 27.5821 24.2186 27.7028 23.4572 27.5802C22.6958 27.4577 21.9923 27.0982 21.447 26.5529C20.9016 26.0075 20.5421 25.3041 20.4196 24.5427C20.2971 23.7812 20.4178 23.0005 20.7645 22.3116C21.1113 21.6227 21.6664 21.0607 22.351 20.7055C23.0355 20.3503 23.8147 20.22 24.5776 20.3331C25.3557 20.4485 26.0762 20.8111 26.6324 21.3674C27.1887 21.9237 27.5513 22.6441 27.6667 23.4223Z" stroke="white" stroke-linecap="round" stroke-linejoin="round"/>
<path d="M29.0415 18.9585H29.0515" stroke="white" stroke-width="2" stroke-linecap="round" stroke-linejoin="round"/>
</svg>
