<svg width="70" height="70" viewBox="0 0 70 70" fill="none" xmlns="http://www.w3.org/2000/svg">
<g clip-path="url(#clip0_732_117)">
<path fill-rule="evenodd" clip-rule="evenodd" d="M28.6248 24.849C31.4785 18.1658 29.6942 -0.130042 19.7495 1.62146C13.8455 2.66134 9.33295 10.5977 15.055 27.2391L28.6248 24.849Z" stroke="#040C02" stroke-width="2" stroke-miterlimit="22.9256" stroke-linecap="round" stroke-linejoin="round"/>
<path fill-rule="evenodd" clip-rule="evenodd" d="M29.7843 31.418L16.2146 33.8081L17.5914 41.6078C18.2501 45.3393 21.8421 47.8545 25.5738 47.1971C29.3054 46.5398 31.8197 42.9492 31.1611 39.2177L29.7843 31.418Z" stroke="#040C02" stroke-width="2" stroke-miterlimit="22.9256" stroke-linecap="round" stroke-linejoin="round"/>
<path fill-rule="evenodd" clip-rule="evenodd" d="M38.6409 46.0433C35.7871 39.3601 37.5714 21.0642 47.5161 22.8157C53.4202 23.8556 57.9327 31.792 52.2107 48.4334L38.6409 46.0433Z" stroke="#040C02" stroke-width="2" stroke-miterlimit="22.9256" stroke-linecap="round" stroke-linejoin="round"/>
<path fill-rule="evenodd" clip-rule="evenodd" d="M37.4811 52.6123L51.0509 55.0024L49.6741 62.8021C49.0154 66.5336 45.4234 69.0488 41.6917 68.3914C37.9601 67.7341 35.4457 64.1434 36.1044 60.412L37.4811 52.6123Z" stroke="#040C02" stroke-width="2" stroke-miterlimit="22.9256" stroke-linecap="round" stroke-linejoin="round"/>
<path d="M4.50721 42.2428C2.58426 40.3219 1.50391 37.7165 1.50391 34.9999C1.50391 32.2833 2.58426 29.6782 4.50721 27.7573" stroke="#52A93C" stroke-width="2" stroke-miterlimit="22.9256" stroke-linecap="round" stroke-linejoin="round"/>
<path d="M8.85746 37.8971C8.08828 37.1286 7.65625 36.0866 7.65625 34.9999C7.65625 33.9133 8.08842 32.8712 8.8576 32.1028" stroke="#52A93C" stroke-width="2" stroke-miterlimit="22.9256" stroke-linecap="round" stroke-linejoin="round"/>
<path d="M65.4929 42.2428C67.4159 40.3219 68.4962 37.7165 68.4962 34.9999C68.4962 32.2833 67.4159 29.6782 65.4929 27.7573" stroke="#52A93C" stroke-width="2" stroke-miterlimit="22.9256" stroke-linecap="round" stroke-linejoin="round"/>
<path d="M61.1423 37.8971C61.9115 37.1286 62.3437 36.0866 62.3437 34.9999C62.3437 33.9133 61.9115 32.8712 61.1423 32.1028" stroke="#52A93C" stroke-width="2" stroke-miterlimit="22.9256" stroke-linecap="round" stroke-linejoin="round"/>
</g>
<defs>
<clipPath id="clip0_732_117">
<rect width="70" height="70" fill="white"/>
</clipPath>
</defs>
</svg>
