<svg width="71" height="70" viewBox="0 0 71 70" fill="none" xmlns="http://www.w3.org/2000/svg">
<path d="M53.7075 42.6443C50.3001 45.9996 46.4105 48.8543 41.0354 52.545" stroke="#52A93C" stroke-width="2" stroke-miterlimit="10" stroke-linecap="round" stroke-linejoin="round"/>
<path d="M61.8056 32.3045C63.5986 28.4906 64.7048 25.3633 64.7048 22.2584C64.7048 13.0542 57.2434 5.59277 48.0391 5.59277C43.0379 5.59277 38.5546 7.79873 35.4999 11.2871C32.4452 7.79859 27.9619 5.59277 22.9608 5.59277C13.7566 5.59277 6.29517 13.0542 6.29517 22.2584C6.29517 23.3189 6.39921 24.4079 6.61618 25.5254" stroke="#52A93C" stroke-width="2" stroke-miterlimit="10" stroke-linecap="round" stroke-linejoin="round"/>
<path d="M14.7053 36.838L31.4389 47.0043C31.4389 47.0043 33.8638 45.5705 36.7728 45.0837C39.3891 44.6458 41.3393 47.4402 40.0132 49.7373L39.053 51.4004L42.1519 53.1895C43.8614 54.1764 44.3283 56.433 43.1511 58.0174L39.3934 63.0746C38.3937 64.4201 36.5445 64.8028 35.0929 63.9647L31.06 61.6364C28.9238 60.403 27.1706 58.6022 25.995 56.4337L9.4002 47.3409C4.8394 44.842 2.00399 40.0552 2.00399 34.8547C1.98977 31.3019 3.72022 27.7132 6.61688 25.5248C7.62327 30.1563 10.5946 34.3604 14.7053 36.838Z" stroke="#040C02" stroke-width="2" stroke-miterlimit="10" stroke-linecap="round" stroke-linejoin="round"/>
<path d="M64.0737 26.8576C67.1964 29.5139 68.9959 33.4069 68.9959 37.5067C68.9959 44.9661 62.5231 47.3445 57.4649 44.2714L33.5582 29.8409C31.0923 29.9071 28.6562 29.2893 26.52 28.0559L22.4871 25.7275C21.0355 24.8894 20.4423 23.0966 21.1076 21.5581L23.6085 15.7752C24.392 13.9634 26.5798 13.2396 28.2892 14.2265L31.388 16.0156L32.3482 14.3526C33.6745 12.0554 37.0696 12.3473 37.9985 14.8319C39.0314 17.5946 39.0022 20.4116 39.0022 20.4116L61.8056 32.3043L64.0737 26.8576Z" stroke="#040C02" stroke-width="2" stroke-miterlimit="10" stroke-linecap="round" stroke-linejoin="round"/>
</svg>
