<svg width="70" height="70" viewBox="0 0 70 70" fill="none" xmlns="http://www.w3.org/2000/svg">
<path d="M14.3501 42.966C14.4621 43.652 15.0641 44.142 15.7361 44.142C15.8201 44.142 15.8901 44.142 15.9741 44.128C16.7441 44.002 17.2481 43.274 17.1221 42.504C17.0381 41.986 16.9541 41.454 16.8981 40.936C16.1421 34.412 17.8221 28.924 21.4901 25.872C24.2481 23.576 27.8321 22.96 31.5841 24.122C33.3201 24.668 34.5661 25.018 35.8821 25.018C37.1981 25.018 38.4441 24.668 40.1801 24.122C43.9321 22.96 47.5161 23.576 50.2741 25.872C53.9561 28.924 55.6221 34.412 54.8661 40.936C54.8101 41.426 54.7401 41.93 54.6561 42.42C54.5301 43.19 55.0481 43.918 55.8041 44.044C56.5741 44.17 57.3021 43.652 57.4281 42.896C57.5261 42.35 57.5961 41.804 57.6661 41.258C58.5341 33.768 56.4901 27.37 52.0661 23.702C48.5941 20.832 43.9601 20.006 39.3401 21.434C38.5281 21.686 37.8561 21.882 37.2821 22.022C37.2821 20.188 37.5761 18.55 38.0241 17.122C38.0521 17.066 38.0661 16.996 38.0801 16.926C39.8021 11.774 43.6241 9.24001 43.8341 9.10001C44.4921 8.68001 44.6741 7.81201 44.2541 7.15401C43.8341 6.49601 42.9661 6.30001 42.3081 6.72001C42.1121 6.84601 39.1021 8.80601 36.8761 12.754C36.0361 10.948 34.6921 8.86201 32.6761 7.57401C28.5321 4.95601 22.9181 6.72001 22.6801 6.80401C22.0361 7.01401 21.6301 7.64401 21.7141 8.31601C21.7421 8.56801 22.5401 14.406 26.6841 17.024C28.4901 18.172 30.6741 18.494 32.5641 18.494C33.3761 18.494 34.1461 18.438 34.8041 18.354C34.5941 19.488 34.4681 20.706 34.4541 22.008C33.8661 21.868 33.2081 21.672 32.3961 21.42C27.7761 19.978 23.1281 20.804 19.6701 23.688C15.2461 27.356 13.2021 33.754 14.0701 41.244C14.1681 41.832 14.2521 42.406 14.3501 42.966ZM28.2101 14.672C26.1521 13.37 25.2001 10.766 24.7941 9.21201C26.3761 8.91801 29.1621 8.68001 31.1921 9.96801C33.2501 11.27 34.4261 13.902 34.9721 15.512C33.2361 15.792 30.2541 15.974 28.2101 14.672Z" fill="#52A93C"/>
<path d="M27.02 29.82C27.762 29.568 28.154 28.77 27.902 28.028C27.65 27.286 26.852 26.894 26.11 27.146C22.68 28.308 20.678 31.416 20.874 35.238C20.916 35.994 21.532 36.568 22.274 36.568H22.344C23.114 36.526 23.716 35.868 23.674 35.098C23.548 32.522 24.766 30.59 27.02 29.82Z" fill="#52A93C"/>
<path d="M67.3541 45.542H8.27409C5.95009 45.542 4.06009 43.652 4.06009 41.328C4.06009 39.004 5.95009 37.114 8.27409 37.114H11.0881C11.8581 37.114 12.4881 36.484 12.4881 35.714C12.4881 34.944 11.8581 34.314 11.0881 34.314H8.27409C4.39609 34.314 1.24609 37.464 1.24609 41.342V56.812C1.24609 60.69 4.39609 63.84 8.27409 63.84H67.3401C68.1101 63.84 68.7401 63.21 68.7401 62.44V46.956C68.7541 46.172 68.1241 45.542 67.3541 45.542ZM65.9401 61.012H56.0981V53.984C56.0981 53.214 55.4681 52.584 54.6981 52.584C53.9281 52.584 53.2981 53.214 53.2981 53.984V61.012H46.2701V53.984C46.2701 53.214 45.6401 52.584 44.8701 52.584C44.1001 52.584 43.4701 53.214 43.4701 53.984V61.012H36.4001V53.984C36.4001 53.214 35.7701 52.584 35.0001 52.584C34.2301 52.584 33.6001 53.214 33.6001 53.984V61.012H26.5721V53.984C26.5721 53.214 25.9421 52.584 25.1721 52.584C24.4021 52.584 23.7721 53.214 23.7721 53.984V61.012H16.7441V53.984C16.7441 53.214 16.1141 52.584 15.3441 52.584C14.5741 52.584 13.9441 53.214 13.9441 53.984V61.012H8.27409C5.95009 61.012 4.06009 59.122 4.06009 56.798V46.956C5.23609 47.838 6.69209 48.37 8.27409 48.37H65.9401V61.012Z" fill="#040C02"/>
</svg>
