<svg width="70" height="70" viewBox="0 0 70 70" fill="none" xmlns="http://www.w3.org/2000/svg">
<g clip-path="url(#clip0_732_56)">
<path d="M53.1285 53.5367C53.5887 53.5367 53.9618 53.1636 53.9618 52.7033C53.9618 52.2431 53.5887 51.87 53.1285 51.87C52.6683 51.87 52.2952 52.2431 52.2952 52.7033C52.2952 53.1636 52.6683 53.5367 53.1285 53.5367Z" fill="#52A93C"/>
<path d="M50.2127 52.2867C50.673 52.2867 51.0461 51.9136 51.0461 51.4533C51.0461 50.9931 50.673 50.62 50.2127 50.62C49.7525 50.62 49.3794 50.9931 49.3794 51.4533C49.3794 51.9136 49.7525 52.2867 50.2127 52.2867Z" fill="#52A93C"/>
<path d="M46.8805 52.7033C47.3407 52.7033 47.7138 52.3303 47.7138 51.87C47.7138 51.4098 47.3407 51.0367 46.8805 51.0367C46.4202 51.0367 46.0471 51.4098 46.0471 51.87C46.0471 52.3303 46.4202 52.7033 46.8805 52.7033Z" fill="#52A93C"/>
<path d="M43.5484 54.3696C44.0087 54.3696 44.3818 53.9965 44.3818 53.5363C44.3818 53.076 44.0087 52.7029 43.5484 52.7029C43.0882 52.7029 42.7151 53.076 42.7151 53.5363C42.7151 53.9965 43.0882 54.3696 43.5484 54.3696Z" fill="#52A93C"/>
<path d="M43.5484 56.8696C44.0087 56.8696 44.3818 56.4965 44.3818 56.0363C44.3818 55.576 44.0087 55.2029 43.5484 55.2029C43.0882 55.2029 42.7151 55.576 42.7151 56.0363C42.7151 56.4965 43.0882 56.8696 43.5484 56.8696Z" fill="#52A93C"/>
<path d="M46.8805 58.1192C47.3407 58.1192 47.7138 57.7461 47.7138 57.2858C47.7138 56.8256 47.3407 56.4525 46.8805 56.4525C46.4202 56.4525 46.0471 56.8256 46.0471 57.2858C46.0471 57.7461 46.4202 58.1192 46.8805 58.1192Z" fill="#52A93C"/>
<path d="M50.2127 58.9525C50.673 58.9525 51.0461 58.5794 51.0461 58.1192C51.0461 57.6589 50.673 57.2858 50.2127 57.2858C49.7525 57.2858 49.3794 57.6589 49.3794 58.1192C49.3794 58.5794 49.7525 58.9525 50.2127 58.9525Z" fill="#52A93C"/>
<path d="M53.1285 57.2859C53.5887 57.2859 53.9618 56.9128 53.9618 56.4525C53.9618 55.9923 53.5887 55.6192 53.1285 55.6192C52.6683 55.6192 52.2952 55.9923 52.2952 56.4525C52.2952 56.9128 52.6683 57.2859 53.1285 57.2859Z" fill="#52A93C"/>
<path d="M50.6292 55.6196C51.0895 55.6196 51.4626 55.2465 51.4626 54.7863C51.4626 54.326 51.0895 53.9529 50.6292 53.9529C50.169 53.9529 49.7959 54.326 49.7959 54.7863C49.7959 55.2465 50.169 55.6196 50.6292 55.6196Z" fill="#52A93C"/>
<path d="M46.8805 55.6196C47.3407 55.6196 47.7138 55.2465 47.7138 54.7863C47.7138 54.326 47.3407 53.9529 46.8805 53.9529C46.4202 53.9529 46.0471 54.326 46.0471 54.7863C46.0471 55.2465 46.4202 55.6196 46.8805 55.6196Z" fill="#52A93C"/>
<path d="M41.9445 43.7667C41.1303 44.3283 40.1641 44.6278 39.1751 44.6254C38.6046 44.6247 38.0386 44.5247 37.5025 44.3298C37.7603 44.9332 37.9593 45.56 38.0966 46.2017C38.4531 46.261 38.8137 46.2911 39.175 46.2918C40.5038 46.2963 41.802 45.8929 42.8941 45.1359C46.6921 42.5004 46.3757 37.238 42.0031 30.3183C41.7033 29.8438 41.2884 29.4528 40.7969 29.1817C40.3055 28.9105 39.7535 28.7681 39.1922 28.7675C38.6309 28.7669 38.0786 28.9082 37.5866 29.1782C37.0946 29.4483 36.6788 29.8384 36.378 30.3123C34.21 33.7268 33.0338 36.7369 32.8525 39.2284C33.4456 39.5522 34.0057 39.9331 34.5246 40.3659C34.289 37.3139 36.3253 33.5036 37.7844 31.2057C37.9347 30.969 38.1424 30.7741 38.3882 30.6392C38.6341 30.5042 38.91 30.4336 39.1904 30.4339C39.4708 30.4342 39.7466 30.5054 39.9921 30.6408C40.2377 30.7763 40.445 30.9716 40.5948 31.2086C42.6878 34.5208 45.9731 40.9712 41.9445 43.7667Z" fill="#52A93C"/>
<path d="M14.6198 29.6819C14.4256 29.7874 14.2812 29.9657 14.2184 30.1777C14.1556 30.3896 14.1796 30.6177 14.285 30.812C15.7164 33.501 17.5503 35.9555 19.7231 38.0906C19.9689 38.1296 20.2157 38.1749 20.4636 38.2266C20.6241 37.8314 20.8221 37.4526 21.0549 37.0951C18.9303 35.0247 17.1404 32.6367 15.7493 30.0166C15.6439 29.8225 15.4656 29.6782 15.2538 29.6154C15.042 29.5527 14.8139 29.5766 14.6198 29.6819Z" fill="#52A93C"/>
<path d="M13.5524 38.5999C14.128 38.3886 14.7206 38.2266 15.3237 38.1156C8.72827 30.4997 9.47884 23.2248 11.2888 19.5823H14.2272C15.0469 22.1055 17.7283 29.1147 23.692 34.7251C23.9109 34.6081 24.1431 34.497 24.3887 34.3919C24.5006 34.0496 24.6214 33.7116 24.7466 33.3757C18.5578 27.4463 16.0533 19.8798 15.6228 18.4515L16.6889 15.3936C16.836 14.9826 16.8923 14.5444 16.854 14.1096C16.8158 13.6747 16.6838 13.2533 16.4672 12.8744C15.4682 11.1597 14.1922 10.0891 12.6742 9.69239C12.1267 9.54611 11.5504 9.54548 11.0025 9.69057C10.4546 9.83565 9.95418 10.1214 9.55078 10.5195C9.15993 10.8946 8.87385 11.3653 8.72089 11.885C8.56793 12.4047 8.55338 12.9554 8.6787 13.4824L9.90509 18.6258C7.86869 22.5222 6.82959 30.4056 13.5524 38.5999ZM10.7161 11.7104C11.0147 11.4158 11.4173 11.2507 11.8368 11.2508C11.9772 11.2509 12.117 11.269 12.2529 11.3047C13.3267 11.5853 14.2602 12.3957 15.0273 13.7131C15.1229 13.8841 15.1802 14.0739 15.1955 14.2692C15.2107 14.4646 15.1834 14.6609 15.1156 14.8447L14.0448 17.9159H11.4485L10.2992 13.0957C10.2402 12.8485 10.2477 12.5901 10.3209 12.3468C10.3941 12.1035 10.5305 11.8839 10.7161 11.7104Z" fill="#040C02"/>
<path d="M27.4964 44.5792C28.1003 44.5471 28.7036 44.652 29.2612 44.8859C29.8189 45.1199 30.3164 45.4768 30.7167 45.9301C30.7894 46.0119 30.8775 46.0785 30.976 46.1261C31.0745 46.1738 31.1814 46.2016 31.2906 46.2079C31.3999 46.2143 31.5093 46.1991 31.6126 46.1631C31.7159 46.1272 31.8112 46.0713 31.8929 45.9985C31.9746 45.9258 32.0412 45.8377 32.0889 45.7392C32.1366 45.6407 32.1644 45.5338 32.1707 45.4246C32.1771 45.3154 32.1619 45.206 32.1259 45.1026C32.09 44.9993 32.0341 44.904 31.9613 44.8223C31.403 44.1957 30.7135 43.6997 29.9418 43.3697C29.1701 43.0397 28.3352 42.8837 27.4964 42.9127C27.2757 42.9132 27.0643 43.0012 26.9084 43.1574C26.7526 43.3136 26.665 43.5253 26.665 43.746C26.665 43.9666 26.7526 44.1783 26.9084 44.3345C27.0643 44.4907 27.2757 44.5787 27.4964 44.5792Z" fill="#52A93C"/>
<path d="M39.1748 9.58362C38.9539 9.58366 38.742 9.67146 38.5858 9.82772C38.4296 9.98398 38.3418 10.1959 38.3418 10.4169V12.9165H38.0777C37.455 12.9119 36.839 13.0451 36.2739 13.3067C35.7088 13.5682 35.2086 13.9516 34.8093 14.4294C33.4067 16.1282 33.1197 17.9952 32.8665 19.6424C32.7683 20.6262 32.5257 21.5902 32.1465 22.5032C31.4768 23.8842 30.7167 25.2401 29.912 26.6756C28.5427 29.1181 27.1461 31.6147 26.1914 34.2847C26.2548 34.3051 26.3181 34.3262 26.3804 34.3518C26.8832 34.5603 27.303 34.9289 27.5749 35.4004C28.9784 31.1327 31.7042 27.2339 33.6463 23.229C34.8758 20.6873 34.1714 17.819 36.0925 15.4922C36.3364 15.2043 36.6407 14.9735 36.9837 14.8164C37.3268 14.6592 37.7003 14.5795 38.0777 14.583H40.2721C40.6494 14.5795 41.0229 14.6592 41.366 14.8164C41.7091 14.9735 42.0133 15.2042 42.2572 15.4922C44.1784 17.819 43.4739 20.6873 44.7035 23.229C47.1967 28.3704 50.9919 33.334 51.6067 39.1325C51.8689 41.5456 51.3211 43.9773 50.0494 46.0447C50.1527 46.0407 50.255 46.0374 50.3514 46.0374C50.8651 46.0389 51.3776 46.0873 51.8825 46.1818C53.0501 43.964 53.5308 41.4487 53.2635 38.9566C52.7833 34.4271 50.5741 30.4864 48.4377 26.6755C47.633 25.24 46.8729 23.8842 46.2025 22.5018C45.8237 21.5891 45.5814 20.6257 45.4832 19.6425C45.23 17.9952 44.9431 16.1282 43.5419 14.4311C43.1425 13.9529 42.6421 13.5691 42.0768 13.3072C41.5114 13.0453 40.8951 12.9119 40.2721 12.9165H40.0079V10.4169C40.0079 10.1959 39.9202 9.98397 39.7639 9.82771C39.6077 9.67145 39.3958 9.58365 39.1748 9.58362Z" fill="#040C02"/>
<path d="M17.6191 9.03571C17.8664 9.03571 18.108 8.96239 18.3136 8.82504C18.5192 8.68769 18.6794 8.49247 18.774 8.26406C18.8686 8.03565 18.8934 7.78432 18.8451 7.54184C18.7969 7.29937 18.6778 7.07664 18.503 6.90182C18.3282 6.72701 18.1055 6.60796 17.863 6.55972C17.6205 6.51149 17.3692 6.53625 17.1408 6.63086C16.9124 6.72547 16.7172 6.88568 16.5798 7.09124C16.4425 7.2968 16.3691 7.53848 16.3691 7.78571C16.3695 8.11711 16.5013 8.43483 16.7357 8.66917C16.97 8.90351 17.2877 9.03533 17.6191 9.03571ZM17.6191 7.16071C17.7428 7.16071 17.8636 7.19736 17.9664 7.26604C18.0692 7.33471 18.1493 7.43232 18.1966 7.54653C18.2439 7.66073 18.2562 7.7864 18.2321 7.90764C18.208 8.02888 18.1485 8.14024 18.0611 8.22765C17.9737 8.31506 17.8623 8.37458 17.7411 8.3987C17.6198 8.42281 17.4942 8.41044 17.38 8.36313C17.2658 8.31583 17.1681 8.23572 17.0995 8.13294C17.0308 8.03016 16.9941 7.90932 16.9941 7.78571C16.9943 7.62 17.0602 7.46112 17.1774 7.34394C17.2946 7.22677 17.4534 7.16087 17.6191 7.16071Z" fill="#040C02"/>
<path d="M66.2962 18.1709C66.1314 18.1709 65.9703 18.2198 65.8333 18.3113C65.6962 18.4029 65.5894 18.5331 65.5263 18.6853C65.4633 18.8376 65.4467 19.0052 65.4789 19.1668C65.5111 19.3285 65.5904 19.4769 65.707 19.5935C65.8235 19.71 65.972 19.7894 66.1337 19.8216C66.2953 19.8537 66.4629 19.8372 66.6151 19.7741C66.7674 19.7111 66.8975 19.6042 66.9891 19.4672C67.0807 19.3302 67.1296 19.169 67.1296 19.0042C67.1293 18.7833 67.0414 18.5715 66.8852 18.4153C66.729 18.259 66.5172 18.1712 66.2962 18.1709ZM66.2962 19.4209C66.2138 19.4209 66.1333 19.3965 66.0647 19.3507C65.9962 19.3049 65.9428 19.2398 65.9113 19.1637C65.8797 19.0875 65.8715 19.0038 65.8876 18.9229C65.9036 18.8421 65.9433 18.7679 66.0016 18.7096C66.0599 18.6513 66.1341 18.6116 66.2149 18.5956C66.2958 18.5795 66.3795 18.5877 66.4557 18.6193C66.5318 18.6508 66.5969 18.7042 66.6427 18.7727C66.6885 18.8413 66.7129 18.9218 66.7129 19.0042C66.7128 19.1147 66.6688 19.2206 66.5907 19.2987C66.5126 19.3769 66.4067 19.4208 66.2962 19.4209Z" fill="#040C02"/>
<path d="M3.70394 4.4209C3.53912 4.4209 3.378 4.46977 3.24096 4.56134C3.10392 4.65291 2.99711 4.78306 2.93404 4.93533C2.87097 5.0876 2.85446 5.25516 2.88662 5.41681C2.91877 5.57846 2.99814 5.72694 3.11468 5.84349C3.23123 5.96003 3.37971 6.0394 3.54136 6.07155C3.70301 6.10371 3.87057 6.0872 4.02284 6.02413C4.17511 5.96106 4.30526 5.85425 4.39683 5.71721C4.4884 5.58017 4.53727 5.41905 4.53727 5.25423C4.53702 5.0333 4.44914 4.82148 4.29292 4.66525C4.13669 4.50903 3.92488 4.42115 3.70394 4.4209ZM3.70394 5.6709C3.62153 5.6709 3.54097 5.64646 3.47245 5.60068C3.40393 5.55489 3.35053 5.48982 3.31899 5.41368C3.28745 5.33755 3.2792 5.25377 3.29528 5.17294C3.31136 5.09212 3.35104 5.01788 3.40931 4.9596C3.46758 4.90133 3.54183 4.86165 3.62265 4.84557C3.70348 4.82949 3.78725 4.83775 3.86339 4.86928C3.93953 4.90082 4.0046 4.95422 4.05038 5.02274C4.09617 5.09126 4.12061 5.17182 4.12061 5.25423C4.1205 5.3647 4.07656 5.47062 3.99845 5.54874C3.92033 5.62685 3.81441 5.67079 3.70394 5.6709Z" fill="#040C02"/>
<path d="M48.5638 1.25C48.399 1.25 48.2379 1.29887 48.1008 1.39044C47.9638 1.48201 47.857 1.61216 47.7939 1.76443C47.7308 1.9167 47.7143 2.08426 47.7465 2.24591C47.7786 2.40756 47.858 2.55605 47.9745 2.67259C48.0911 2.78913 48.2396 2.8685 48.4012 2.90065C48.5629 2.93281 48.7304 2.91631 48.8827 2.85323C49.035 2.79016 49.1651 2.68335 49.2567 2.54631C49.3483 2.40927 49.3971 2.24815 49.3971 2.08333C49.3969 1.8624 49.309 1.65058 49.1528 1.49436C48.9966 1.33813 48.7847 1.25025 48.5638 1.25ZM48.5638 2.5C48.4814 2.5 48.4008 2.47556 48.3323 2.42978C48.2638 2.384 48.2104 2.31892 48.1789 2.24278C48.1473 2.16665 48.1391 2.08287 48.1551 2.00205C48.1712 1.92122 48.2109 1.84698 48.2692 1.78871C48.3274 1.73043 48.4017 1.69075 48.4825 1.67467C48.5633 1.6586 48.6471 1.66685 48.7233 1.69838C48.7994 1.72992 48.8645 1.78333 48.9102 1.85185C48.956 1.92037 48.9805 2.00092 48.9805 2.08333C48.9804 2.19381 48.9364 2.29972 48.8583 2.37784C48.7802 2.45596 48.6743 2.49989 48.5638 2.5Z" fill="#040C02"/>
<path d="M35.7873 9.44997C35.7873 9.28515 35.7384 9.12404 35.6468 8.987C35.5553 8.84996 35.4251 8.74315 35.2728 8.68007C35.1206 8.617 34.953 8.6005 34.7914 8.63265C34.6297 8.66481 34.4812 8.74417 34.3647 8.86072C34.2481 8.97726 34.1688 9.12575 34.1366 9.2874C34.1045 9.44905 34.121 9.6166 34.184 9.76888C34.2471 9.92115 34.3539 10.0513 34.491 10.1429C34.628 10.2344 34.7891 10.2833 34.9539 10.2833C35.1749 10.2831 35.3867 10.1952 35.5429 10.0389C35.6991 9.88272 35.787 9.67091 35.7873 9.44997ZM34.5373 9.44997C34.5373 9.36756 34.5617 9.287 34.6075 9.21848C34.6533 9.14996 34.7184 9.09656 34.7945 9.06502C34.8706 9.03349 34.9544 9.02523 35.0352 9.04131C35.1161 9.05739 35.1903 9.09707 35.2486 9.15534C35.3068 9.21362 35.3465 9.28786 35.3626 9.36868C35.3787 9.44951 35.3704 9.53329 35.3389 9.60942C35.3074 9.68556 35.2539 9.75063 35.1854 9.79642C35.1169 9.8422 35.0363 9.86664 34.9539 9.86664C34.8435 9.86653 34.7375 9.82259 34.6594 9.74448C34.5813 9.66636 34.5374 9.56045 34.5373 9.44997Z" fill="#040C02"/>
<path d="M3.4603 20.74L4.07988 19.9254L3.68863 19.7037L3.29072 20.6162H3.2778L2.87363 19.71L2.47572 19.9383L3.08863 20.7337V20.7467L2.12988 20.6229V21.0662L3.09488 20.9425V20.9554L2.47572 21.7504L2.84697 21.9854L3.27113 21.0662H3.28405L3.6753 21.9787L4.08613 21.7442L3.4603 20.9617V20.9487L4.44447 21.0662V20.6229L3.4603 20.7533V20.74Z" fill="#52A93C"/>
<path d="M26.1589 3.19874L25.8023 3.65666L26.0164 3.79166L26.2606 3.26249H26.2681L26.4931 3.78791L26.7298 3.65291L26.3693 3.20249V3.19499L26.936 3.26249V3.00707L26.3693 3.08207V3.07457L26.726 2.60541L26.501 2.47791L26.2718 3.00332H26.2643L26.0318 2.48166L25.8023 2.61291L26.1556 3.07082V3.07832L25.6035 3.00707V3.26249L26.1589 3.19124V3.19874Z" fill="#52A93C"/>
<path d="M50.9311 15.9196V15.485L49.9656 15.6129V15.6L50.5731 14.8008L50.1894 14.5833L49.7994 15.4783H49.7865L49.3902 14.5896L48.9998 14.8133L49.6011 15.5937V15.6066L48.6606 15.485V15.9196L49.6073 15.7983V15.8112L48.9998 16.5912L49.364 16.8212L49.7802 15.9196H49.7927L50.1765 16.815L50.5794 16.585L49.9656 15.8175V15.8046L50.9311 15.9196Z" fill="#52A93C"/>
<path d="M63.0556 4.66499L63.5798 3.9754L63.2485 3.7879L62.9123 4.55999H62.901L62.5593 3.79332L62.2223 3.98665L62.741 4.65957V4.67082L61.9302 4.56582V4.94082L62.7464 4.83624V4.84707L62.2223 5.51999L62.5368 5.71874L62.8956 4.94082H62.9064L63.2373 5.7129L63.5852 5.51457L63.0556 4.85249V4.84165L63.8881 4.94082V4.56582L63.0556 4.67582V4.66499Z" fill="#52A93C"/>
<path d="M0.833333 62.9167C1.29357 62.9167 1.66667 62.5436 1.66667 62.0833C1.66667 61.6231 1.29357 61.25 0.833333 61.25C0.373096 61.25 0 61.6231 0 62.0833C0 62.5436 0.373096 62.9167 0.833333 62.9167Z" fill="#040C02"/>
<path d="M4.58333 61.25H3.33333C3.11232 61.25 2.90036 61.3378 2.74408 61.4941C2.5878 61.6504 2.5 61.8623 2.5 62.0833C2.5 62.3043 2.5878 62.5163 2.74408 62.6726C2.90036 62.8289 3.11232 62.9167 3.33333 62.9167H4.58333C4.80435 62.9167 5.01631 62.8289 5.17259 62.6726C5.32887 62.5163 5.41667 62.3043 5.41667 62.0833C5.41667 61.8623 5.32887 61.6504 5.17259 61.4941C5.01631 61.3378 4.80435 61.25 4.58333 61.25Z" fill="#040C02"/>
<path d="M66.6668 61.25H65.4168C65.1958 61.25 64.9839 61.3378 64.8276 61.4941C64.6713 61.6504 64.5835 61.8623 64.5835 62.0833C64.5835 62.3043 64.6713 62.5163 64.8276 62.6726C64.9839 62.8289 65.1958 62.9167 65.4168 62.9167H66.6668C66.8878 62.9167 67.0998 62.8289 67.2561 62.6726C67.4124 62.5163 67.5002 62.3043 67.5002 62.0833C67.5002 61.8623 67.4124 61.6504 67.2561 61.4941C67.0998 61.3378 66.8878 61.25 66.6668 61.25Z" fill="#040C02"/>
<path d="M69.1668 62.9167C69.6271 62.9167 70.0002 62.5436 70.0002 62.0833C70.0002 61.6231 69.6271 61.25 69.1668 61.25C68.7066 61.25 68.3335 61.6231 68.3335 62.0833C68.3335 62.5436 68.7066 62.9167 69.1668 62.9167Z" fill="#040C02"/>
<path d="M49.2308 64.5833H45.7692C45.5597 64.6001 45.3643 64.6952 45.2217 64.8496C45.0792 65.004 45 65.2065 45 65.4166C45 65.6268 45.0792 65.8293 45.2217 65.9837C45.3643 66.1381 45.5597 66.2332 45.7692 66.25H49.2308C49.4403 66.2332 49.6358 66.1381 49.7783 65.9837C49.9209 65.8293 50 65.6268 50 65.4166C50 65.2065 49.9209 65.004 49.7783 64.8496C49.6358 64.6952 49.4403 64.6001 49.2308 64.5833Z" fill="#52A93C"/>
<path d="M24.2308 64.5833H20.7692C20.5597 64.6001 20.3643 64.6952 20.2217 64.8496C20.0792 65.004 20 65.2065 20 65.4166C20 65.6268 20.0792 65.8293 20.2217 65.9837C20.3643 66.1381 20.5597 66.2332 20.7692 66.25H24.2308C24.4403 66.2332 24.6358 66.1381 24.7783 65.9837C24.9209 65.8293 25 65.6268 25 65.4166C25 65.2065 24.9209 65.004 24.7783 64.8496C24.6358 64.6952 24.4403 64.6001 24.2308 64.5833Z" fill="#52A93C"/>
<path d="M43.3335 64.5833H26.6668C26.4458 64.5833 26.2339 64.6711 26.0776 64.8274C25.9213 64.9837 25.8335 65.1956 25.8335 65.4166C25.8335 65.6377 25.9213 65.8496 26.0776 66.0059C26.2339 66.1622 26.4458 66.25 26.6668 66.25H33.3085V67.0833H30.0002C29.7791 67.0833 29.5672 67.1711 29.4109 67.3274C29.2546 67.4837 29.1668 67.6956 29.1668 67.9166C29.1668 68.1377 29.2546 68.3496 29.4109 68.5059C29.5672 68.6622 29.7791 68.75 30.0002 68.75H40.4168C40.6378 68.75 40.8498 68.6622 41.0061 68.5059C41.1624 68.3496 41.2502 68.1377 41.2502 67.9166C41.2502 67.6956 41.1624 67.4837 41.0061 67.3274C40.8498 67.1711 40.6378 67.0833 40.4168 67.0833H36.6918V66.25H43.3335C43.5545 66.25 43.7665 66.1622 43.9228 66.0059C44.079 65.8496 44.1668 65.6377 44.1668 65.4166C44.1668 65.1956 44.079 64.9837 43.9228 64.8274C43.7665 64.6711 43.5545 64.5833 43.3335 64.5833Z" fill="#52A93C"/>
<path d="M62.8004 61.25H53.1746C53.9589 60.8924 54.6701 60.3925 55.2721 59.7756L56.2876 60.7913C56.4439 60.9475 56.6558 61.0353 56.8767 61.0353C57.0976 61.0352 57.3095 60.9474 57.4657 60.7912C57.6219 60.635 57.7097 60.4231 57.7096 60.2021C57.7096 59.9812 57.6218 59.7693 57.4656 59.6131L56.289 58.4362C56.3761 58.2894 56.459 58.1404 56.5356 57.9868L58.6309 58.885C58.8341 58.9721 59.0634 58.9749 59.2686 58.8928C59.4738 58.8107 59.638 58.6505 59.7251 58.4474C59.8121 58.2442 59.8149 58.0149 59.7328 57.8097C59.6508 57.6045 59.4905 57.4403 59.2874 57.3533L57.1003 56.4157C57.1621 56.1531 57.209 55.8873 57.2407 55.6194H60.8335C61.0542 55.619 61.2656 55.5309 61.4215 55.3747C61.5773 55.2185 61.6649 55.0069 61.6649 54.7862C61.6649 54.5656 61.5773 54.3539 61.4215 54.1977C61.2656 54.0415 61.0542 53.9535 60.8335 53.953H57.2407C57.209 53.6852 57.1621 53.4193 57.1003 53.1568L59.2874 52.2192C59.4905 52.1321 59.6508 51.968 59.7328 51.7628C59.8149 51.5576 59.8121 51.3282 59.7251 51.1251C59.638 50.9219 59.4738 50.7617 59.2686 50.6796C59.0634 50.5976 58.8341 50.6004 58.6309 50.6874L56.5356 51.5856C56.459 51.4321 56.3761 51.283 56.289 51.1362L57.4656 49.9594C57.6218 49.8031 57.7096 49.5913 57.7096 49.3703C57.7097 49.1494 57.6219 48.9375 57.4657 48.7813C57.3884 48.7039 57.2965 48.6425 57.1955 48.6006C57.0944 48.5588 56.9861 48.5372 56.8767 48.5372C56.6558 48.5372 56.4439 48.6249 56.2876 48.7811L55.2721 49.7968C54.6341 49.1359 53.8696 48.61 53.0242 48.2504C52.1788 47.8909 51.2698 47.705 50.3511 47.7038C47.0678 47.7038 38.9665 50.5265 38.9665 54.7862C38.9665 57.8685 43.2076 60.1975 46.7963 61.25H29.4859C30.0517 60.8242 30.5936 60.3677 31.1092 59.8824C35.0629 56.1943 39.466 48.2427 34.4499 42.6064C30.8005 38.5053 25.6112 39.5479 23.3195 40.2901C23.443 39.4145 23.9559 38.1815 25.7507 37.4324C25.9536 37.3466 26.1142 37.184 26.1975 36.98C26.2808 36.776 26.2799 36.5474 26.1951 36.3441C26.1102 36.1408 25.9483 35.9793 25.7447 35.8951C25.5412 35.8109 25.3125 35.8107 25.1088 35.8946C22.6401 36.925 21.8041 38.7999 21.6478 40.271C19.3268 39.5308 14.1967 38.5411 10.5784 42.6064C5.56234 48.2427 9.96544 56.1944 13.9191 59.8824C14.4346 60.3677 14.9765 60.8242 15.5422 61.25H7.1993C7.08075 61.2345 6.96025 61.2445 6.84587 61.2793C6.73148 61.3141 6.62584 61.3729 6.53598 61.4517C6.44613 61.5306 6.37414 61.6277 6.32483 61.7367C6.27551 61.8456 6.25 61.9638 6.25 62.0833C6.25 62.2029 6.27551 62.3211 6.32483 62.43C6.37414 62.5389 6.44613 62.636 6.53598 62.7149C6.62584 62.7938 6.73148 62.8526 6.84587 62.8874C6.96025 62.9222 7.08075 62.9321 7.1993 62.9167H62.8004C62.9189 62.9321 63.0394 62.9222 63.1538 62.8874C63.2682 62.8526 63.3739 62.7938 63.4637 62.7149C63.5536 62.636 63.6256 62.5389 63.6749 62.43C63.7242 62.3211 63.7497 62.2029 63.7497 62.0833C63.7497 61.9638 63.7242 61.8456 63.6749 61.7367C63.6256 61.6277 63.5536 61.5306 63.4637 61.4517C63.3739 61.3729 63.2682 61.3141 63.1538 61.2793C63.0394 61.2445 62.9189 61.2345 62.8004 61.25ZM40.6325 54.7862C40.6325 52.1541 46.9522 49.3702 50.3511 49.3702C51.7629 49.4072 53.1046 49.994 54.0901 51.0057C55.0756 52.0174 55.6271 53.3739 55.6271 54.7862C55.6271 56.1986 55.0756 57.5551 54.0901 58.5668C53.1046 59.5784 51.7629 60.1653 50.3511 60.2022C46.9522 60.2022 40.6325 57.4183 40.6325 54.7862ZM22.8965 60.4498C22.7783 60.3887 22.6472 60.3568 22.5142 60.3568C22.3811 60.3568 22.25 60.3887 22.1318 60.4498C20.3503 61.3709 18.8107 62.1673 15.0556 58.6639C11.562 55.405 7.59532 48.4646 11.8231 43.7142C15.7686 39.2798 21.8971 42.1131 22.155 42.2349C22.1633 42.2389 22.1723 42.2401 22.1807 42.2438C22.221 42.2615 22.2626 42.2759 22.3052 42.287C22.3183 42.2904 22.3311 42.2946 22.3443 42.2973C22.3999 42.3096 22.4565 42.3161 22.5134 42.3167C22.5719 42.3167 22.6302 42.3105 22.6875 42.2984L22.6943 42.2962C22.7008 42.2947 22.7069 42.2917 22.7133 42.2901C22.7646 42.2777 22.8147 42.2605 22.8627 42.2387C22.8658 42.2373 22.8691 42.237 22.8721 42.2355C23.1312 42.1129 29.2586 39.2798 33.2053 43.7142C37.433 48.4646 33.4664 55.405 29.9728 58.6639C26.218 62.1663 24.6789 61.3713 22.8965 60.4498Z" fill="#040C02"/>
</g>
<defs>
<clipPath id="clip0_732_56">
<rect width="70" height="70" fill="white"/>
</clipPath>
</defs>
</svg>
