<svg width="70" height="70" viewBox="0 0 70 70" fill="none" xmlns="http://www.w3.org/2000/svg">
<path d="M28.6812 23.3357V28.686H23.3309C21.1912 28.6907 19.4599 30.422 19.4575 32.5617V37.4453C19.4599 39.5827 21.1935 41.3163 23.3309 41.3187H28.6812V46.669C28.6835 48.8087 30.4149 50.54 32.5545 50.5447H37.4405C39.5802 50.54 41.3115 48.8063 41.3139 46.669V41.3187H46.6642C48.8015 41.3163 50.5352 39.5827 50.5375 37.4453V32.5617C50.5352 30.422 48.8039 28.6883 46.6642 28.686H41.3139V23.3357C41.3115 21.1983 39.5779 19.4647 37.4405 19.4623H32.5545C30.4172 19.4647 28.6835 21.196 28.6812 23.3357ZM37.8139 23.3357C37.9539 33.9313 36.1362 32.025 46.6642 32.186C46.8719 32.186 47.0399 32.354 47.0375 32.5617V37.4453C47.0375 37.6507 46.8695 37.8187 46.6642 37.8187H39.5639C38.5979 37.8187 37.8139 38.6027 37.8139 39.5687V46.669C37.8139 46.8767 37.6482 47.0423 37.4405 47.0447H32.5545C32.3469 47.0423 32.1812 46.8743 32.1812 46.669V39.5687C32.1812 38.6027 31.3972 37.8187 30.4312 37.8187H23.3309C23.1255 37.8187 22.9575 37.6507 22.9575 37.4453V32.5617C22.9575 32.354 23.1232 32.1883 23.3309 32.186H30.4312C31.3972 32.186 32.1812 31.402 32.1812 30.436V23.3357C32.1812 23.1303 32.3492 22.9623 32.5545 22.9623H37.4405C37.6459 22.9623 37.8139 23.128 37.8139 23.3357Z" fill="#52A93C"/>
<path d="M62.6781 13.6663L36.0968 0.842314C35.4154 0.49698 34.5941 0.501647 33.9058 0.823647L7.30576 13.657C6.4541 14.077 5.91276 14.9426 5.90576 15.8923V26.173C5.91976 44.8116 16.9284 61.684 33.9828 69.2043C34.6198 69.4913 35.3758 69.489 36.0128 69.2066C53.0671 61.6886 64.0781 44.8163 64.0944 26.18V15.869C64.0734 14.9263 63.5251 14.0746 62.6781 13.6663ZM60.5944 26.1847C60.5781 43.2763 50.5681 58.779 34.9978 65.8257C19.4274 58.7743 9.41743 43.2717 9.4011 26.18V16.541L34.9978 4.20231L60.5944 16.5456V26.1847Z" fill="#040C02"/>
</svg>
