<svg width="70" height="70" viewBox="0 0 70 70" fill="none" xmlns="http://www.w3.org/2000/svg">
<g clip-path="url(#clip0_834_404)">
<path d="M1.71714 43.624C2.10044 43.8903 2.5051 44.1244 2.92697 44.324C3.43214 44.583 4.27797 45.0147 4.3363 45.3168C4.41017 45.7148 4.36261 46.1258 4.1998 46.4963C4.02597 46.8697 3.8428 47.1905 3.68647 47.4682C3.2583 48.223 2.54314 49.4865 3.6223 50.3673C3.8743 50.6007 4.30947 50.9378 4.7073 51.2423C4.41482 51.7528 4.28232 52.3393 4.32697 52.9258C4.38874 53.3878 4.63923 53.8034 5.0188 54.0738C5.2778 54.2558 5.5543 54.4157 5.8273 54.5697C6.5168 54.9628 6.7863 55.146 6.8773 55.5112C6.94228 55.9807 6.90244 56.4588 6.76064 56.9112C6.69297 57.2238 6.6253 57.5365 6.5868 57.8445C6.47079 58.9077 6.60175 59.9832 6.96947 60.9875C7.49334 62.8408 9.1692 64.1323 11.0948 64.1667C11.4167 64.1662 11.7378 64.1322 12.0526 64.0652C15.3858 63.2765 18.6701 62.294 21.8888 61.1228C24.5161 62.664 26.1775 67.3552 26.6103 69.1145C26.7395 69.6349 27.2069 70.0003 27.7431 70L57.0265 69.9183C57.3976 69.9176 57.7462 69.7404 57.9655 69.441C58.1847 69.1416 58.2485 68.7557 58.1371 68.4017C57.8487 67.6112 57.4509 66.8651 56.9553 66.185C56.6759 65.7813 56.4233 65.3596 56.1993 64.9227C55.672 63.8526 55.2315 62.7418 54.8821 61.6012C54.2164 59.3477 53.7549 57.0389 53.5031 54.7027C53.3816 53.579 53.3601 52.4468 53.439 51.3193C53.5148 51.3193 53.5871 51.331 53.663 51.331C60.8339 51.3254 67.1625 46.6431 69.2654 39.7874C71.3682 32.9317 68.7535 25.5062 62.819 21.4807C62.6266 19.969 62.328 18.4727 61.9253 17.003C60.74 12.9962 58.2952 9.47792 54.9533 6.96967C52.0413 4.60366 48.7569 2.7373 45.2338 1.44667C45.2004 1.43634 45.1666 1.42777 45.1323 1.421C43.0464 0.485095 40.7861 0.000836559 38.4998 2.60235e-06C38.2665 2.60235e-06 38.0413 0.0256692 37.8103 0.0350026C37.794 0.0350026 37.7811 0.0245026 37.7648 0.0245026C36.8116 -0.015164 35.9145 -0.00933071 35.0196 0.0361693C31.2237 0.299171 27.4522 0.840796 23.7356 1.65667C18.4763 2.70667 14.652 4.54884 12.0421 7.308C9.98373 9.51153 8.39202 12.1084 7.36264 14.9427C6.94203 16.1616 6.59683 17.4053 6.32897 18.6667L6.2123 19.1578C5.96384 20.0737 5.62907 20.964 5.21247 21.8167C4.97914 22.3475 4.7388 22.8783 4.52764 23.4313C4.26178 24.0446 4.15658 24.7156 4.22197 25.3808C4.45678 26.4261 5.06022 27.3517 5.9218 27.9883C6.4923 28.5122 6.8668 28.8808 6.87147 29.2017C6.82841 29.379 6.7617 29.5497 6.67314 29.7092C5.2754 32.6518 3.56284 35.4342 1.56547 38.0077C0.720803 39.0367 -0.16353 40.236 0.02197 41.4365C0.271363 42.3632 0.881998 43.1512 1.71714 43.624ZM67.6665 35C67.6581 42.7285 61.395 48.9916 53.6665 49C53.2698 49 52.8801 48.9732 52.4916 48.9405H52.4858H52.473C48.5518 48.6386 44.9432 46.6861 42.5453 43.5689C40.1474 40.4517 39.1858 36.4629 39.8998 32.5955C41.4222 32.465 42.9183 32.1194 44.3436 31.5688C44.365 33.2815 45.6226 34.7271 47.3158 34.9852C49.009 35.2434 50.6403 34.2382 51.1711 32.6098C51.7018 30.9813 50.9761 29.208 49.456 28.4188C51.661 26.4271 53.2813 23.8719 54.1425 21.028C61.6758 21.2873 67.6527 27.4622 67.6665 35ZM38.4998 2.33334C46.2318 2.33334 52.4998 8.60135 52.4998 16.3333C52.4998 24.0653 46.2318 30.3333 38.4998 30.3333C30.7678 30.3333 24.4998 24.0653 24.4998 16.3333C24.5082 8.60482 30.7713 2.3417 38.4998 2.33334ZM48.9998 31.5C48.9998 32.1443 48.4775 32.6667 47.8331 32.6667C47.1888 32.6667 46.6665 32.1443 46.6665 31.5C46.6665 30.8557 47.1888 30.3333 47.8331 30.3333C48.4775 30.3333 48.9998 30.8557 48.9998 31.5ZM59.6841 17.6423C59.9 18.403 60.082 19.215 60.2418 20.0597C58.4702 19.2814 56.5737 18.8263 54.6418 18.7157C55.2204 15.0447 54.4912 11.2871 52.5815 8.099C52.893 8.33234 53.2056 8.56567 53.5148 8.80834C56.4785 11.0025 58.6447 14.1043 59.6841 17.6423ZM3.41114 39.4333C5.49919 36.7444 7.28923 33.8368 8.7498 30.7615C9.02394 30.2802 9.17838 29.74 9.20014 29.1865C9.08067 28.0135 8.459 26.9497 7.49564 26.2698C7.02897 25.837 6.57864 25.4287 6.5273 25.0507C6.53628 24.7748 6.59765 24.5032 6.70814 24.2503C6.8983 23.751 7.11764 23.261 7.33814 22.771C7.81691 21.7842 8.19941 20.7536 8.4803 19.6933L8.59697 19.1975C8.84472 18.0299 9.16382 16.8786 9.55247 15.75C10.4725 13.2121 11.8964 10.8866 13.7385 8.91334C15.9715 6.54967 19.4831 4.88017 24.1965 3.94334C25.6968 3.63767 27.3325 3.32617 29.023 3.0555C23.3835 7.06554 20.8899 14.1988 22.8029 20.849C24.7159 27.4991 30.6186 32.2171 37.5268 32.6177C37.405 33.4061 37.3403 34.2023 37.3331 35C37.347 43.0164 43.1729 49.8396 51.0881 51.1093C51.0041 52.4016 51.0381 53.6989 51.1896 54.985C51.458 57.4625 51.9492 59.9108 52.6573 62.3C53.0408 63.5546 53.525 64.7762 54.1051 65.9528C54.3713 66.4814 54.6738 66.991 55.0105 67.4777C55.0361 67.5162 55.0618 67.5547 55.0875 67.5943L28.6251 67.6667C27.8502 64.8993 26.4445 62.3492 24.5185 60.2163L25.614 59.8337C26.3746 59.5688 26.9486 59.367 27.2473 59.2725C32.2465 57.694 34.7455 55.4225 34.6778 52.5058C34.668 52.089 34.4366 51.7091 34.0707 51.5092C33.7049 51.3093 33.2601 51.3197 32.9041 51.5366C32.548 51.7535 32.3347 52.1439 32.3445 52.5607C32.3725 53.7612 31.389 55.5123 26.5368 57.0453C26.2253 57.1457 25.6338 57.3522 24.8475 57.6287C23.9736 57.9343 22.856 58.3287 21.6193 58.7452C18.3361 59.9489 14.9861 60.9617 11.586 61.7785C10.4966 61.9873 9.43575 61.3022 9.17797 60.2233C8.92937 59.5595 8.8356 58.8476 8.9038 58.142C8.9353 57.897 8.99014 57.6532 9.0438 57.4093C9.28109 56.6027 9.31556 55.7499 9.14414 54.9267C8.80447 53.8565 8.01697 52.9864 6.9858 52.542C6.90414 52.4965 6.82364 52.4498 6.74314 52.4032C6.86934 52.1483 7.02017 51.9065 7.19347 51.681C7.38869 51.4329 7.47505 51.1163 7.43284 50.8035C7.39063 50.4907 7.22345 50.2083 6.96947 50.0208C6.68947 49.8143 6.02914 49.3208 5.54614 48.9312C5.60214 48.8297 5.6628 48.7177 5.72114 48.6173C5.9043 48.2953 6.1143 47.9173 6.3173 47.4903C6.68708 46.6727 6.79585 45.761 6.6288 44.8793C6.3488 43.4548 4.98497 42.7572 3.98864 42.2485C3.65289 42.0899 3.33128 41.9029 3.0273 41.6897C2.77729 41.5227 2.54299 41.3333 2.3273 41.1238C2.33314 40.95 2.52214 40.5195 3.41114 39.4333Z" fill="#040C02"/>
<path d="M11.6268 21.63C12.2537 21.7757 12.8801 21.3862 13.0268 20.7597L13.1435 20.2498C13.3485 19.2763 13.6091 18.3154 13.924 17.3717C14.6268 15.424 15.7157 13.6383 17.1253 12.1217C18.6373 10.6953 20.4886 9.67886 22.5036 9.16883C23.1203 8.98068 23.4676 8.32829 23.2795 7.71166C23.0913 7.09504 22.4389 6.74768 21.8223 6.93583C19.4189 7.56121 17.217 8.79513 15.429 10.5187C13.8035 12.2653 12.5479 14.3225 11.7376 16.5667C11.3876 17.6014 11.0993 18.656 10.8743 19.7248L10.7576 20.23C10.6119 20.8565 11.0007 21.4827 11.6268 21.63Z" fill="#52A93C"/>
<path d="M10.4997 25.6667C11.144 25.6667 11.6663 25.1443 11.6663 24.5C11.6663 23.8557 11.144 23.3333 10.4997 23.3333C9.85534 23.3333 9.33301 23.8557 9.33301 24.5C9.33301 25.1443 9.85534 25.6667 10.4997 25.6667Z" fill="#52A93C"/>
<path d="M32.6665 16.3333C34.5995 16.3333 36.1665 14.7663 36.1665 12.8333C36.1665 10.9003 34.5995 9.33334 32.6665 9.33334C30.7335 9.33334 29.1665 10.9003 29.1665 12.8333C29.1665 14.7663 30.7335 16.3333 32.6665 16.3333ZM32.6665 11.6667C33.3108 11.6667 33.8332 12.189 33.8332 12.8333C33.8332 13.4777 33.3108 14 32.6665 14C32.0222 14 31.4998 13.4777 31.4998 12.8333C31.4998 12.189 32.0222 11.6667 32.6665 11.6667Z" fill="#52A93C"/>
<path d="M44.333 16.3333C46.266 16.3333 47.833 14.7663 47.833 12.8333C47.833 10.9003 46.266 9.33334 44.333 9.33334C42.4 9.33334 40.833 10.9003 40.833 12.8333C40.833 14.7663 42.4 16.3333 44.333 16.3333ZM44.333 11.6667C44.9773 11.6667 45.4997 12.189 45.4997 12.8333C45.4997 13.4777 44.9773 14 44.333 14C43.6887 14 43.1663 13.4777 43.1663 12.8333C43.1663 12.189 43.6887 11.6667 44.333 11.6667Z" fill="#52A93C"/>
<path d="M33.8333 19.8333C33.8333 19.189 33.311 18.6667 32.6667 18.6667C32.0223 18.6667 31.5 19.189 31.5 19.8333C31.5 23.6993 34.634 26.8333 38.5 26.8333C42.366 26.8333 45.5 23.6993 45.5 19.8333C45.5 19.189 44.9777 18.6667 44.3333 18.6667C43.689 18.6667 43.1667 19.189 43.1667 19.8333C43.1667 22.4107 41.0773 24.5 38.5 24.5C35.9227 24.5 33.8333 22.4107 33.8333 19.8333Z" fill="#52A93C"/>
<path d="M59.5 35C61.433 35 63 33.433 63 31.5C63 29.567 61.433 28 59.5 28C57.567 28 56 29.567 56 31.5C56 33.433 57.567 35 59.5 35ZM59.5 30.3333C60.1443 30.3333 60.6667 30.8557 60.6667 31.5C60.6667 32.1443 60.1443 32.6667 59.5 32.6667C58.8557 32.6667 58.3333 32.1443 58.3333 31.5C58.3333 30.8557 58.8557 30.3333 59.5 30.3333Z" fill="#52A93C"/>
<path d="M53.6665 37.3333C49.8021 37.3372 46.6704 40.4689 46.6665 44.3333C46.6665 44.9777 47.1888 45.5 47.8332 45.5C48.4775 45.5 48.9998 44.9777 48.9998 44.3333C48.9998 41.756 51.0892 39.6667 53.6665 39.6667C56.2438 39.6667 58.3332 41.756 58.3332 44.3333C58.3332 44.9777 58.8555 45.5 59.4998 45.5C60.1442 45.5 60.6665 44.9777 60.6665 44.3333C60.6626 40.4689 57.5309 37.3372 53.6665 37.3333Z" fill="#52A93C"/>
</g>
<defs>
<clipPath id="clip0_834_404">
<rect width="70" height="70" fill="white"/>
</clipPath>
</defs>
</svg>
