<svg width="60" height="70" viewBox="0 0 60 70" fill="none" xmlns="http://www.w3.org/2000/svg">
<path d="M23.6807 23.3357V28.686H18.3304C16.1907 28.6907 14.4594 30.422 14.457 32.5617V37.4453C14.4594 39.5827 16.193 41.3163 18.3304 41.3187H23.6807V46.669C23.683 48.8087 25.4144 50.54 27.554 50.5447H32.44C34.5797 50.54 36.311 48.8063 36.3134 46.669V41.3187H41.6637C43.801 41.3163 45.5347 39.5827 45.537 37.4453V32.5617C45.5347 30.422 43.8034 28.6883 41.6637 28.686H36.3134V23.3357C36.311 21.1983 34.5774 19.4647 32.44 19.4623H27.554C25.4167 19.4647 23.683 21.196 23.6807 23.3357ZM32.8134 23.3357C32.9534 33.9313 31.1357 32.025 41.6637 32.186C41.8714 32.186 42.0394 32.354 42.037 32.5617V37.4453C42.037 37.6507 41.869 37.8187 41.6637 37.8187H34.5634C33.5974 37.8187 32.8134 38.6027 32.8134 39.5687V46.669C32.8134 46.8767 32.6477 47.0423 32.44 47.0447H27.554C27.3464 47.0423 27.1807 46.8743 27.1807 46.669V39.5687C27.1807 38.6027 26.3967 37.8187 25.4307 37.8187H18.3304C18.125 37.8187 17.957 37.6507 17.957 37.4453V32.5617C17.957 32.354 18.1227 32.1883 18.3304 32.186H25.4307C26.3967 32.186 27.1807 31.402 27.1807 30.436V23.3357C27.1807 23.1303 27.3487 22.9623 27.554 22.9623H32.44C32.6454 22.9623 32.8134 23.128 32.8134 23.3357Z" fill="#52A93C"/>
<path d="M57.6776 13.6663L31.0963 0.842329C30.4149 0.496995 29.5936 0.501662 28.9053 0.823662L2.30527 13.657C1.45361 14.077 0.912273 14.9427 0.905273 15.8923V26.173C0.919273 44.8117 11.9279 61.684 28.9823 69.2043C29.6193 69.4913 30.3753 69.489 31.0123 69.2067C48.0666 61.6887 59.0776 44.8163 59.0939 26.18V15.869C59.0729 14.9263 58.5246 14.0747 57.6776 13.6663ZM55.5939 26.1847C55.5776 43.2763 45.5676 58.779 29.9973 65.8257C14.4269 58.7743 4.41694 43.2717 4.40061 26.18V16.541L29.9973 4.20233L55.5939 16.5457V26.1847Z" fill="#040C02"/>
</svg>
