<svg width="70" height="70" viewBox="0 0 70 70" fill="none" xmlns="http://www.w3.org/2000/svg">
<mask id="mask0_946_35" style="mask-type:luminance" maskUnits="userSpaceOnUse" x="0" y="0" width="70" height="70">
<path d="M0 7.62939e-06H70V70H0V7.62939e-06Z" fill="white"/>
</mask>
<g mask="url(#mask0_946_35)">
<path d="M27.8582 1.60183L27.3422 6.2947C27.0567 9.17782 25.2421 10.7726 22.4953 11.694L16.5137 13.7334" stroke="#040C02" stroke-width="2.5" stroke-miterlimit="10" stroke-linecap="round" stroke-linejoin="round"/>
<path d="M11.1667 17.3333C11.811 17.3333 12.3333 16.811 12.3333 16.1667C12.3333 15.5223 11.811 15 11.1667 15C10.5223 15 10 15.5223 10 16.1667C10 16.811 10.5223 17.3333 11.1667 17.3333Z" fill="#52A93C"/>
<path d="M52.2845 68.3982L52.5846 65.2989C52.8385 62.6768 52.7626 58.6239 52.3588 56.0254L51.3019 49.2208C50.7893 45.9213 50.9748 42.54 51.836 39.3465C52.2648 37.7561 52.6182 36.1463 52.9439 34.5316L53.5681 31.4361C54.0297 29.424 56.1677 28.581 57.6533 29.8253L68.633 39.2391V24.9466L67.7078 23.6427C64.6663 19.3561 60.552 16.1829 55.8911 14.5293L47.4385 11.6941C44.6917 10.7726 43.1466 9.23463 42.7292 6.29476L42.0757 1.6019" stroke="#040C02" stroke-width="2.5" stroke-miterlimit="10" stroke-linecap="round" stroke-linejoin="round"/>
<path d="M6.11693 19.3963C4.73881 20.6489 3.4784 22.0705 2.36291 23.6427L1.36719 25.0461V39.2997L12.4175 29.8254C13.9031 28.5809 16.0409 29.4241 16.5026 31.4362L16.8053 33.3422C17.1656 35.6097 17.6184 37.861 18.1428 40.0961C18.8397 43.0663 18.9607 46.1784 18.4881 49.2208L17.7118 56.0254C17.3082 58.6238 17.2322 62.6767 17.4861 65.2987L17.7863 68.3982" stroke="#040C02" stroke-width="2.5" stroke-miterlimit="10" stroke-linecap="round" stroke-linejoin="round"/>
<path d="M37.6025 6.45577L36.8916 6.92936C36.4116 7.24914 35.8476 7.41977 35.2706 7.41977H34.8002C34.2234 7.41977 33.6594 7.24914 33.1794 6.92936L32.4685 6.45577C31.3057 5.68125 29.7576 5.83766 28.7729 6.82873L28.7337 6.86838C28.1896 7.41608 27.8843 8.15682 27.8843 8.92887V11.4029C27.8843 12.175 28.1896 12.9157 28.7337 13.4634C29.7357 14.4723 31.3182 14.6139 32.4836 13.7991L33.1609 13.3255C33.6522 12.982 34.2371 12.7979 34.8364 12.7979H35.2346C35.8338 12.7979 36.4188 12.982 36.91 13.3255L37.5873 13.7991C38.7527 14.6139 40.3353 14.4723 41.3373 13.4634C41.8814 12.9157 42.1867 12.175 42.1867 11.4029V8.92887C42.1867 8.15682 41.8814 7.41608 41.3373 6.86838L41.2979 6.82873C40.3134 5.83766 38.7652 5.68125 37.6025 6.45577Z" stroke="#52A93C" stroke-width="2.5" stroke-miterlimit="10" stroke-linecap="round" stroke-linejoin="round"/>
<path d="M24.949 50.935L24.2031 52.9816C23.4466 55.0571 23.4466 57.3329 24.2031 59.4084L24.949 61.455C25.417 62.7389 26.6378 63.5933 28.0043 63.5933C29.8002 63.5933 31.2561 62.1373 31.2561 60.3414V52.0486C31.2561 50.2527 29.8002 48.7967 28.0043 48.7967C26.6378 48.7967 25.417 49.6511 24.949 50.935Z" stroke="#52A93C" stroke-width="2.5" stroke-miterlimit="10" stroke-linecap="round" stroke-linejoin="round"/>
<path d="M44.9946 50.935L45.7405 52.9816C46.497 55.0571 46.497 57.3329 45.7405 59.4084L44.9946 61.455C44.5266 62.7389 43.3059 63.5933 41.9394 63.5933C40.1434 63.5933 38.6875 62.1373 38.6875 60.3414V52.0486C38.6875 50.2527 40.1434 48.7967 41.9394 48.7967C43.3059 48.7967 44.5266 49.6511 44.9946 50.935Z" stroke="#52A93C" stroke-width="2.5" stroke-miterlimit="10" stroke-linecap="round" stroke-linejoin="round"/>
<path d="M35.0047 44.3502V46.4874C35.0047 50.6213 32.6062 54.3998 28.9072 56.2455" stroke="#52A93C" stroke-width="2.5" stroke-miterlimit="10" stroke-linecap="round" stroke-linejoin="round"/>
<path d="M35.0049 44.3502V46.4874C35.0049 50.6213 37.4035 54.3998 41.1024 56.2455" stroke="#52A93C" stroke-width="2.5" stroke-miterlimit="10" stroke-linecap="round" stroke-linejoin="round"/>
<path d="M43.8075 36.121H34.9083C34.057 36.121 33.2713 36.4021 32.639 36.8764C31.5001 37.6829 30.7885 39.0527 30.913 40.5806C31.0778 42.6015 32.7386 44.2225 34.7626 44.3427C36.1156 44.4231 37.3373 43.8489 38.1419 42.9074C38.5466 42.434 39.0949 42.1059 39.6995 41.9564L44.3668 40.6342C45.3851 40.3779 46.0988 39.4623 46.0988 38.4123C46.0988 37.1468 45.073 36.121 43.8075 36.121Z" stroke="#52A93C" stroke-width="2.5" stroke-miterlimit="10" stroke-linecap="round" stroke-linejoin="round"/>
<path d="M31.6306 21.6494L32.3939 21.9628C34.1555 22.6858 35.3058 24.8115 35.3058 26.7157C35.3058 28.2576 34.0557 29.5078 32.5136 29.5078C30.4853 29.5078 28.8408 27.8633 28.8408 25.8348V23.52C28.8408 22.0819 30.3 21.1034 31.6306 21.6494Z" stroke="#52A93C" stroke-width="2.5" stroke-miterlimit="10" stroke-linecap="round" stroke-linejoin="round"/>
<path d="M38.9814 21.6494L38.2181 21.9628C36.4565 22.6858 35.3062 24.8115 35.3062 26.7157C35.3062 28.2576 36.5562 29.5078 38.0982 29.5078C40.1267 29.5078 41.7712 27.8633 41.7712 25.8348V23.52C41.7712 22.0819 40.312 21.1034 38.9814 21.6494Z" stroke="#52A93C" stroke-width="2.5" stroke-miterlimit="10" stroke-linecap="round" stroke-linejoin="round"/>
</g>
</svg>
