<svg width="70" height="70" viewBox="0 0 70 70" fill="none" xmlns="http://www.w3.org/2000/svg">
<path d="M36.7499 28.4266C32.6265 28.4266 30.7343 27.1906 28.5359 25.7687C27.6281 25.1781 26.6765 24.5656 25.4515 23.9422C21.5906 21.9953 15.5421 23.9859 15.4874 24.0078C15.1156 24.1281 14.7109 24.0516 14.4156 23.7891C14.1203 23.5266 13.989 23.1328 14.0765 22.75C16.6359 10.5547 23.5484 4.375 34.5843 4.375C42.6015 4.375 48.6499 9.54844 48.6499 16.3953C48.6499 23.2422 43.3124 28.4156 36.7499 28.4156V28.4266ZM21.1968 20.8906C22.9468 20.8906 24.8062 21.1641 26.4249 21.9844C27.7593 22.6625 28.7984 23.3406 29.7171 23.9312C31.8499 25.3203 33.2609 26.2391 36.739 26.2391C42.0984 26.2391 46.4515 21.8203 46.4515 16.3953C46.4515 10.9703 41.3437 6.55156 34.5734 6.55156C25.2437 6.55156 19.2062 11.55 16.6031 21.4156C17.7953 21.1531 19.4359 20.8797 21.1859 20.8797L21.1968 20.8906Z" fill="#52A93C"/>
<path d="M54.0423 22.9578C53.7689 22.9578 53.4954 22.8594 53.2876 22.6516C41.0376 10.8281 29.8267 16.8547 29.7173 16.9203C29.1923 17.2156 28.5251 17.0297 28.2298 16.4937C27.9345 15.9687 28.1204 15.3016 28.6564 15.0062C28.7767 14.9406 41.4095 8.1375 54.8079 21.0766C55.2454 21.4922 55.2564 22.1922 54.8298 22.6187C54.6111 22.8375 54.3267 22.9578 54.0423 22.9578Z" fill="#52A93C"/>
<path d="M22.3235 65.625C15.1375 65.625 9.51565 62.1469 5.55627 55.2125C1.55315 48.2016 2.96409 40.3266 8.82659 36.9031C11.5719 35.2953 14.7656 34.8688 17.8281 35.6891C20.9125 36.5203 23.4938 38.5109 25.0906 41.3C27.1469 44.9094 27.0375 47.1734 26.9172 49.8094C26.8625 50.9031 26.8078 52.0406 26.8953 53.4297C27.1578 57.7937 31.8938 62.1031 31.9375 62.1469C32.2219 62.4094 32.3531 62.8031 32.2766 63.1859C32.2 63.5687 31.9156 63.875 31.5438 63.9953C28.2297 65.0781 25.1563 65.625 22.3125 65.625H22.3235ZM14.7656 37.4609C13.0813 37.4609 11.4188 37.9094 9.93127 38.7844C5.12971 41.5953 4.05784 48.1906 7.4594 54.1297C12.1188 62.3 19.4141 65.0891 29.1594 62.4422C27.5188 60.6375 24.9375 57.225 24.7188 53.5609C24.6313 52.0516 24.686 50.8047 24.7407 49.7C24.861 47.1297 24.9375 45.4344 23.1985 42.3828C21.8969 40.0969 19.786 38.4672 17.2703 37.8C16.4391 37.5813 15.6078 37.4719 14.7656 37.4719V37.4609Z" fill="#040C02"/>
<path d="M18.1894 55.2453C17.9925 55.2453 17.7956 55.1906 17.6206 55.0813C17.5003 55.0047 5.38155 47.3484 9.75655 29.1594C9.89874 28.5688 10.4894 28.2078 11.08 28.35C11.6706 28.4922 12.0316 29.0828 11.8894 29.6734C7.88624 46.3313 18.6597 53.1453 18.7691 53.2109C19.2831 53.5281 19.4472 54.1953 19.13 54.7094C18.9222 55.0484 18.5612 55.2344 18.2003 55.2344L18.1894 55.2453Z" fill="#040C02"/>
<path d="M51.6907 62.9562C49.7876 62.9562 47.9282 62.4641 46.2766 61.5016C40.6001 58.1875 38.6423 50.8156 41.9235 45.0844C43.9798 41.475 45.9813 40.4359 48.3001 39.2219C49.2626 38.7187 50.2688 38.1937 51.4173 37.4281C55.0266 35.0219 56.3391 28.7109 56.361 28.6562C56.4376 28.2734 56.722 27.9562 57.0938 27.8359C57.4657 27.7156 57.8813 27.8031 58.1657 28.0656C67.2985 36.4109 69.136 45.5437 63.6235 55.2016C61.4688 58.975 58.286 61.5891 54.6657 62.5625C53.6813 62.825 52.686 62.9562 51.7016 62.9562H51.6907ZM57.9907 30.9422C57.2579 33.2828 55.6391 37.2312 52.6204 39.2547C51.3735 40.0859 50.2798 40.6547 49.3063 41.1687C47.0532 42.3391 45.5548 43.1266 43.8157 46.1672C41.136 50.8703 42.7329 56.8969 47.3704 59.6203C49.3938 60.8016 51.7235 61.0969 54.086 60.4625C57.1485 59.6422 59.8501 57.3891 61.7204 54.1297C66.3798 45.9594 65.1329 38.1719 58.0016 30.9531L57.9907 30.9422Z" fill="#040C02"/>
<path d="M38.894 64.5969C38.4237 64.5969 37.9862 64.2906 37.844 63.8094C37.669 63.2297 38.0081 62.6172 38.5769 62.4531C54.7644 57.6625 55.2675 45.1828 55.2784 44.6578C55.2894 44.0672 55.7815 43.5859 56.3722 43.5859H56.394C56.9956 43.5969 57.4769 44.1 57.4659 44.7016C57.4659 44.8438 56.9628 59.2813 39.2003 64.5531C39.1019 64.5859 38.9925 64.5969 38.894 64.5969Z" fill="#040C02"/>
</svg>
