<svg width="70" height="70" viewBox="0 0 70 70" fill="none" xmlns="http://www.w3.org/2000/svg">
<g clip-path="url(#clip0_1057_51)">
<path d="M64.2708 28.2329C63.7745 24.2021 61.7449 20.5981 58.5557 18.0844C55.3685 15.5724 51.3933 14.4409 47.3638 14.897C44.7006 15.1986 42.2715 16.1747 40.2268 17.6341C39.8629 16.6547 39.5927 15.4814 39.4208 14.1151C38.8958 9.94098 39.5839 5.77912 39.5902 5.74153C40.0508 3.0803 38.2612 0.537737 35.6003 0.0731662C32.9364 -0.390447 30.3903 1.3977 29.9251 4.06194C29.8866 4.28301 28.989 9.5408 29.6667 15.1698C30.1008 18.776 31.092 21.8471 32.6128 24.2977C33.0969 25.0777 33.6364 25.7938 34.2252 26.4465C33.8066 28.1346 33.6716 29.9211 33.8691 31.7452C34.0201 33.1411 34.3589 34.5039 34.8759 35.7956C34.8824 35.8117 34.8995 35.8546 34.8712 35.9026C34.8426 35.9506 34.7967 35.9561 34.7737 35.959L34.7536 35.9616C31.5857 36.3515 28.7593 37.9518 26.795 40.4675C26.4004 40.973 26.0522 41.5043 25.7474 42.0544H22.2536C16.3155 42.0544 11.4844 46.8855 11.4844 52.8236V65.1803C11.4844 67.8378 13.6464 69.9999 16.304 69.9999C18.9615 69.9999 21.1236 67.8378 21.1236 65.1803V52.8236C21.1236 52.2006 21.6304 51.6938 22.2534 51.6938H24.9188C25.6538 53.7785 26.9903 55.5756 28.8683 56.9703C31.1761 58.6841 34.2051 59.679 37.3978 59.7713C37.715 59.7802 38.0931 59.774 38.3943 59.7717C41.0639 59.7293 44.3144 58.6284 47.5467 56.6721C50.9841 54.5917 54.2131 51.6831 56.8848 48.2612C59.516 44.8915 61.285 42.0568 62.6206 39.0695C63.7003 36.6556 64.7799 32.369 64.2708 28.2329ZM34.9528 22.8455C33.6454 20.7385 32.7868 18.0453 32.4011 14.8406C31.7712 9.60971 32.6026 4.73979 32.6383 4.53539C32.8206 3.49168 33.7311 2.75422 34.7562 2.75422C34.8786 2.75422 35.0025 2.76475 35.127 2.78649C36.2936 2.99006 37.0785 4.105 36.8762 5.2734C36.8684 5.31865 36.1071 9.84008 36.6882 14.459C36.9391 16.4529 37.3927 18.146 38.0414 19.5277C36.9459 20.6737 36.0294 21.9852 35.3303 23.4142C35.2004 23.2294 35.074 23.0405 34.9528 22.8455ZM18.3698 52.8236V65.1803C18.3698 66.3193 17.4431 67.2458 16.3043 67.2458C15.1654 67.2458 14.2387 66.3193 14.2387 65.1803V52.8236C14.2387 48.4041 17.8343 44.8085 22.2538 44.8085H24.6468C24.3003 46.1405 24.1871 47.534 24.3201 48.9396H22.2538C20.1121 48.9397 18.3698 50.6821 18.3698 52.8236ZM60.1068 37.9454C58.8658 40.7209 57.2027 43.3795 54.7144 46.5664C49.1833 53.6508 42.3631 56.9489 38.3612 57.0179C38.0957 57.0193 37.7575 57.0265 37.4775 57.0184C32.7837 56.8827 27.7506 54.3334 27.0873 48.9449C26.7872 46.5071 27.4544 44.0985 28.9659 42.1624C30.4775 40.2265 32.6525 38.9951 35.0913 38.6948L35.1099 38.6925C36.0064 38.5841 36.7829 38.0791 37.2407 37.3066C37.6984 36.5341 37.7684 35.6105 37.433 34.7724C37.0094 33.7135 36.7315 32.5951 36.6074 31.4487C35.8665 24.6061 40.8311 18.4088 47.674 17.6336C48.1476 17.58 48.6173 17.5539 49.0837 17.5539C55.3194 17.5539 60.7586 22.2414 61.5375 28.5693C61.949 31.9148 61.1156 35.6891 60.1068 37.9454Z" fill="#040C02"/>
<path d="M37.6612 47.4189C37.2049 47.4189 36.835 47.7888 36.835 48.2451V49.6842C36.835 50.1404 37.2049 50.5104 37.6612 50.5104C38.1174 50.5104 38.4873 50.1404 38.4873 49.6842V48.2451C38.4875 47.7888 38.1175 47.4189 37.6612 47.4189Z" fill="#52A93C"/>
<path d="M43.2461 48.8581C42.7899 48.8581 42.4199 49.2281 42.4199 49.6843V51.1234C42.4199 51.5796 42.7899 51.9496 43.2461 51.9496C43.7023 51.9496 44.0723 51.5796 44.0723 51.1234V49.6843C44.0724 49.2281 43.7025 48.8581 43.2461 48.8581Z" fill="#52A93C"/>
<path d="M47.2666 42.6053C46.8104 42.6053 46.4404 42.9752 46.4404 43.4315V44.8706C46.4404 45.3268 46.8104 45.6968 47.2666 45.6968C47.7229 45.6968 48.0928 45.3268 48.0928 44.8706V43.4315C48.0928 42.9752 47.7229 42.6053 47.2666 42.6053Z" fill="#52A93C"/>
<path d="M42.2476 34.4168C41.5955 34.4168 41.0161 33.9516 40.8945 33.2872C40.5891 31.6173 40.5623 29.9699 40.815 28.3907C40.935 27.6396 41.641 27.1283 42.3923 27.2485C43.1433 27.3685 43.6546 28.0747 43.5346 28.8257C43.3314 30.0955 43.3548 31.4299 43.6039 32.7917C43.7407 33.5399 43.2451 34.2572 42.497 34.3941C42.4132 34.4094 42.3298 34.4168 42.2476 34.4168Z" fill="#52A93C"/>
<path d="M44.0098 25.3637C43.738 25.3637 43.4635 25.2834 43.2235 25.1161C42.5995 24.6812 42.4464 23.823 42.8813 23.199C43.1896 22.7569 43.4676 22.4144 43.7559 22.1214C44.2894 21.5792 45.1614 21.5725 45.7033 22.1062C46.2453 22.6398 46.2521 23.5117 45.7185 24.0535C45.5416 24.2331 45.358 24.462 45.1406 24.7739C44.8729 25.1579 44.4448 25.3637 44.0098 25.3637Z" fill="#52A93C"/>
<path d="M8.70244 31.1969L9.83365 34.3775C9.88205 34.5137 9.97803 34.6216 10.099 34.6761L12.9249 35.9492C13.3241 36.1292 13.3241 36.7652 12.9249 36.9451L10.099 38.2182C9.97803 38.2728 9.88219 38.3806 9.83365 38.5168L8.70244 41.6974C8.54262 42.1468 7.97742 42.1468 7.8176 41.6974L6.68639 38.5168C6.63799 38.3806 6.54215 38.2728 6.42102 38.2182L3.59531 36.9452C3.19609 36.7653 3.19609 36.1293 3.59531 35.9494L6.42115 34.6762C6.54215 34.6217 6.63799 34.5138 6.68652 34.3777L7.81773 31.197C7.97742 30.7475 8.54262 30.7475 8.70244 31.1969Z" fill="#52A93C"/>
<path d="M63.3492 5.47942L64.1882 7.83878C64.2242 7.93981 64.2953 8.01979 64.385 8.06026L66.4811 9.00471C66.7773 9.13815 66.7773 9.60997 66.4811 9.74341L64.385 10.6879C64.2953 10.7283 64.224 10.8083 64.1882 10.9093L63.3492 13.2687C63.2306 13.602 62.8115 13.602 62.6929 13.2687L61.8539 10.9093C61.8179 10.8083 61.7468 10.7283 61.6571 10.6879L59.561 9.74341C59.2648 9.60997 59.2648 9.13815 59.561 9.00471L61.6571 8.06026C61.7468 8.01979 61.8181 7.93981 61.8539 7.83878L62.6929 5.47942C62.8113 5.1461 63.2306 5.1461 63.3492 5.47942Z" fill="#52A93C"/>
<path d="M21.9332 21.9081L22.7722 24.2674C22.8082 24.3685 22.8792 24.4484 22.9689 24.4889L25.0651 25.4334C25.3612 25.5668 25.3612 26.0386 25.0651 26.1721L22.9689 27.1165C22.8792 27.157 22.808 27.237 22.7722 27.338L21.9332 29.6973C21.8146 30.0307 21.3954 30.0307 21.2769 29.6973L20.4379 27.338C20.4019 27.237 20.3308 27.157 20.2411 27.1165L18.145 26.1721C17.8488 26.0386 17.8488 25.5668 18.145 25.4334L20.2411 24.4889C20.3308 24.4484 20.402 24.3685 20.4379 24.2674L21.2769 21.9081C21.3953 21.5748 21.8146 21.5748 21.9332 21.9081Z" fill="#52A93C"/>
<path d="M11.7466 15.2646C12.711 14.3001 12.711 12.7365 11.7466 11.772C10.7822 10.8076 9.21851 10.8076 8.25407 11.772C7.28964 12.7365 7.28964 14.3001 8.25407 15.2646C9.21851 16.229 10.7822 16.229 11.7466 15.2646Z" fill="#52A93C"/>
<path d="M50.499 7.36039C51.0875 7.36039 51.5645 6.88337 51.5645 6.29494C51.5645 5.70651 51.0875 5.22949 50.499 5.22949C49.9106 5.22949 49.4336 5.70651 49.4336 6.29494C49.4336 6.88337 49.9106 7.36039 50.499 7.36039Z" fill="#52A93C"/>
</g>
<defs>
<clipPath id="clip0_1057_51">
<rect width="70" height="70" fill="white"/>
</clipPath>
</defs>
</svg>
