<svg width="70" height="70" viewBox="0 0 70 70" fill="none" xmlns="http://www.w3.org/2000/svg">
<g clip-path="url(#clip0_946_82)">
<path d="M10.1709 70.116C10.0417 70.116 9.91047 70.093 9.78264 70.0443C9.21799 69.8298 8.93416 69.198 9.14881 68.6334C10.3372 65.5061 12.4752 60.2775 12.967 59.0778C12.8301 57.5739 12.2437 50.4986 13.023 47.4366C13.908 43.9593 21.6285 35.2952 23.2179 34.4299C24.0521 33.9759 25.1273 34.0567 26.0939 34.6463C26.9559 35.1721 28.9492 36.887 28.843 41.4404C28.7524 45.316 28.0066 48.5581 26.6263 51.077C25.7161 52.738 25.2518 54.6834 24.8421 56.3998C24.4141 58.1928 24.0446 59.7415 23.247 60.7708C22.3087 61.9821 21.5336 62.7833 21.1095 63.1928L20.6783 69.1012C20.6344 69.7036 20.1113 70.1546 19.5077 70.1124C18.9053 70.0684 18.4525 69.5443 18.4965 68.9418L18.9591 62.6038C18.9804 62.3125 19.1174 62.0416 19.3396 61.8519C19.3469 61.8456 20.265 61.0482 21.5176 59.4311C22.0261 58.7746 22.3604 57.3743 22.7142 55.8919C23.1558 54.0415 23.6564 51.9444 24.7077 50.0258C25.918 47.817 26.5735 44.9112 26.6558 41.3893C26.721 38.5995 25.8196 37.0415 24.9543 36.5136C24.6146 36.3064 24.3504 36.3039 24.2635 36.3511C23.8768 36.5832 21.9074 38.5123 19.5435 41.3595C17.0903 44.3143 15.445 46.7878 15.1427 47.976C14.5106 50.4598 14.9477 56.8747 15.1694 59.137C15.1867 59.3149 15.1603 59.4944 15.0924 59.6597C15.0668 59.7218 12.5249 65.9062 11.1933 69.4102C11.0273 69.847 10.6118 70.1157 10.1708 70.1157L10.1709 70.116Z" fill="#040C02"/>
<path d="M6.71333 58.6821C6.01442 58.6821 5.30936 58.4701 4.70138 58.0296C3.95804 57.4909 3.46913 56.6951 3.32448 55.7886C3.17983 54.8822 3.39681 53.9737 3.93548 53.2305C4.27208 52.7661 4.72202 52.3914 5.23868 52.1454C5.25372 52.1377 5.26903 52.1306 5.28434 52.1236L9.02128 50.4544C9.37825 50.2951 9.79278 50.3382 10.1091 50.5675C10.4255 50.7968 10.5956 51.1774 10.5553 51.5661L10.1324 55.637C10.1308 55.6534 10.1287 55.6698 10.1262 55.6861C10.0534 56.254 9.83735 56.7987 9.50061 57.2634C8.82919 58.1898 7.77837 58.6821 6.71333 58.6821ZM6.20296 54.1092C6.19886 54.1111 6.19475 54.113 6.19079 54.1149C5.99624 54.2052 5.83327 54.3396 5.70667 54.5141C5.30253 55.0717 5.42749 55.8541 5.98503 56.2583C6.5427 56.6624 7.32515 56.5374 7.72929 55.9799C7.85589 55.8052 7.93286 55.6086 7.95802 55.3954C7.95843 55.3913 7.95897 55.3872 7.95952 55.3831L8.18374 53.2243L6.20296 54.1092Z" fill="#52A93C"/>
<path d="M4.18084 50.4008C2.43713 50.4008 0.807031 49.2998 0.219687 47.5584C-0.136875 46.5013 -0.0603127 45.3686 0.435156 44.3689C0.930625 43.3694 1.78566 42.6225 2.84277 42.266C3.50545 42.0426 4.21748 41.989 4.90436 42.1109C4.92131 42.1135 4.93826 42.1165 4.95508 42.1198L10.2357 43.1811C10.6188 43.2581 10.9317 43.5337 11.0566 43.9039C11.1814 44.2742 11.0992 44.683 10.8411 44.9762L7.28162 49.0187C7.27 49.032 7.25811 49.0448 7.24594 49.0573C6.77316 49.5698 6.17461 49.9581 5.51221 50.1815C5.07129 50.3301 4.6223 50.4008 4.18084 50.4008ZM4.17428 44.2337C3.961 44.2337 3.74936 44.2688 3.54168 44.3388C3.03828 44.5086 2.631 44.8644 2.39516 45.3404C2.15918 45.8165 2.12268 46.356 2.29262 46.8594C2.64303 47.8987 3.77383 48.459 4.8133 48.1087C5.13896 47.9989 5.42047 47.8148 5.65002 47.5613C5.65371 47.5572 5.6574 47.5531 5.66123 47.5491L7.94758 44.9524L4.55477 44.2705C4.54971 44.2697 4.54465 44.2687 4.53959 44.2677C4.41764 44.2449 4.29582 44.2336 4.17455 44.2336L4.17428 44.2337Z" fill="#52A93C"/>
<path d="M10.9564 41.1027C10.8704 41.1027 10.7839 41.0926 10.6983 41.0718L7.33799 40.2557C7.322 40.2519 7.30627 40.2477 7.29069 40.2432C6.79727 40.1101 6.34159 39.8536 5.97094 39.5001C5.37704 38.9335 5.0392 38.1695 5.01993 37.349C5.00051 36.5284 5.30198 35.7492 5.86854 35.1554C7.03803 33.9293 8.98709 33.8833 10.2132 35.053C10.5838 35.4066 10.8616 35.85 11.0178 36.337C11.023 36.3521 11.0279 36.3676 11.0324 36.383L12.0058 39.7012C12.1159 40.0762 12.0175 40.4813 11.7477 40.7641C11.5388 40.9831 11.2516 41.1028 10.9563 41.1028L10.9564 41.1027ZM7.88022 38.1363L9.3736 38.499L8.94088 37.0238L8.93774 37.0136C8.89289 36.8684 8.81414 36.7412 8.7034 36.6357C8.35012 36.2985 7.78848 36.3119 7.45147 36.6652C7.28823 36.8364 7.20127 37.0609 7.20688 37.2974C7.21248 37.5338 7.30983 37.7539 7.48086 37.9172C7.59161 38.0228 7.72231 38.0956 7.86942 38.1336C7.87311 38.1345 7.87666 38.1355 7.88036 38.1365L7.88022 38.1363Z" fill="#52A93C"/>
<path d="M35.0724 60.375C31.5016 60.375 27.2671 57.9501 23.745 53.8885C23.3492 53.4321 23.3984 52.7413 23.8548 52.3456C24.3111 51.9498 25.002 51.9991 25.3976 52.4554C28.51 56.0447 32.1268 58.1875 35.0724 58.1875C37.968 58.1875 41.5361 56.1002 44.617 52.6042C45.0164 52.1508 45.7076 52.1072 46.1607 52.5067C46.6139 52.906 46.6575 53.5973 46.2582 54.0504C42.7161 58.0698 38.639 60.375 35.0724 60.375Z" fill="#040C02"/>
<path d="M4.37615 70.1158C4.00387 70.1158 3.64102 69.9258 3.43621 69.5829C3.12641 69.0643 3.29567 68.3927 3.81424 68.0829C5.01422 67.366 7.26092 66.5432 10.6829 65.5677C11.2638 65.402 11.8689 65.7387 12.0346 66.3197C12.2002 66.9006 11.8636 67.5057 11.2826 67.6714C7.30768 68.8047 5.63738 69.5418 4.93629 69.9609C4.76061 70.0659 4.56715 70.1158 4.37643 70.1158H4.37615Z" fill="#040C02"/>
<path d="M20.1326 65.4043C19.6341 65.4043 19.1836 65.0613 19.0674 64.5546C18.9325 63.9658 19.3004 63.3791 19.8892 63.2442C21.9202 62.7787 23.6195 62.4136 24.5482 62.2174L25.4909 55.1867C25.5713 54.588 26.1221 54.1681 26.7203 54.248C27.319 54.3282 27.7392 54.8786 27.659 55.4773L26.6135 63.2752C26.5516 63.7365 26.2047 64.1081 25.7487 64.2014C25.7259 64.206 23.4318 64.6765 20.3779 65.3763C20.2957 65.3952 20.2134 65.4043 20.1326 65.4043Z" fill="#040C02"/>
<path d="M65.6241 70.1158C65.4332 70.1158 65.2399 70.0658 65.0642 69.9608C64.373 69.5477 62.7334 68.8217 58.8484 67.7086C58.2678 67.5422 57.9319 66.9367 58.0983 66.3559C58.2646 65.7752 58.8703 65.4395 59.4509 65.6057C62.7985 66.5649 65.0016 67.3751 66.1861 68.0828C66.7047 68.3926 66.874 69.0641 66.5641 69.5827C66.3593 69.9255 65.9965 70.1157 65.6242 70.1157L65.6241 70.1158Z" fill="#040C02"/>
<path d="M49.8385 65.4043C49.7568 65.4043 49.6738 65.3952 49.5908 65.3759C46.2397 64.5998 44.2762 64.2064 44.2568 64.2026C43.7986 64.1111 43.449 63.7386 43.3869 63.2754L42.3741 55.7222C42.2938 55.1235 42.7141 54.5731 43.3128 54.4928C43.9109 54.4126 44.4619 54.8328 44.5422 55.4315L45.4519 62.2159C46.3268 62.4 47.9212 62.7438 50.0843 63.2449C50.6728 63.3812 51.0393 63.9687 50.903 64.5572C50.786 65.0627 50.336 65.4045 49.8384 65.4045L49.8385 65.4043Z" fill="#040C02"/>
<path d="M51.9299 42.5272C51.6392 42.5272 51.3491 42.4121 51.134 42.1839C50.7195 41.7445 50.7399 41.0523 51.1793 40.6377C52.563 39.3326 55.7814 35.8321 55.7814 31.5242C55.7814 27.1011 54.5017 24.3869 51.3644 22.156C50.8721 21.8058 50.7568 21.1231 51.1069 20.6307C51.4569 20.1384 52.1397 20.0232 52.6322 20.3733C56.3728 23.0336 57.9689 26.3684 57.9689 31.5243C57.9689 36.6803 54.2703 40.7293 52.6802 42.2291C52.4689 42.4285 52.199 42.5272 51.9299 42.5272Z" fill="#040C02"/>
<path d="M59.8291 70.116C59.3881 70.116 58.9725 69.8473 58.8066 69.4105C57.475 65.9065 54.933 59.722 54.9075 59.66C54.8396 59.4947 54.8132 59.3152 54.8306 59.1373C55.0523 56.8751 55.4893 50.46 54.8572 47.9763C54.5548 46.7882 52.9097 44.3147 50.4564 41.3598C48.0925 38.5126 46.1231 36.5835 45.7302 36.3478C45.65 36.3042 45.3856 36.3065 45.0456 36.5139C44.1803 37.0418 43.2791 38.5998 43.3441 41.3897C43.4265 44.9116 44.0819 47.8174 45.2923 50.0261C46.3435 51.9448 46.8441 54.0419 47.2857 55.8921C47.6396 57.3746 47.9739 58.7749 48.4823 59.4315C49.7351 61.0485 50.653 61.846 50.6622 61.8538C50.8823 62.0434 51.0197 62.3145 51.0409 62.6042L51.5034 68.9422C51.5473 69.5447 51.0946 70.0688 50.4922 70.1128C49.8893 70.156 49.3658 69.704 49.3216 69.1016L48.8904 63.1932C48.4663 62.7837 47.6913 61.9825 46.753 60.7712C45.9555 59.7417 45.5859 58.1933 45.1579 56.4001C44.7481 54.6837 44.2838 52.7383 43.3737 51.0773C41.9934 48.5584 41.2476 45.3161 41.1569 41.4407C41.0507 36.8871 43.044 35.1723 43.9061 34.6465C44.8727 34.0567 45.948 33.9758 46.7819 34.43C48.3714 35.2953 56.0919 43.9595 56.9769 47.4366C57.7561 50.4986 57.1698 57.5739 57.033 59.0778C57.5247 60.2774 59.6628 65.5061 60.8511 68.6334C61.0658 69.198 60.7819 69.8297 60.2173 70.0443C60.0895 70.0928 59.9581 70.116 59.829 70.116H59.8291Z" fill="#040C02"/>
<path d="M63.2866 58.6821C62.2216 58.6821 61.1709 58.1898 60.4996 57.2635C60.1627 56.799 59.9469 56.2541 59.8738 55.6861C59.8714 55.6698 59.8693 55.6534 59.8677 55.637L59.4448 51.5662C59.4045 51.1775 59.5744 50.7969 59.8909 50.5676C60.2072 50.3383 60.622 50.2951 60.9788 50.4545L64.7157 52.1236C64.7312 52.1306 64.7465 52.1378 64.7615 52.1453C65.2781 52.3914 65.728 52.7659 66.0646 53.2303C66.6033 53.9737 66.8203 54.8822 66.6756 55.7885C66.531 56.6948 66.0419 57.4908 65.2987 58.0294C64.6907 58.4701 63.9857 58.6821 63.2868 58.6821H63.2866ZM62.0406 55.3831C62.0411 55.3872 62.0417 55.3913 62.0421 55.3954C62.0672 55.6086 62.1442 55.8052 62.2708 55.9799C62.6748 56.5374 63.4574 56.6624 64.0151 56.2581C64.5727 55.854 64.6976 55.0715 64.2934 54.514C64.1668 54.3394 64.0038 54.205 63.8093 54.1148C63.8052 54.1129 63.8011 54.1109 63.797 54.109L61.8163 53.2243L62.0406 55.3831Z" fill="#52A93C"/>
<path d="M65.8188 50.4008C65.3772 50.4008 64.9284 50.3301 64.4875 50.1815C63.8251 49.9581 63.2264 49.5697 62.7537 49.0573C62.7416 49.0447 62.7297 49.0319 62.718 49.0186L59.1586 44.9761C58.9003 44.6828 58.8183 44.274 58.9431 43.9038C59.0681 43.5336 59.3809 43.2581 59.764 43.181L65.0446 42.1196C65.0615 42.1162 65.0784 42.1133 65.0953 42.1107C65.7822 41.9891 66.4941 42.0425 67.1568 42.2659C69.3392 43.002 70.5159 45.3761 69.78 47.5584C69.1928 49.2997 67.5624 50.4008 65.8188 50.4008ZM64.3386 47.549C64.3423 47.553 64.346 47.5571 64.3498 47.5612C64.5793 47.8147 64.8608 47.9988 65.1865 48.1086C66.2257 48.4593 67.3566 47.8986 67.7072 46.8593C67.877 46.3557 67.8406 45.8164 67.6046 45.3403C67.3687 44.8643 66.9615 44.5085 66.458 44.3387C66.1325 44.2288 65.7967 44.2049 65.4605 44.2676C65.4554 44.2686 65.4504 44.2694 65.4453 44.2704L62.0525 44.9523L64.3388 47.549H64.3386Z" fill="#52A93C"/>
<path d="M59.0435 41.1027C58.7482 41.1027 58.4611 40.983 58.2521 40.7639C57.9823 40.4812 57.884 40.0761 57.9939 39.7011L58.9674 36.3829C58.9719 36.3673 58.9768 36.3519 58.982 36.3367C59.1383 35.8499 59.4159 35.4065 59.7866 35.0529C61.0127 33.8833 62.9617 33.9292 64.1312 35.1553C64.6978 35.7492 64.9993 36.5283 64.9798 37.3488C64.9606 38.1694 64.6227 38.9334 64.0287 39.5C63.6583 39.8534 63.2025 40.1099 62.7091 40.243C62.6935 40.2476 62.6778 40.2518 62.6618 40.2556L59.3015 41.0717C59.2161 41.0925 59.1294 41.1026 59.0434 41.1026L59.0435 41.1027ZM61.059 37.024L60.6263 38.4992L62.1197 38.1365C62.1232 38.1355 62.1269 38.1346 62.1306 38.1336C62.2777 38.0956 62.4084 38.0229 62.519 37.9173C62.6902 37.7541 62.7876 37.5338 62.7932 37.2974C62.7988 37.061 62.7118 36.8364 62.5486 36.6652C62.2116 36.312 61.6498 36.2987 61.2966 36.6357C61.1859 36.7413 61.1072 36.8684 61.0623 37.0136L61.0592 37.0239L61.059 37.024Z" fill="#52A93C"/>
<path d="M18.012 42.4344C17.7309 42.4344 17.4499 42.3266 17.2362 42.1116C15.4242 40.2883 11.3009 35.2375 12.1466 27.7364C12.7602 22.2949 14.8024 17.6784 18.2164 14.0153C21.1934 10.8211 25.1628 8.46959 29.6953 7.21478C31.0283 6.84578 32.3558 6.5517 33.6413 6.34088C34.2374 6.2434 34.7998 6.64699 34.8977 7.24308C34.9955 7.83918 34.5916 8.40177 33.9955 8.49953C32.7871 8.69777 31.5366 8.9749 30.2788 9.32299C26.1358 10.4699 22.5181 12.6082 19.8165 15.5068C16.7293 18.8192 14.88 23.0163 14.3202 27.9815C13.5805 34.5413 17.198 38.97 18.7876 40.5696C19.2135 40.9981 19.2113 41.6906 18.7828 42.1163C18.5694 42.3284 18.2908 42.4344 18.012 42.4344Z" fill="#040C02"/>
<path d="M18.6351 41.8344C18.0548 41.8344 17.5712 41.3781 17.5434 40.7922C17.4491 38.7944 17.5504 34.834 19.2891 30.7571C21.4414 25.7097 25.3532 22.0832 30.9159 19.9786C37.3137 17.5578 42.82 17.7628 46.3126 18.3609C48.5448 18.7432 50.2571 19.3252 51.3132 19.753C51.5941 18.2134 51.56 15.1137 48.2465 11.4922C46.2071 9.26298 42.6389 8.06587 38.1925 8.11728C37.5898 8.13081 37.093 7.64067 37.0857 7.03665C37.0786 6.43263 37.5623 5.93716 38.1664 5.92991C43.2462 5.87112 47.3946 7.32048 49.8603 10.0155C55.557 16.2419 53.0895 21.5213 52.9818 21.7429C52.8509 22.0119 52.6158 22.2154 52.331 22.3065C52.0462 22.3974 51.7365 22.3679 51.474 22.2246C51.4552 22.2143 49.3355 21.0842 45.8476 20.5009C42.6428 19.9651 37.5849 19.7943 31.69 22.0246C26.7062 23.9102 23.2108 27.137 21.3013 31.6151C19.7337 35.2912 19.6432 38.8782 19.7286 40.6892C19.7571 41.2926 19.291 41.8048 18.6876 41.8333C18.6701 41.8342 18.6526 41.8344 18.6351 41.8344Z" fill="#52A93C"/>
<path d="M20.2972 14.5942C20.2268 14.5942 20.1553 14.5873 20.0837 14.5731C19.4911 14.4558 19.1059 13.8804 19.2232 13.2878C19.6445 11.1595 21.565 4.00832 28.5873 1.34805C33.1319 -0.373786 37.2151 -0.216149 40.7236 1.81645C43.72 3.55237 45.492 6.24983 46.2816 7.70328C46.5699 8.23403 46.3733 8.89821 45.8426 9.18655C45.312 9.47475 44.6478 9.27842 44.3593 8.74754C42.8644 5.9958 38.4111 -0.0341763 29.3622 3.39364C23.3934 5.65496 21.7351 11.8636 21.369 13.7126C21.2659 14.2335 20.8087 14.5942 20.2972 14.5942Z" fill="#040C02"/>
<path d="M51.399 41.6931C51.3804 41.6931 51.362 41.6927 51.3433 41.6917C50.7399 41.6615 50.2755 41.1478 50.3058 40.5445C50.4211 38.2484 50.27 32.3874 46.3869 27.5663C45.1264 26.0013 43.7474 24.6613 42.2882 23.5837C41.8023 23.2248 41.6994 22.54 42.0583 22.0541C42.4172 21.5683 43.102 21.4653 43.5879 21.8241C45.1976 23.013 46.7125 24.4835 48.0906 26.1942C52.2889 31.4068 52.6495 37.4913 52.4906 40.6543C52.4613 41.2389 51.9779 41.6932 51.3992 41.6932L51.399 41.6931Z" fill="#040C02"/>
</g>
<defs>
<clipPath id="clip0_946_82">
<rect width="70" height="70" fill="white"/>
</clipPath>
</defs>
</svg>
