<svg width="70" height="70" viewBox="0 0 70 70" fill="none" xmlns="http://www.w3.org/2000/svg">
<g clip-path="url(#clip0_1057_85)">
<path d="M57.8021 6.95567C48.6088 -0.277665 40.6871 -1.60417 26.4188 1.68817C22.5431 2.58183 18.1576 3.94567 14.9971 7.28817C12.939 9.48868 11.3511 12.0857 10.3304 14.9205C9.89715 16.1687 9.5441 17.4434 9.27345 18.7367L9.18128 19.1403C8.92273 20.0822 8.57748 20.998 8.14995 21.8762C7.52888 22.9385 7.19815 24.1456 7.19095 25.3762C7.42686 26.4181 8.02929 27.3406 8.88845 27.9755C9.45895 28.4993 9.83462 28.868 9.83812 29.204C9.78835 29.3936 9.71258 29.5754 9.61295 29.7442C9.42642 30.0754 9.29223 30.4336 9.21512 30.8058C9.05566 32.205 8.48389 33.5252 7.57245 34.5987C3.90795 38.5467 2.86145 39.9082 2.98978 41.3175C3.1896 42.2969 3.81228 43.1378 4.69078 43.6147C5.0754 43.8835 5.48163 44.1199 5.90528 44.3217C6.40695 44.5783 7.24812 45.0077 7.30528 45.3145C7.38139 45.7098 7.33625 46.1189 7.17578 46.4882C7.00428 46.8545 6.82578 47.1695 6.67062 47.4448C6.21562 48.2498 5.52962 49.4667 6.60528 50.3743C6.85728 50.5972 7.28895 50.9367 7.68212 51.2377C7.38946 51.7504 7.2589 52.3398 7.30762 52.9282C7.36906 53.3847 7.61703 53.7953 7.99245 54.0622C8.25262 54.2477 8.53028 54.4122 8.80912 54.5673C9.49278 54.9582 9.75878 55.1402 9.85095 55.5007C9.93549 55.9372 9.90165 56.3883 9.75295 56.8073C9.36625 58.1786 9.43212 59.638 9.94078 60.9688C10.5399 63.1854 12.7721 64.5427 15.0158 64.0547C18.3383 63.2516 21.6148 62.269 24.8309 61.1112C26.441 62.0713 27.9716 64.4047 29.0753 67.6142C29.5573 69.0361 30.8895 69.9947 32.391 70H55.918C57.1292 69.9992 58.254 69.3721 58.8915 68.3422C59.529 67.3122 59.5887 66.0259 59.0493 64.9413C57.5923 61.7004 56.6855 58.2393 56.366 54.7003C55.952 51.211 56.4755 47.6744 57.8826 44.4547C58.7215 42.7127 59.756 41.0719 60.9661 39.564C63.2738 36.4455 65.8895 32.914 65.9746 26.8998C66.0441 23.5555 65.6343 20.2184 64.7578 16.9902C63.5833 12.9821 61.1432 9.46186 57.8021 6.95567ZM59.0925 38.1757C57.7765 39.8246 56.6538 41.619 55.7465 43.5237C54.1722 47.1237 53.5858 51.0784 54.0478 54.9803C54.3975 58.7887 55.3834 62.5114 56.9645 65.9937C57.1383 66.3545 57.1149 66.7792 56.9025 67.1187C56.6901 67.4582 56.3184 67.6651 55.918 67.6667H32.391C31.8863 67.6623 31.4402 67.338 31.2803 66.8593C30.5204 64.3826 29.2111 62.1095 27.4501 60.2093L28.3216 59.9037C29.1838 59.6003 29.8383 59.3717 30.1603 59.269C35.1513 57.6987 37.648 55.419 37.5791 52.5117C37.5805 52.1996 37.4533 51.9008 37.2276 51.6853C37.0018 51.4699 36.6973 51.357 36.3856 51.373C36.0762 51.38 35.7822 51.5098 35.5684 51.7336C35.3546 51.9574 35.2386 52.2571 35.2458 52.5665C35.2738 53.7693 34.2938 55.5228 29.4568 57.0442C29.1161 57.1515 28.4418 57.3883 27.5481 57.7022C26.7116 57.9962 25.6814 58.3602 24.544 58.7522H24.5346C21.2604 59.9404 17.9243 60.9507 14.5409 61.7785C13.4501 61.9899 12.3885 61.2967 12.1434 60.2128C11.7791 59.301 11.738 58.2919 12.0268 57.3533C12.2677 56.5689 12.2987 55.735 12.1166 54.9348C11.7825 53.8648 10.9993 52.9931 9.97112 52.5467C9.88712 52.4988 9.80312 52.4522 9.72028 52.4032C9.84446 52.1469 9.99416 51.9038 10.1671 51.6775C10.3604 51.4298 10.4457 51.1146 10.4035 50.8032C10.3614 50.4918 10.1954 50.2106 9.94312 50.0232C9.66312 49.8155 8.99812 49.315 8.51978 48.9323C8.57928 48.8227 8.64578 48.699 8.70762 48.594C8.88612 48.2778 9.09145 47.9115 9.29095 47.4938C9.66309 46.6782 9.77275 45.767 9.60478 44.8863C9.33295 43.4548 7.97145 42.7583 6.97395 42.2485C6.66825 42.1041 6.37347 41.9376 6.09195 41.7503C5.81856 41.5603 5.56069 41.3489 5.32078 41.118C5.34062 40.4437 7.90728 37.6752 9.28745 36.1877C10.5134 34.7829 11.2911 33.0435 11.5204 31.1932C11.57 31.0588 11.6293 30.9281 11.6978 30.8023C11.9891 30.3094 12.1531 29.7517 12.1749 29.1795C12.058 28.0007 11.4336 26.9313 10.4646 26.25C9.99795 25.8183 9.54995 25.41 9.49978 25.0507C9.64135 24.2732 9.90434 23.5228 10.2791 22.827C10.7675 21.8129 11.1581 20.7547 11.4458 19.6665L11.5403 19.2593C11.7899 18.0618 12.1145 16.8812 12.5121 15.7243C13.4258 13.1865 14.8464 10.8612 16.6876 8.89C19.4141 6.00483 23.221 4.81484 26.9368 3.9585C42.1583 0.449168 48.7873 2.83384 56.3625 8.792C59.3247 10.9842 61.4862 14.0875 62.5155 17.626C63.3304 20.6364 63.7103 23.748 63.6436 26.866C63.5701 32.1265 61.3955 35.0653 59.0925 38.1757Z" fill="#040C02"/>
<path d="M49.739 19.5767C51.4221 21.3636 54.1728 21.6171 56.1541 20.1678C58.1355 18.7185 58.7271 16.0203 57.5339 13.8749C56.3407 11.7296 53.7364 10.8089 51.4599 11.7277C49.1835 12.6465 47.9479 15.117 48.5781 17.4895C47.1398 18.737 45.9653 20.2594 45.1236 21.9672C44.3772 21.408 43.5655 20.9418 42.7063 20.5788C41.7181 18.6982 41.8966 16.1257 42.3493 13.9767C42.4286 13.9767 42.5033 14 42.5826 14C44.9298 14.0186 46.9314 12.3041 47.2736 9.982C47.6158 7.65988 46.1939 5.44084 43.9412 4.78154C41.6885 4.12224 39.2945 5.22446 38.3307 7.36466C37.367 9.50487 38.1284 12.028 40.1151 13.2778C39.612 15.321 39.5326 17.4456 39.8818 19.5207C38.8901 19.2096 37.8013 18.9187 36.6151 18.648C35.5418 18.4065 34.521 18.2012 33.5608 18.0273C32.5807 17.1713 31.8425 16.0731 31.42 14.8423C33.6192 14.0042 34.8535 11.6627 34.302 9.37465C33.7506 7.0866 31.5853 5.56438 29.2457 5.82008C26.906 6.07578 25.1206 8.02977 25.0764 10.3829C25.0322 12.7361 26.7431 14.7557 29.0715 15.099C29.3058 15.9191 29.6388 16.7077 30.0631 17.4475C27.7555 17.1092 25.5785 16.8642 23.8273 16.6973C23.4325 14.3703 21.3684 12.7002 19.0102 12.7999C16.652 12.8995 14.7361 14.7377 14.539 17.0898C14.3419 19.4419 15.9252 21.5733 18.2339 22.064C20.5426 22.5547 22.8559 21.2514 23.6325 19.0225C26.1175 19.2558 29.4658 19.6525 32.8071 20.2592L32.9938 20.2942C31.8162 21.2313 30.7724 22.3253 29.8916 23.5457C29.4679 23.412 29.0269 23.3405 28.5826 23.3333C26.3514 23.3252 24.4242 24.8919 23.9765 27.0777C23.5289 29.2636 24.6852 31.4618 26.74 32.3313C28.7948 33.2008 31.1777 32.5003 32.4351 30.6571C33.6924 28.8139 33.4751 26.3397 31.9158 24.7438C32.8862 23.3834 34.129 22.2395 35.5651 21.385C35.8423 21.2349 36.1305 21.1062 36.4273 21C38.0764 21.3672 39.6944 21.8622 41.2666 22.4805C41.3026 22.5006 41.3396 22.519 41.3775 22.5353L41.3973 22.5447L41.416 22.554C42.4017 22.9133 43.3099 23.4569 44.0923 24.1558C44.2362 24.2993 44.3602 24.4613 44.461 24.6377C44.9976 25.5418 44.8798 26.8823 44.0876 28.8622C43.6548 29.9542 43.0855 31.0917 42.4823 32.2957C40.4243 36.4035 38.0933 41.0597 41.8535 44.079C46.2413 47.5895 46.3965 59.7123 46.0861 64.085C46.0637 64.3939 46.1649 64.699 46.3676 64.9331C46.5702 65.1673 46.8576 65.3113 47.1665 65.3334H47.2493C47.8626 65.3349 48.3724 64.8613 48.416 64.2495C48.4661 63.5577 49.5558 47.2477 43.3165 42.2567C41.1873 40.5499 42.431 37.6192 44.5718 33.3433C45.0921 32.3062 45.6101 31.2433 46.0488 30.205C47.2192 29.9212 48.4526 30.276 49.2933 31.1383C47.9006 33.0782 48.1679 35.7512 49.9173 37.3768C51.6667 39.0024 54.3521 39.0732 56.1847 37.5421C58.0174 36.011 58.4252 33.3558 57.1367 31.3452C55.8481 29.3346 53.2653 28.5961 51.1086 29.6217C49.9736 28.5158 48.4798 27.8535 46.8981 27.755C47.2405 26.528 47.1862 25.2241 46.743 24.0298C47.4128 22.3488 48.4343 20.8305 49.739 19.5767ZM53.0826 14C54.3713 14 55.416 15.0447 55.416 16.3333C55.416 17.622 54.3713 18.6667 53.0826 18.6667C51.794 18.6667 50.7493 17.622 50.7493 16.3333C50.7493 15.0447 51.794 14 53.0826 14ZM42.5826 7.00001C43.8713 7.00001 44.916 8.04468 44.916 9.33335C44.916 10.622 43.8713 11.6667 42.5826 11.6667C41.294 11.6667 40.2493 10.622 40.2493 9.33335C40.2493 8.04468 41.294 7.00001 42.5826 7.00001ZM27.416 10.5C27.416 9.21135 28.4606 8.16668 29.7493 8.16668C31.038 8.16668 32.0826 9.21135 32.0826 10.5C32.0826 11.7887 31.038 12.8333 29.7493 12.8333C28.4606 12.8333 27.416 11.7887 27.416 10.5ZM19.2493 19.8333C17.9606 19.8333 16.916 18.7887 16.916 17.5C16.916 16.2113 17.9606 15.1667 19.2493 15.1667C20.538 15.1667 21.5826 16.2113 21.5826 17.5C21.5826 18.7887 20.538 19.8333 19.2493 19.8333ZM28.5826 30.3333C27.294 30.3333 26.2493 29.2887 26.2493 28C26.2493 26.7113 27.294 25.6667 28.5826 25.6667C29.8713 25.6667 30.916 26.7113 30.916 28C30.916 29.2887 29.8713 30.3333 28.5826 30.3333ZM55.416 33.8333C55.416 35.122 54.3713 36.1667 53.0826 36.1667C51.794 36.1667 50.7493 35.122 50.7493 33.8333C50.7493 32.5447 51.794 31.5 53.0826 31.5C54.3713 31.5 55.416 32.5447 55.416 33.8333Z" fill="#52A93C"/>
</g>
<defs>
<clipPath id="clip0_1057_85">
<rect width="70" height="70" fill="white"/>
</clipPath>
</defs>
</svg>
